<svg width="40" height="41" viewBox="0 0 40 41" fill="none" xmlns="http://www.w3.org/2000/svg">
<path d="M20 4.25879C11.5891 4.25879 5 8.10254 5 13.0088V28.0088C5 32.915 11.5891 36.7588 20 36.7588C28.4109 36.7588 35 32.915 35 28.0088V13.0088C35 8.10254 28.4109 4.25879 20 4.25879ZM32.5 20.5088C32.5 22.0119 31.2687 23.5447 29.1234 24.715C26.7078 26.0322 23.4672 26.7588 20 26.7588C16.5328 26.7588 13.2922 26.0322 10.8766 24.715C8.73125 23.5447 7.5 22.0119 7.5 20.5088V17.9088C10.1656 20.2525 14.7234 21.7588 20 21.7588C25.2766 21.7588 29.8344 20.2463 32.5 17.9088V20.5088ZM29.1234 32.215C26.7078 33.5322 23.4672 34.2588 20 34.2588C16.5328 34.2588 13.2922 33.5322 10.8766 32.215C8.73125 31.0447 7.5 29.5119 7.5 28.0088V25.4088C10.1656 27.7525 14.7234 29.2588 20 29.2588C25.2766 29.2588 29.8344 27.7463 32.5 25.4088V28.0088C32.5 29.5119 31.2687 31.0447 29.1234 32.215Z" fill="#451AE2"/>
<path d="M20 4.25879C11.5891 4.25879 5 8.10254 5 13.0088V28.0088C5 32.915 11.5891 36.7588 20 36.7588C28.4109 36.7588 35 32.915 35 28.0088V13.0088C35 8.10254 28.4109 4.25879 20 4.25879ZM32.5 20.5088C32.5 22.0119 31.2687 23.5447 29.1234 24.715C26.7078 26.0322 23.4672 26.7588 20 26.7588C16.5328 26.7588 13.2922 26.0322 10.8766 24.715C8.73125 23.5447 7.5 22.0119 7.5 20.5088V17.9088C10.1656 20.2525 14.7234 21.7588 20 21.7588C25.2766 21.7588 29.8344 20.2463 32.5 17.9088V20.5088ZM29.1234 32.215C26.7078 33.5322 23.4672 34.2588 20 34.2588C16.5328 34.2588 13.2922 33.5322 10.8766 32.215C8.73125 31.0447 7.5 29.5119 7.5 28.0088V25.4088C10.1656 27.7525 14.7234 29.2588 20 29.2588C25.2766 29.2588 29.8344 27.7463 32.5 25.4088V28.0088C32.5 29.5119 31.2687 31.0447 29.1234 32.215Z" fill="white" fill-opacity="0.2"/>
</svg>
