<svg width="40" height="41" viewBox="0 0 40 41" fill="none" xmlns="http://www.w3.org/2000/svg">
<path d="M31.25 8.00879H21.25V3.00879C21.25 2.67727 21.1183 2.35933 20.8839 2.12491C20.6495 1.89049 20.3315 1.75879 20 1.75879C19.6685 1.75879 19.3505 1.89049 19.1161 2.12491C18.8817 2.35933 18.75 2.67727 18.75 3.00879V8.00879H8.75C7.42392 8.00879 6.15215 8.53557 5.21447 9.47325C4.27678 10.4109 3.75 11.6827 3.75 13.0088V30.5088C3.75 31.8349 4.27678 33.1066 5.21447 34.0443C6.15215 34.982 7.42392 35.5088 8.75 35.5088H31.25C32.5761 35.5088 33.8479 34.982 34.7855 34.0443C35.7232 33.1066 36.25 31.8349 36.25 30.5088V13.0088C36.25 11.6827 35.7232 10.4109 34.7855 9.47325C33.8479 8.53557 32.5761 8.00879 31.25 8.00879ZM26.875 15.5088C27.2458 15.5088 27.6084 15.6188 27.9167 15.8248C28.225 16.0308 28.4654 16.3236 28.6073 16.6663C28.7492 17.0089 28.7863 17.3859 28.714 17.7496C28.6416 18.1133 28.463 18.4474 28.2008 18.7096C27.9386 18.9718 27.6045 19.1504 27.2408 19.2228C26.8771 19.2951 26.5001 19.258 26.1575 19.1161C25.8149 18.9741 25.522 18.7338 25.316 18.4255C25.11 18.1171 25 17.7546 25 17.3838C25 16.8865 25.1975 16.4096 25.5492 16.058C25.9008 15.7063 26.3777 15.5088 26.875 15.5088ZM15 29.2588H12.5C11.837 29.2588 11.2011 28.9954 10.7322 28.5266C10.2634 28.0577 10 27.4218 10 26.7588C10 26.0957 10.2634 25.4599 10.7322 24.991C11.2011 24.5222 11.837 24.2588 12.5 24.2588H15V29.2588ZM13.125 19.2588C12.7542 19.2588 12.3916 19.1488 12.0833 18.9428C11.775 18.7368 11.5346 18.4439 11.3927 18.1013C11.2508 17.7587 11.2137 17.3817 11.286 17.018C11.3584 16.6543 11.537 16.3202 11.7992 16.058C12.0614 15.7957 12.3955 15.6172 12.7592 15.5448C13.1229 15.4725 13.4999 15.5096 13.8425 15.6515C14.1851 15.7934 14.478 16.0338 14.684 16.3421C14.89 16.6504 15 17.0129 15 17.3838C15 17.8811 14.8025 18.358 14.4508 18.7096C14.0992 19.0612 13.6223 19.2588 13.125 19.2588ZM22.5 29.2588H17.5V24.2588H22.5V29.2588ZM27.5 29.2588H25V24.2588H27.5C28.163 24.2588 28.7989 24.5222 29.2678 24.991C29.7366 25.4599 30 26.0957 30 26.7588C30 27.4218 29.7366 28.0577 29.2678 28.5266C28.7989 28.9954 28.163 29.2588 27.5 29.2588Z" fill="#451AE2"/>
<path d="M31.25 8.00879H21.25V3.00879C21.25 2.67727 21.1183 2.35933 20.8839 2.12491C20.6495 1.89049 20.3315 1.75879 20 1.75879C19.6685 1.75879 19.3505 1.89049 19.1161 2.12491C18.8817 2.35933 18.75 2.67727 18.75 3.00879V8.00879H8.75C7.42392 8.00879 6.15215 8.53557 5.21447 9.47325C4.27678 10.4109 3.75 11.6827 3.75 13.0088V30.5088C3.75 31.8349 4.27678 33.1066 5.21447 34.0443C6.15215 34.982 7.42392 35.5088 8.75 35.5088H31.25C32.5761 35.5088 33.8479 34.982 34.7855 34.0443C35.7232 33.1066 36.25 31.8349 36.25 30.5088V13.0088C36.25 11.6827 35.7232 10.4109 34.7855 9.47325C33.8479 8.53557 32.5761 8.00879 31.25 8.00879ZM26.875 15.5088C27.2458 15.5088 27.6084 15.6188 27.9167 15.8248C28.225 16.0308 28.4654 16.3236 28.6073 16.6663C28.7492 17.0089 28.7863 17.3859 28.714 17.7496C28.6416 18.1133 28.463 18.4474 28.2008 18.7096C27.9386 18.9718 27.6045 19.1504 27.2408 19.2228C26.8771 19.2951 26.5001 19.258 26.1575 19.1161C25.8149 18.9741 25.522 18.7338 25.316 18.4255C25.11 18.1171 25 17.7546 25 17.3838C25 16.8865 25.1975 16.4096 25.5492 16.058C25.9008 15.7063 26.3777 15.5088 26.875 15.5088ZM15 29.2588H12.5C11.837 29.2588 11.2011 28.9954 10.7322 28.5266C10.2634 28.0577 10 27.4218 10 26.7588C10 26.0957 10.2634 25.4599 10.7322 24.991C11.2011 24.5222 11.837 24.2588 12.5 24.2588H15V29.2588ZM13.125 19.2588C12.7542 19.2588 12.3916 19.1488 12.0833 18.9428C11.775 18.7368 11.5346 18.4439 11.3927 18.1013C11.2508 17.7587 11.2137 17.3817 11.286 17.018C11.3584 16.6543 11.537 16.3202 11.7992 16.058C12.0614 15.7957 12.3955 15.6172 12.7592 15.5448C13.1229 15.4725 13.4999 15.5096 13.8425 15.6515C14.1851 15.7934 14.478 16.0338 14.684 16.3421C14.89 16.6504 15 17.0129 15 17.3838C15 17.8811 14.8025 18.358 14.4508 18.7096C14.0992 19.0612 13.6223 19.2588 13.125 19.2588ZM22.5 29.2588H17.5V24.2588H22.5V29.2588ZM27.5 29.2588H25V24.2588H27.5C28.163 24.2588 28.7989 24.5222 29.2678 24.991C29.7366 25.4599 30 26.0957 30 26.7588C30 27.4218 29.7366 28.0577 29.2678 28.5266C28.7989 28.9954 28.163 29.2588 27.5 29.2588Z" fill="white" fill-opacity="0.2"/>
</svg>
