<svg width="40" height="41" viewBox="0 0 40 41" fill="none" xmlns="http://www.w3.org/2000/svg">
<path d="M21.25 11.7588V18.4869L26.9406 15.64C27.0875 15.5666 27.2475 15.5228 27.4113 15.5111C27.5752 15.4995 27.7397 15.5202 27.8955 15.5722C28.0514 15.6241 28.1954 15.7063 28.3195 15.8139C28.4436 15.9215 28.5453 16.0525 28.6188 16.1994C28.6922 16.3463 28.736 16.5063 28.7477 16.6701C28.7593 16.834 28.7386 16.9985 28.6866 17.1543C28.6347 17.3102 28.5526 17.4542 28.4449 17.5783C28.3373 17.7024 28.2063 17.8041 28.0594 17.8775L20.5594 21.6275C20.3687 21.7229 20.1569 21.768 19.9439 21.7584C19.7309 21.7489 19.524 21.685 19.3426 21.5729C19.1613 21.4608 19.0117 21.3041 18.908 21.1179C18.8042 20.9317 18.7499 20.722 18.75 20.5088V11.7588C18.75 11.4273 18.8817 11.1093 19.1161 10.8749C19.3505 10.6405 19.6685 10.5088 20 10.5088C20.3315 10.5088 20.6495 10.6405 20.8839 10.8749C21.1183 11.1093 21.25 11.4273 21.25 11.7588ZM20 34.2588C17.2805 34.2588 14.6221 33.4524 12.3609 31.9415C10.0997 30.4306 8.33737 28.2832 7.29666 25.7707C6.25596 23.2582 5.98366 20.4935 6.51421 17.8263C7.04476 15.1591 8.35432 12.7091 10.2773 10.7861C12.2003 8.86311 14.6503 7.55355 17.3175 7.023C19.9848 6.49245 22.7494 6.76475 25.2619 7.80545C27.7744 8.84616 29.9218 10.6085 31.4327 12.8697C32.9436 15.1309 33.75 17.7893 33.75 20.5088C33.75 20.8403 33.8817 21.1583 34.1161 21.3927C34.3505 21.6271 34.6685 21.7588 35 21.7588C35.3315 21.7588 35.6495 21.6271 35.8839 21.3927C36.1183 21.1583 36.25 20.8403 36.25 20.5088C36.25 17.2948 35.297 14.1531 33.5114 11.4808C31.7258 8.80848 29.1879 6.72568 26.2186 5.49575C23.2493 4.26583 19.982 3.94403 16.8298 4.57104C13.6776 5.19805 10.7821 6.74571 8.50952 9.01831C6.23692 11.2909 4.68926 14.1864 4.06225 17.3386C3.43524 20.4908 3.75704 23.7581 4.98696 26.7274C6.21689 29.6967 8.29969 32.2346 10.972 34.0202C13.6443 35.8058 16.7861 36.7588 20 36.7588C20.3315 36.7588 20.6495 36.6271 20.8839 36.3927C21.1183 36.1583 21.25 35.8403 21.25 35.5088C21.25 35.1773 21.1183 34.8593 20.8839 34.6249C20.6495 34.3905 20.3315 34.2588 20 34.2588ZM33.5344 31.5432C34.234 30.844 34.7105 29.9531 34.9037 28.9831C35.0969 28.0131 34.9981 27.0076 34.6197 26.0938C34.2414 25.18 33.6005 24.3989 32.7782 23.8494C31.9559 23.2998 30.9891 23.0065 30 23.0065C29.011 23.0065 28.0441 23.2998 27.2218 23.8494C26.3995 24.3989 25.7586 25.18 25.3803 26.0938C25.002 27.0076 24.9031 28.0131 25.0963 28.9831C25.2895 29.9531 25.766 30.844 26.4656 31.5432C25.1493 32.384 24.1955 33.6873 23.7922 35.1963C23.7446 35.3808 23.7397 35.5738 23.7781 35.7604C23.8165 35.9471 23.897 36.1225 24.0135 36.2733C24.1301 36.424 24.2795 36.5462 24.4505 36.6303C24.6215 36.7145 24.8094 36.7584 25 36.7588H35C35.1916 36.7588 35.3806 36.7147 35.5525 36.6301C35.7243 36.5454 35.8744 36.4223 35.9912 36.2704C36.1079 36.1185 36.1881 35.9418 36.2257 35.7539C36.2633 35.566 36.2572 35.372 36.2078 35.1869C35.8024 33.6814 34.8488 32.3818 33.5344 31.5432Z" fill="#451AE2"/>
<path d="M21.25 11.7588V18.4869L26.9406 15.64C27.0875 15.5666 27.2475 15.5228 27.4113 15.5111C27.5752 15.4995 27.7397 15.5202 27.8955 15.5722C28.0514 15.6241 28.1954 15.7063 28.3195 15.8139C28.4436 15.9215 28.5453 16.0525 28.6188 16.1994C28.6922 16.3463 28.736 16.5063 28.7477 16.6701C28.7593 16.834 28.7386 16.9985 28.6866 17.1543C28.6347 17.3102 28.5526 17.4542 28.4449 17.5783C28.3373 17.7024 28.2063 17.8041 28.0594 17.8775L20.5594 21.6275C20.3687 21.7229 20.1569 21.768 19.9439 21.7584C19.7309 21.7489 19.524 21.685 19.3426 21.5729C19.1613 21.4608 19.0117 21.3041 18.908 21.1179C18.8042 20.9317 18.7499 20.722 18.75 20.5088V11.7588C18.75 11.4273 18.8817 11.1093 19.1161 10.8749C19.3505 10.6405 19.6685 10.5088 20 10.5088C20.3315 10.5088 20.6495 10.6405 20.8839 10.8749C21.1183 11.1093 21.25 11.4273 21.25 11.7588ZM20 34.2588C17.2805 34.2588 14.6221 33.4524 12.3609 31.9415C10.0997 30.4306 8.33737 28.2832 7.29666 25.7707C6.25596 23.2582 5.98366 20.4935 6.51421 17.8263C7.04476 15.1591 8.35432 12.7091 10.2773 10.7861C12.2003 8.86311 14.6503 7.55355 17.3175 7.023C19.9848 6.49245 22.7494 6.76475 25.2619 7.80545C27.7744 8.84616 29.9218 10.6085 31.4327 12.8697C32.9436 15.1309 33.75 17.7893 33.75 20.5088C33.75 20.8403 33.8817 21.1583 34.1161 21.3927C34.3505 21.6271 34.6685 21.7588 35 21.7588C35.3315 21.7588 35.6495 21.6271 35.8839 21.3927C36.1183 21.1583 36.25 20.8403 36.25 20.5088C36.25 17.2948 35.297 14.1531 33.5114 11.4808C31.7258 8.80848 29.1879 6.72568 26.2186 5.49575C23.2493 4.26583 19.982 3.94403 16.8298 4.57104C13.6776 5.19805 10.7821 6.74571 8.50952 9.01831C6.23692 11.2909 4.68926 14.1864 4.06225 17.3386C3.43524 20.4908 3.75704 23.7581 4.98696 26.7274C6.21689 29.6967 8.29969 32.2346 10.972 34.0202C13.6443 35.8058 16.7861 36.7588 20 36.7588C20.3315 36.7588 20.6495 36.6271 20.8839 36.3927C21.1183 36.1583 21.25 35.8403 21.25 35.5088C21.25 35.1773 21.1183 34.8593 20.8839 34.6249C20.6495 34.3905 20.3315 34.2588 20 34.2588ZM33.5344 31.5432C34.234 30.844 34.7105 29.9531 34.9037 28.9831C35.0969 28.0131 34.9981 27.0076 34.6197 26.0938C34.2414 25.18 33.6005 24.3989 32.7782 23.8494C31.9559 23.2998 30.9891 23.0065 30 23.0065C29.011 23.0065 28.0441 23.2998 27.2218 23.8494C26.3995 24.3989 25.7586 25.18 25.3803 26.0938C25.002 27.0076 24.9031 28.0131 25.0963 28.9831C25.2895 29.9531 25.766 30.844 26.4656 31.5432C25.1493 32.384 24.1955 33.6873 23.7922 35.1963C23.7446 35.3808 23.7397 35.5738 23.7781 35.7604C23.8165 35.9471 23.897 36.1225 24.0135 36.2733C24.1301 36.424 24.2795 36.5462 24.4505 36.6303C24.6215 36.7145 24.8094 36.7584 25 36.7588H35C35.1916 36.7588 35.3806 36.7147 35.5525 36.6301C35.7243 36.5454 35.8744 36.4223 35.9912 36.2704C36.1079 36.1185 36.1881 35.9418 36.2257 35.7539C36.2633 35.566 36.2572 35.372 36.2078 35.1869C35.8024 33.6814 34.8488 32.3818 33.5344 31.5432Z" fill="white" fill-opacity="0.2"/>
</svg>
