<svg width="40" height="41" viewBox="0 0 40 41" fill="none" xmlns="http://www.w3.org/2000/svg">
<path d="M26.25 18.0089C26.25 19.7395 25.7369 21.4312 24.7754 22.8701C23.8139 24.3091 22.4474 25.4306 20.8485 26.0928C19.2497 26.7551 17.4903 26.9284 15.793 26.5908C14.0957 26.2531 12.5366 25.4198 11.3129 24.1961C10.0892 22.9724 9.2558 21.4133 8.91818 19.7159C8.58056 18.0186 8.75384 16.2593 9.4161 14.6604C10.0784 13.0616 11.1999 11.695 12.6388 10.7335C14.0777 9.77208 15.7695 9.2589 17.5 9.2589C19.8207 9.2589 22.0463 10.1808 23.6872 11.8217C25.3282 13.4627 26.25 15.6883 26.25 18.0089ZM35.8844 36.3933C35.7683 36.5095 35.6305 36.6017 35.4787 36.6646C35.327 36.7275 35.1643 36.7599 35 36.7599C34.8358 36.7599 34.6731 36.7275 34.5214 36.6646C34.3696 36.6017 34.2318 36.5095 34.1157 36.3933L26.2938 28.5698C23.5737 30.8328 20.0858 31.96 16.5558 31.7171C13.0257 31.4741 9.72523 29.8796 7.34081 27.2652C4.95639 24.6509 3.67161 21.2179 3.75371 17.6805C3.8358 14.1431 5.27845 10.7734 7.78158 8.2725C10.2847 5.77158 13.6556 4.33191 17.1931 4.25294C20.7307 4.17397 24.1624 5.46179 26.7747 7.84852C29.3869 10.2352 30.9785 13.5371 31.2184 17.0674C31.4582 20.5977 30.3279 24.0845 28.0625 26.8026L35.8844 34.6245C36.0006 34.7406 36.0928 34.8785 36.1557 35.0302C36.2187 35.182 36.251 35.3446 36.251 35.5089C36.251 35.6732 36.2187 35.8358 36.1557 35.9876C36.0928 36.1393 36.0006 36.2772 35.8844 36.3933ZM17.5 29.2589C19.7251 29.2589 21.9002 28.5991 23.7502 27.3629C25.6003 26.1268 27.0422 24.3698 27.8937 22.3141C28.7452 20.2584 28.968 17.9964 28.5339 15.8141C28.0998 13.6318 27.0283 11.6273 25.455 10.0539C23.8817 8.48061 21.8771 7.40915 19.6948 6.97506C17.5125 6.54098 15.2505 6.76377 13.1949 7.61525C11.1392 8.46674 9.38218 9.90868 8.14602 11.7587C6.90985 13.6088 6.25005 15.7839 6.25005 18.0089C6.25336 20.9916 7.43968 23.8511 9.54875 25.9602C11.6578 28.0693 14.5174 29.2556 17.5 29.2589Z" fill="#451AE2"/>
<path d="M26.25 18.0089C26.25 19.7395 25.7369 21.4312 24.7754 22.8701C23.8139 24.3091 22.4474 25.4306 20.8485 26.0928C19.2497 26.7551 17.4903 26.9284 15.793 26.5908C14.0957 26.2531 12.5366 25.4198 11.3129 24.1961C10.0892 22.9724 9.2558 21.4133 8.91818 19.7159C8.58056 18.0186 8.75384 16.2593 9.4161 14.6604C10.0784 13.0616 11.1999 11.695 12.6388 10.7335C14.0777 9.77208 15.7695 9.2589 17.5 9.2589C19.8207 9.2589 22.0463 10.1808 23.6872 11.8217C25.3282 13.4627 26.25 15.6883 26.25 18.0089ZM35.8844 36.3933C35.7683 36.5095 35.6305 36.6017 35.4787 36.6646C35.327 36.7275 35.1643 36.7599 35 36.7599C34.8358 36.7599 34.6731 36.7275 34.5214 36.6646C34.3696 36.6017 34.2318 36.5095 34.1157 36.3933L26.2938 28.5698C23.5737 30.8328 20.0858 31.96 16.5558 31.7171C13.0257 31.4741 9.72523 29.8796 7.34081 27.2652C4.95639 24.6509 3.67161 21.2179 3.75371 17.6805C3.8358 14.1431 5.27845 10.7734 7.78158 8.2725C10.2847 5.77158 13.6556 4.33191 17.1931 4.25294C20.7307 4.17397 24.1624 5.46179 26.7747 7.84852C29.3869 10.2352 30.9785 13.5371 31.2184 17.0674C31.4582 20.5977 30.3279 24.0845 28.0625 26.8026L35.8844 34.6245C36.0006 34.7406 36.0928 34.8785 36.1557 35.0302C36.2187 35.182 36.251 35.3446 36.251 35.5089C36.251 35.6732 36.2187 35.8358 36.1557 35.9876C36.0928 36.1393 36.0006 36.2772 35.8844 36.3933ZM17.5 29.2589C19.7251 29.2589 21.9002 28.5991 23.7502 27.3629C25.6003 26.1268 27.0422 24.3698 27.8937 22.3141C28.7452 20.2584 28.968 17.9964 28.5339 15.8141C28.0998 13.6318 27.0283 11.6273 25.455 10.0539C23.8817 8.48061 21.8771 7.40915 19.6948 6.97506C17.5125 6.54098 15.2505 6.76377 13.1949 7.61525C11.1392 8.46674 9.38218 9.90868 8.14602 11.7587C6.90985 13.6088 6.25005 15.7839 6.25005 18.0089C6.25336 20.9916 7.43968 23.8511 9.54875 25.9602C11.6578 28.0693 14.5174 29.2556 17.5 29.2589Z" fill="white" fill-opacity="0.2"/>
</svg>
