<svg width="40" height="41" viewBox="0 0 40 41" fill="none" xmlns="http://www.w3.org/2000/svg">
<path d="M32.5 6.75879H7.5C6.83696 6.75879 6.20107 7.02218 5.73223 7.49102C5.26339 7.95986 5 8.59575 5 9.25879V18.0088C5 26.2463 8.9875 31.2385 12.3328 33.976C15.9359 36.9228 19.5203 37.9244 19.6766 37.965C19.8914 38.0235 20.118 38.0235 20.3328 37.965C20.4891 37.9244 24.0688 36.9228 27.6766 33.976C31.0125 31.2385 35 26.2463 35 18.0088V9.25879C35 8.59575 34.7366 7.95986 34.2678 7.49102C33.7989 7.02218 33.163 6.75879 32.5 6.75879ZM20 35.4494C17.7894 34.6775 15.7312 33.5241 13.9188 32.0416C10.2859 29.0697 8.18281 25.1963 7.64063 20.5088H20V9.25879H32.5V18.0088C32.5005 18.8441 32.4535 19.6788 32.3594 20.5088H20V35.4494Z" fill="#451AE2"/>
<path d="M32.5 6.75879H7.5C6.83696 6.75879 6.20107 7.02218 5.73223 7.49102C5.26339 7.95986 5 8.59575 5 9.25879V18.0088C5 26.2463 8.9875 31.2385 12.3328 33.976C15.9359 36.9228 19.5203 37.9244 19.6766 37.965C19.8914 38.0235 20.118 38.0235 20.3328 37.965C20.4891 37.9244 24.0688 36.9228 27.6766 33.976C31.0125 31.2385 35 26.2463 35 18.0088V9.25879C35 8.59575 34.7366 7.95986 34.2678 7.49102C33.7989 7.02218 33.163 6.75879 32.5 6.75879ZM20 35.4494C17.7894 34.6775 15.7312 33.5241 13.9188 32.0416C10.2859 29.0697 8.18281 25.1963 7.64063 20.5088H20V9.25879H32.5V18.0088C32.5005 18.8441 32.4535 19.6788 32.3594 20.5088H20V35.4494Z" fill="white" fill-opacity="0.2"/>
</svg>
