<svg width="40" height="41" viewBox="0 0 40 41" fill="none" xmlns="http://www.w3.org/2000/svg">
<path d="M33.4142 20.1118L15.9142 38.8618C15.7288 39.0597 15.484 39.1919 15.2168 39.2385C14.9496 39.2851 14.6745 39.2435 14.433 39.1201C14.1915 38.9966 13.9967 38.7979 13.8781 38.554C13.7594 38.3101 13.7233 38.0343 13.7751 37.7681L16.0658 26.3102L7.06109 22.929C6.8677 22.8567 6.69524 22.7375 6.55912 22.5823C6.423 22.427 6.32746 22.2405 6.28103 22.0393C6.23461 21.8381 6.23874 21.6286 6.29306 21.4293C6.34738 21.2301 6.4502 21.0475 6.59234 20.8977L24.0923 2.14774C24.2778 1.94983 24.5226 1.8176 24.7898 1.77102C25.057 1.72443 25.3321 1.76602 25.5735 1.88949C25.815 2.01297 26.0098 2.21164 26.1285 2.45553C26.2471 2.69941 26.2833 2.97528 26.2314 3.24149L23.9345 14.7118L32.9392 18.0884C33.1312 18.1612 33.3022 18.2802 33.4373 18.4348C33.5724 18.5895 33.6673 18.775 33.7136 18.975C33.7599 19.175 33.7563 19.3834 33.703 19.5816C33.6497 19.7799 33.5483 19.962 33.408 20.1118H33.4142Z" fill="#451AE2"/>
<path d="M33.4142 20.1118L15.9142 38.8618C15.7288 39.0597 15.484 39.1919 15.2168 39.2385C14.9496 39.2851 14.6745 39.2435 14.433 39.1201C14.1915 38.9966 13.9967 38.7979 13.8781 38.554C13.7594 38.3101 13.7233 38.0343 13.7751 37.7681L16.0658 26.3102L7.06109 22.929C6.8677 22.8567 6.69524 22.7375 6.55912 22.5823C6.423 22.427 6.32746 22.2405 6.28103 22.0393C6.23461 21.8381 6.23874 21.6286 6.29306 21.4293C6.34738 21.2301 6.4502 21.0475 6.59234 20.8977L24.0923 2.14774C24.2778 1.94983 24.5226 1.8176 24.7898 1.77102C25.057 1.72443 25.3321 1.76602 25.5735 1.88949C25.815 2.01297 26.0098 2.21164 26.1285 2.45553C26.2471 2.69941 26.2833 2.97528 26.2314 3.24149L23.9345 14.7118L32.9392 18.0884C33.1312 18.1612 33.3022 18.2802 33.4373 18.4348C33.5724 18.5895 33.6673 18.775 33.7136 18.975C33.7599 19.175 33.7563 19.3834 33.703 19.5816C33.6497 19.7799 33.5483 19.962 33.408 20.1118H33.4142Z" fill="white" fill-opacity="0.2"/>
</svg>
