<svg width="40" height="41" viewBox="0 0 40 41" fill="none" xmlns="http://www.w3.org/2000/svg">
<path d="M37.411 21.29L32.411 8.79004C32.3174 8.55887 32.1569 8.36096 31.9501 8.22174C31.7432 8.08252 31.4994 8.00836 31.25 8.00879C31.159 8.01018 31.0684 8.02117 30.9797 8.0416L21.25 10.1963V6.75879C21.25 6.42727 21.1183 6.10933 20.8839 5.87491C20.6495 5.64049 20.3315 5.50879 20 5.50879C19.6685 5.50879 19.3506 5.64049 19.1161 5.87491C18.8817 6.10933 18.75 6.42727 18.75 6.75879V10.7557L8.47971 13.0416C8.28171 13.0848 8.09718 13.1755 7.94202 13.3059C7.78687 13.4363 7.66575 13.6024 7.58909 13.79L2.58909 26.29C2.52927 26.439 2.49902 26.5982 2.50002 26.7588C2.50002 30.401 6.3344 31.7588 8.75002 31.7588C11.1656 31.7588 15 30.401 15 26.7588C15.001 26.5982 14.9708 26.439 14.911 26.29L10.4563 15.1604L18.75 13.3213V33.0088H16.25C15.9185 33.0088 15.6006 33.1405 15.3661 33.3749C15.1317 33.6093 15 33.9273 15 34.2588C15 34.5903 15.1317 34.9083 15.3661 35.1427C15.6006 35.3771 15.9185 35.5088 16.25 35.5088H23.75C24.0815 35.5088 24.3995 35.3771 24.6339 35.1427C24.8683 34.9083 25 34.5903 25 34.2588C25 33.9273 24.8683 33.6093 24.6339 33.3749C24.3995 33.1405 24.0815 33.0088 23.75 33.0088H21.25V12.7619L29.2188 10.9932L25.0891 21.29C25.0293 21.439 24.999 21.5982 25 21.7588C25 25.401 28.8344 26.7588 31.25 26.7588C33.6656 26.7588 37.5 25.401 37.5 21.7588C37.501 21.5982 37.4708 21.439 37.411 21.29ZM12.411 26.7588H5.0969L8.75002 17.6244L12.411 26.7588ZM27.6047 21.7588L31.25 12.6244L34.9031 21.7588H27.6047Z" fill="#451AE2"/>
<path d="M37.411 21.29L32.411 8.79004C32.3174 8.55887 32.1569 8.36096 31.9501 8.22174C31.7432 8.08252 31.4994 8.00836 31.25 8.00879C31.159 8.01018 31.0684 8.02117 30.9797 8.0416L21.25 10.1963V6.75879C21.25 6.42727 21.1183 6.10933 20.8839 5.87491C20.6495 5.64049 20.3315 5.50879 20 5.50879C19.6685 5.50879 19.3506 5.64049 19.1161 5.87491C18.8817 6.10933 18.75 6.42727 18.75 6.75879V10.7557L8.47971 13.0416C8.28171 13.0848 8.09718 13.1755 7.94202 13.3059C7.78687 13.4363 7.66575 13.6024 7.58909 13.79L2.58909 26.29C2.52927 26.439 2.49902 26.5982 2.50002 26.7588C2.50002 30.401 6.3344 31.7588 8.75002 31.7588C11.1656 31.7588 15 30.401 15 26.7588C15.001 26.5982 14.9708 26.439 14.911 26.29L10.4563 15.1604L18.75 13.3213V33.0088H16.25C15.9185 33.0088 15.6006 33.1405 15.3661 33.3749C15.1317 33.6093 15 33.9273 15 34.2588C15 34.5903 15.1317 34.9083 15.3661 35.1427C15.6006 35.3771 15.9185 35.5088 16.25 35.5088H23.75C24.0815 35.5088 24.3995 35.3771 24.6339 35.1427C24.8683 34.9083 25 34.5903 25 34.2588C25 33.9273 24.8683 33.6093 24.6339 33.3749C24.3995 33.1405 24.0815 33.0088 23.75 33.0088H21.25V12.7619L29.2188 10.9932L25.0891 21.29C25.0293 21.439 24.999 21.5982 25 21.7588C25 25.401 28.8344 26.7588 31.25 26.7588C33.6656 26.7588 37.5 25.401 37.5 21.7588C37.501 21.5982 37.4708 21.439 37.411 21.29ZM12.411 26.7588H5.0969L8.75002 17.6244L12.411 26.7588ZM27.6047 21.7588L31.25 12.6244L34.9031 21.7588H27.6047Z" fill="white" fill-opacity="0.2"/>
</svg>
