<svg width="34" height="30" viewBox="0 0 34 30" fill="none" xmlns="http://www.w3.org/2000/svg">
    <path
        d="M33.2016 9.6666L30.9609 1.82129C30.8102 1.30084 30.4952 0.843107 30.0629 0.516435C29.6307 0.189764 29.1043 0.0116843 28.5625 0.00878906H5.4375C4.89568 0.0116843 4.36933 0.189764 3.93706 0.516435C3.50478 0.843107 3.18977 1.30084 3.03906 1.82129L0.798437 9.6666C0.766406 9.77785 0.750102 9.89303 0.75 10.0088V12.5088C0.75 13.4791 0.975907 14.436 1.40983 15.3039C1.84375 16.1717 2.47377 16.9266 3.25 17.5088V28.7588C3.25 29.0903 3.3817 29.4083 3.61612 29.6427C3.85054 29.8771 4.16848 30.0088 4.5 30.0088H29.5C29.8315 30.0088 30.1495 29.8771 30.3839 29.6427C30.6183 29.4083 30.75 29.0903 30.75 28.7588V17.5088C31.5262 16.9266 32.1562 16.1717 32.5902 15.3039C33.0241 14.436 33.25 13.4791 33.25 12.5088V10.0088C33.2499 9.89303 33.2336 9.77785 33.2016 9.6666ZM10.75 12.5088C10.7498 13.1536 10.5833 13.7875 10.2665 14.3493C9.94983 14.911 9.49362 15.3815 8.94197 15.7155C8.39032 16.0494 7.76188 16.2355 7.11734 16.2556C6.47281 16.2758 5.83396 16.1294 5.2625 15.8307C5.17555 15.763 5.0799 15.7073 4.97813 15.665C4.44856 15.326 4.01274 14.8593 3.71076 14.3077C3.40878 13.7562 3.25033 13.1376 3.25 12.5088V11.2588H10.75V12.5088ZM20.75 12.5088C20.75 13.5034 20.3549 14.4572 19.6517 15.1604C18.9484 15.8637 17.9946 16.2588 17 16.2588C16.0054 16.2588 15.0516 15.8637 14.3483 15.1604C13.6451 14.4572 13.25 13.5034 13.25 12.5088V11.2588H20.75V12.5088ZM30.75 12.5088C30.7495 13.1377 30.5908 13.7564 30.2886 14.308C29.9863 14.8595 29.5502 15.3262 29.0203 15.665C28.9199 15.7074 28.8253 15.7625 28.7391 15.8291C28.1677 16.1282 27.5288 16.2749 26.8842 16.2549C26.2395 16.235 25.6109 16.0492 25.0591 15.7154C24.5073 15.3816 24.0508 14.9111 23.7339 14.3494C23.417 13.7877 23.2504 13.1537 23.25 12.5088V11.2588H30.75V12.5088Z"
        fill="#451AE2" />
    <path
        d="M33.2016 9.6666L30.9609 1.82129C30.8102 1.30084 30.4952 0.843107 30.0629 0.516435C29.6307 0.189764 29.1043 0.0116843 28.5625 0.00878906H5.4375C4.89568 0.0116843 4.36933 0.189764 3.93706 0.516435C3.50478 0.843107 3.18977 1.30084 3.03906 1.82129L0.798437 9.6666C0.766406 9.77785 0.750102 9.89303 0.75 10.0088V12.5088C0.75 13.4791 0.975907 14.436 1.40983 15.3039C1.84375 16.1717 2.47377 16.9266 3.25 17.5088V28.7588C3.25 29.0903 3.3817 29.4083 3.61612 29.6427C3.85054 29.8771 4.16848 30.0088 4.5 30.0088H29.5C29.8315 30.0088 30.1495 29.8771 30.3839 29.6427C30.6183 29.4083 30.75 29.0903 30.75 28.7588V17.5088C31.5262 16.9266 32.1562 16.1717 32.5902 15.3039C33.0241 14.436 33.25 13.4791 33.25 12.5088V10.0088C33.2499 9.89303 33.2336 9.77785 33.2016 9.6666ZM10.75 12.5088C10.7498 13.1536 10.5833 13.7875 10.2665 14.3493C9.94983 14.911 9.49362 15.3815 8.94197 15.7155C8.39032 16.0494 7.76188 16.2355 7.11734 16.2556C6.47281 16.2758 5.83396 16.1294 5.2625 15.8307C5.17555 15.763 5.0799 15.7073 4.97813 15.665C4.44856 15.326 4.01274 14.8593 3.71076 14.3077C3.40878 13.7562 3.25033 13.1376 3.25 12.5088V11.2588H10.75V12.5088ZM20.75 12.5088C20.75 13.5034 20.3549 14.4572 19.6517 15.1604C18.9484 15.8637 17.9946 16.2588 17 16.2588C16.0054 16.2588 15.0516 15.8637 14.3483 15.1604C13.6451 14.4572 13.25 13.5034 13.25 12.5088V11.2588H20.75V12.5088ZM30.75 12.5088C30.7495 13.1377 30.5908 13.7564 30.2886 14.308C29.9863 14.8595 29.5502 15.3262 29.0203 15.665C28.9199 15.7074 28.8253 15.7625 28.7391 15.8291C28.1677 16.1282 27.5288 16.2749 26.8842 16.2549C26.2395 16.235 25.6109 16.0492 25.0591 15.7154C24.5073 15.3816 24.0508 14.9111 23.7339 14.3494C23.417 13.7877 23.2504 13.1537 23.25 12.5088V11.2588H30.75V12.5088Z"
        fill="white" fill-opacity="0.2" />
</svg>