<svg width="29" height="34" viewBox="0 0 29 34" fill="none" xmlns="http://www.w3.org/2000/svg">
<path d="M27.7176 9.87441L18.9676 1.12441C18.8515 1.00837 18.7136 0.916354 18.5618 0.853619C18.4101 0.790884 18.2475 0.75866 18.0833 0.758789H3.08325C2.42021 0.758789 1.78433 1.02218 1.31548 1.49102C0.846644 1.95986 0.583252 2.59575 0.583252 3.25879V30.7588C0.583252 31.4218 0.846644 32.0577 1.31548 32.5266C1.78433 32.9954 2.42021 33.2588 3.08325 33.2588H25.5833C26.2463 33.2588 26.8822 32.9954 27.351 32.5266C27.8199 32.0577 28.0833 31.4218 28.0833 30.7588V10.7588C28.0834 10.5946 28.0512 10.432 27.9884 10.2802C27.9257 10.1285 27.8337 9.99059 27.7176 9.87441ZM18.0833 22.0088H10.5833C10.2517 22.0088 9.93379 21.8771 9.69937 21.6427C9.46495 21.4083 9.33325 21.0903 9.33325 20.7588C9.33325 20.4273 9.46495 20.1093 9.69937 19.8749C9.93379 19.6405 10.2517 19.5088 10.5833 19.5088H18.0833C18.4148 19.5088 18.7327 19.6405 18.9671 19.8749C19.2016 20.1093 19.3333 20.4273 19.3333 20.7588C19.3333 21.0903 19.2016 21.4083 18.9671 21.6427C18.7327 21.8771 18.4148 22.0088 18.0833 22.0088ZM18.0833 10.7588V3.77598L25.0661 10.7588H18.0833Z" fill="#451AE2"/>
<path d="M27.7176 9.87441L18.9676 1.12441C18.8515 1.00837 18.7136 0.916354 18.5618 0.853619C18.4101 0.790884 18.2475 0.75866 18.0833 0.758789H3.08325C2.42021 0.758789 1.78433 1.02218 1.31548 1.49102C0.846644 1.95986 0.583252 2.59575 0.583252 3.25879V30.7588C0.583252 31.4218 0.846644 32.0577 1.31548 32.5266C1.78433 32.9954 2.42021 33.2588 3.08325 33.2588H25.5833C26.2463 33.2588 26.8822 32.9954 27.351 32.5266C27.8199 32.0577 28.0833 31.4218 28.0833 30.7588V10.7588C28.0834 10.5946 28.0512 10.432 27.9884 10.2802C27.9257 10.1285 27.8337 9.99059 27.7176 9.87441ZM18.0833 22.0088H10.5833C10.2517 22.0088 9.93379 21.8771 9.69937 21.6427C9.46495 21.4083 9.33325 21.0903 9.33325 20.7588C9.33325 20.4273 9.46495 20.1093 9.69937 19.8749C9.93379 19.6405 10.2517 19.5088 10.5833 19.5088H18.0833C18.4148 19.5088 18.7327 19.6405 18.9671 19.8749C19.2016 20.1093 19.3333 20.4273 19.3333 20.7588C19.3333 21.0903 19.2016 21.4083 18.9671 21.6427C18.7327 21.8771 18.4148 22.0088 18.0833 22.0088ZM18.0833 10.7588V3.77598L25.0661 10.7588H18.0833Z" fill="white" fill-opacity="0.2"/>
</svg>
