<svg width="41" height="40" viewBox="0 0 41 40" fill="none" xmlns="http://www.w3.org/2000/svg">
<path d="M29.4167 11.2588H6.91675C5.53604 11.2588 4.41675 12.3781 4.41675 13.7588V31.2588C4.41675 32.6395 5.53604 33.7588 6.91675 33.7588H29.4167C30.7975 33.7588 31.9167 32.6395 31.9167 31.2588V13.7588C31.9167 12.3781 30.7975 11.2588 29.4167 11.2588Z" fill="#451AE2"/>
<path d="M29.4167 11.2588H6.91675C5.53604 11.2588 4.41675 12.3781 4.41675 13.7588V31.2588C4.41675 32.6395 5.53604 33.7588 6.91675 33.7588H29.4167C30.7975 33.7588 31.9167 32.6395 31.9167 31.2588V13.7588C31.9167 12.3781 30.7975 11.2588 29.4167 11.2588Z" fill="white" fill-opacity="0.2"/>
<path d="M34.4167 6.25879H10.6667C10.3352 6.25879 10.0173 6.39049 9.78286 6.62491C9.54844 6.85933 9.41675 7.17727 9.41675 7.50879C9.41675 7.84031 9.54844 8.15825 9.78286 8.39267C10.0173 8.62709 10.3352 8.75879 10.6667 8.75879H34.4167V27.5088C34.4167 27.8403 34.5484 28.1583 34.7829 28.3927C35.0173 28.6271 35.3352 28.7588 35.6667 28.7588C35.9983 28.7588 36.3162 28.6271 36.5506 28.3927C36.7851 28.1583 36.9167 27.8403 36.9167 27.5088V8.75879C36.9167 8.09575 36.6534 7.45986 36.1845 6.99102C35.7157 6.52218 35.0798 6.25879 34.4167 6.25879Z" fill="#451AE2"/>
</svg>
