<svg width="41" height="40" viewBox="0 0 41 40" fill="none" xmlns="http://www.w3.org/2000/svg">
<path d="M35.8505 11.4731L28.8692 4.49025C28.637 4.25804 28.3614 4.07384 28.0581 3.94817C27.7547 3.8225 27.4296 3.75781 27.1012 3.75781C26.7729 3.75781 26.4477 3.8225 26.1444 3.94817C25.841 4.07384 25.5654 4.25804 25.3333 4.49025L6.06608 23.759C5.83292 23.9903 5.64807 24.2656 5.52226 24.569C5.39646 24.8724 5.33222 25.1978 5.33326 25.5262V32.509C5.33326 33.172 5.59666 33.8079 6.0655 34.2768C6.53434 34.7456 7.17022 35.009 7.83326 35.009H14.8161C15.1445 35.01 15.4699 34.9458 15.7732 34.82C16.0766 34.6942 16.352 34.5093 16.5833 34.2762L35.8505 15.009C36.0827 14.7768 36.2669 14.5012 36.3925 14.1979C36.5182 13.8945 36.5829 13.5694 36.5829 13.241C36.5829 12.9127 36.5182 12.5875 36.3925 12.2842C36.2669 11.9808 36.0827 11.7052 35.8505 11.4731ZM8.35045 25.009L22.4676 10.8918L25.0739 13.4996L10.9583 27.6152L8.35045 25.009ZM7.83326 28.0262L12.3161 32.509H7.83326V28.0262ZM15.3333 31.9918L12.7255 29.384L26.8426 15.2668L29.4489 17.8746L15.3333 31.9918Z" fill="#451AE2"/>
<path d="M35.8505 11.4731L28.8692 4.49025C28.637 4.25804 28.3614 4.07384 28.0581 3.94817C27.7547 3.8225 27.4296 3.75781 27.1012 3.75781C26.7729 3.75781 26.4477 3.8225 26.1444 3.94817C25.841 4.07384 25.5654 4.25804 25.3333 4.49025L6.06608 23.759C5.83292 23.9903 5.64807 24.2656 5.52226 24.569C5.39646 24.8724 5.33222 25.1978 5.33326 25.5262V32.509C5.33326 33.172 5.59666 33.8079 6.0655 34.2768C6.53434 34.7456 7.17022 35.009 7.83326 35.009H14.8161C15.1445 35.01 15.4699 34.9458 15.7732 34.82C16.0766 34.6942 16.352 34.5093 16.5833 34.2762L35.8505 15.009C36.0827 14.7768 36.2669 14.5012 36.3925 14.1979C36.5182 13.8945 36.5829 13.5694 36.5829 13.241C36.5829 12.9127 36.5182 12.5875 36.3925 12.2842C36.2669 11.9808 36.0827 11.7052 35.8505 11.4731ZM8.35045 25.009L22.4676 10.8918L25.0739 13.4996L10.9583 27.6152L8.35045 25.009ZM7.83326 28.0262L12.3161 32.509H7.83326V28.0262ZM15.3333 31.9918L12.7255 29.384L26.8426 15.2668L29.4489 17.8746L15.3333 31.9918Z" fill="white" fill-opacity="0.2"/>
</svg>
