<svg width="28" height="34" viewBox="0 0 28 34" fill="none" xmlns="http://www.w3.org/2000/svg">
<path d="M27.3844 9.87441L18.6344 1.12441C18.5182 1.00837 18.3803 0.916354 18.2286 0.853619C18.0768 0.790884 17.9142 0.75866 17.75 0.758789H2.75C2.08696 0.758789 1.45107 1.02218 0.982233 1.49102C0.513392 1.95986 0.25 2.59575 0.25 3.25879V30.7588C0.25 31.4218 0.513392 32.0577 0.982233 32.5266C1.45107 32.9954 2.08696 33.2588 2.75 33.2588H25.25C25.913 33.2588 26.5489 32.9954 27.0178 32.5266C27.4866 32.0577 27.75 31.4218 27.75 30.7588V10.7588C27.7501 10.5946 27.7179 10.432 27.6552 10.2802C27.5924 10.1285 27.5004 9.99059 27.3844 9.87441ZM19 24.5088H9C8.66848 24.5088 8.35054 24.3771 8.11612 24.1427C7.8817 23.9083 7.75 23.5903 7.75 23.2588C7.75 22.9273 7.8817 22.6093 8.11612 22.3749C8.35054 22.1405 8.66848 22.0088 9 22.0088H19C19.3315 22.0088 19.6495 22.1405 19.8839 22.3749C20.1183 22.6093 20.25 22.9273 20.25 23.2588C20.25 23.5903 20.1183 23.9083 19.8839 24.1427C19.6495 24.3771 19.3315 24.5088 19 24.5088ZM19 19.5088H9C8.66848 19.5088 8.35054 19.3771 8.11612 19.1427C7.8817 18.9083 7.75 18.5903 7.75 18.2588C7.75 17.9273 7.8817 17.6093 8.11612 17.3749C8.35054 17.1405 8.66848 17.0088 9 17.0088H19C19.3315 17.0088 19.6495 17.1405 19.8839 17.3749C20.1183 17.6093 20.25 17.9273 20.25 18.2588C20.25 18.5903 20.1183 18.9083 19.8839 19.1427C19.6495 19.3771 19.3315 19.5088 19 19.5088ZM17.75 10.7588V3.88379L24.625 10.7588H17.75Z" fill="#451AE2"/>
<path d="M27.3844 9.87441L18.6344 1.12441C18.5182 1.00837 18.3803 0.916354 18.2286 0.853619C18.0768 0.790884 17.9142 0.75866 17.75 0.758789H2.75C2.08696 0.758789 1.45107 1.02218 0.982233 1.49102C0.513392 1.95986 0.25 2.59575 0.25 3.25879V30.7588C0.25 31.4218 0.513392 32.0577 0.982233 32.5266C1.45107 32.9954 2.08696 33.2588 2.75 33.2588H25.25C25.913 33.2588 26.5489 32.9954 27.0178 32.5266C27.4866 32.0577 27.75 31.4218 27.75 30.7588V10.7588C27.7501 10.5946 27.7179 10.432 27.6552 10.2802C27.5924 10.1285 27.5004 9.99059 27.3844 9.87441ZM19 24.5088H9C8.66848 24.5088 8.35054 24.3771 8.11612 24.1427C7.8817 23.9083 7.75 23.5903 7.75 23.2588C7.75 22.9273 7.8817 22.6093 8.11612 22.3749C8.35054 22.1405 8.66848 22.0088 9 22.0088H19C19.3315 22.0088 19.6495 22.1405 19.8839 22.3749C20.1183 22.6093 20.25 22.9273 20.25 23.2588C20.25 23.5903 20.1183 23.9083 19.8839 24.1427C19.6495 24.3771 19.3315 24.5088 19 24.5088ZM19 19.5088H9C8.66848 19.5088 8.35054 19.3771 8.11612 19.1427C7.8817 18.9083 7.75 18.5903 7.75 18.2588C7.75 17.9273 7.8817 17.6093 8.11612 17.3749C8.35054 17.1405 8.66848 17.0088 9 17.0088H19C19.3315 17.0088 19.6495 17.1405 19.8839 17.3749C20.1183 17.6093 20.25 17.9273 20.25 18.2588C20.25 18.5903 20.1183 18.9083 19.8839 19.1427C19.6495 19.3771 19.3315 19.5088 19 19.5088ZM17.75 10.7588V3.88379L24.625 10.7588H17.75Z" fill="white" fill-opacity="0.2"/>
</svg>
