<svg width="29" height="34" viewBox="0 0 29 34" fill="none" xmlns="http://www.w3.org/2000/svg">
<path d="M27.7176 9.87441L18.9676 1.12441C18.8515 1.00837 18.7136 0.916354 18.5618 0.853619C18.4101 0.790884 18.2475 0.75866 18.0833 0.758789H3.08325C2.42021 0.758789 1.78433 1.02218 1.31548 1.49102C0.846644 1.95986 0.583252 2.59575 0.583252 3.25879V30.7588C0.583252 31.4218 0.846644 32.0577 1.31548 32.5266C1.78433 32.9954 2.42021 33.2588 3.08325 33.2588H25.5833C26.2463 33.2588 26.8822 32.9954 27.351 32.5266C27.8199 32.0577 28.0833 31.4218 28.0833 30.7588V10.7588C28.0834 10.5946 28.0512 10.432 27.9884 10.2802C27.9257 10.1285 27.8337 9.99059 27.7176 9.87441ZM19.3333 24.5088H9.33325C9.00173 24.5088 8.68379 24.3771 8.44937 24.1427C8.21495 23.9083 8.08325 23.5903 8.08325 23.2588C8.08325 22.9273 8.21495 22.6093 8.44937 22.3749C8.68379 22.1405 9.00173 22.0088 9.33325 22.0088H19.3333C19.6648 22.0088 19.9827 22.1405 20.2171 22.3749C20.4516 22.6093 20.5833 22.9273 20.5833 23.2588C20.5833 23.5903 20.4516 23.9083 20.2171 24.1427C19.9827 24.3771 19.6648 24.5088 19.3333 24.5088ZM19.3333 19.5088H9.33325C9.00173 19.5088 8.68379 19.3771 8.44937 19.1427C8.21495 18.9083 8.08325 18.5903 8.08325 18.2588C8.08325 17.9273 8.21495 17.6093 8.44937 17.3749C8.68379 17.1405 9.00173 17.0088 9.33325 17.0088H19.3333C19.6648 17.0088 19.9827 17.1405 20.2171 17.3749C20.4516 17.6093 20.5833 17.9273 20.5833 18.2588C20.5833 18.5903 20.4516 18.9083 20.2171 19.1427C19.9827 19.3771 19.6648 19.5088 19.3333 19.5088ZM18.0833 10.7588V3.88379L24.9583 10.7588H18.0833Z" fill="#451AE2"/>
<path d="M27.7176 9.87441L18.9676 1.12441C18.8515 1.00837 18.7136 0.916354 18.5618 0.853619C18.4101 0.790884 18.2475 0.75866 18.0833 0.758789H3.08325C2.42021 0.758789 1.78433 1.02218 1.31548 1.49102C0.846644 1.95986 0.583252 2.59575 0.583252 3.25879V30.7588C0.583252 31.4218 0.846644 32.0577 1.31548 32.5266C1.78433 32.9954 2.42021 33.2588 3.08325 33.2588H25.5833C26.2463 33.2588 26.8822 32.9954 27.351 32.5266C27.8199 32.0577 28.0833 31.4218 28.0833 30.7588V10.7588C28.0834 10.5946 28.0512 10.432 27.9884 10.2802C27.9257 10.1285 27.8337 9.99059 27.7176 9.87441ZM19.3333 24.5088H9.33325C9.00173 24.5088 8.68379 24.3771 8.44937 24.1427C8.21495 23.9083 8.08325 23.5903 8.08325 23.2588C8.08325 22.9273 8.21495 22.6093 8.44937 22.3749C8.68379 22.1405 9.00173 22.0088 9.33325 22.0088H19.3333C19.6648 22.0088 19.9827 22.1405 20.2171 22.3749C20.4516 22.6093 20.5833 22.9273 20.5833 23.2588C20.5833 23.5903 20.4516 23.9083 20.2171 24.1427C19.9827 24.3771 19.6648 24.5088 19.3333 24.5088ZM19.3333 19.5088H9.33325C9.00173 19.5088 8.68379 19.3771 8.44937 19.1427C8.21495 18.9083 8.08325 18.5903 8.08325 18.2588C8.08325 17.9273 8.21495 17.6093 8.44937 17.3749C8.68379 17.1405 9.00173 17.0088 9.33325 17.0088H19.3333C19.6648 17.0088 19.9827 17.1405 20.2171 17.3749C20.4516 17.6093 20.5833 17.9273 20.5833 18.2588C20.5833 18.5903 20.4516 18.9083 20.2171 19.1427C19.9827 19.3771 19.6648 19.5088 19.3333 19.5088ZM18.0833 10.7588V3.88379L24.9583 10.7588H18.0833Z" fill="white" fill-opacity="0.2"/>
</svg>
