<svg width="30" height="31" viewBox="0 0 30 31" fill="none" xmlns="http://www.w3.org/2000/svg">
<path d="M30 13.2588V28.2588C30 28.9218 29.7366 29.5577 29.2678 30.0266C28.7989 30.4954 28.163 30.7588 27.5 30.7588H2.5C1.83696 30.7588 1.20107 30.4954 0.732233 30.0266C0.263392 29.5577 0 28.9218 0 28.2588V13.2588C0 12.5957 0.263392 11.9599 0.732233 11.491C1.20107 11.0222 1.83696 10.7588 2.5 10.7588H27.5C28.163 10.7588 28.7989 11.0222 29.2678 11.491C29.7366 11.9599 30 12.5957 30 13.2588ZM3.75 8.25879H26.25C26.5815 8.25879 26.8995 8.12709 27.1339 7.89267C27.3683 7.65825 27.5 7.34031 27.5 7.00879C27.5 6.67727 27.3683 6.35933 27.1339 6.12491C26.8995 5.89049 26.5815 5.75879 26.25 5.75879H3.75C3.41848 5.75879 3.10054 5.89049 2.86612 6.12491C2.6317 6.35933 2.5 6.67727 2.5 7.00879C2.5 7.34031 2.6317 7.65825 2.86612 7.89267C3.10054 8.12709 3.41848 8.25879 3.75 8.25879ZM6.25 3.25879H23.75C24.0815 3.25879 24.3995 3.12709 24.6339 2.89267C24.8683 2.65825 25 2.34031 25 2.00879C25 1.67727 24.8683 1.35933 24.6339 1.12491C24.3995 0.890485 24.0815 0.758789 23.75 0.758789H6.25C5.91848 0.758789 5.60054 0.890485 5.36612 1.12491C5.1317 1.35933 5 1.67727 5 2.00879C5 2.34031 5.1317 2.65825 5.36612 2.89267C5.60054 3.12709 5.91848 3.25879 6.25 3.25879Z" fill="#451AE2"/>
<path d="M30 13.2588V28.2588C30 28.9218 29.7366 29.5577 29.2678 30.0266C28.7989 30.4954 28.163 30.7588 27.5 30.7588H2.5C1.83696 30.7588 1.20107 30.4954 0.732233 30.0266C0.263392 29.5577 0 28.9218 0 28.2588V13.2588C0 12.5957 0.263392 11.9599 0.732233 11.491C1.20107 11.0222 1.83696 10.7588 2.5 10.7588H27.5C28.163 10.7588 28.7989 11.0222 29.2678 11.491C29.7366 11.9599 30 12.5957 30 13.2588ZM3.75 8.25879H26.25C26.5815 8.25879 26.8995 8.12709 27.1339 7.89267C27.3683 7.65825 27.5 7.34031 27.5 7.00879C27.5 6.67727 27.3683 6.35933 27.1339 6.12491C26.8995 5.89049 26.5815 5.75879 26.25 5.75879H3.75C3.41848 5.75879 3.10054 5.89049 2.86612 6.12491C2.6317 6.35933 2.5 6.67727 2.5 7.00879C2.5 7.34031 2.6317 7.65825 2.86612 7.89267C3.10054 8.12709 3.41848 8.25879 3.75 8.25879ZM6.25 3.25879H23.75C24.0815 3.25879 24.3995 3.12709 24.6339 2.89267C24.8683 2.65825 25 2.34031 25 2.00879C25 1.67727 24.8683 1.35933 24.6339 1.12491C24.3995 0.890485 24.0815 0.758789 23.75 0.758789H6.25C5.91848 0.758789 5.60054 0.890485 5.36612 1.12491C5.1317 1.35933 5 1.67727 5 2.00879C5 2.34031 5.1317 2.65825 5.36612 2.89267C5.60054 3.12709 5.91848 3.25879 6.25 3.25879Z" fill="white" fill-opacity="0.2"/>
</svg>
