<svg width="34" height="28" viewBox="0 0 34 28" fill="none" xmlns="http://www.w3.org/2000/svg">
<path d="M30.75 0.258789H3.25C2.58696 0.258789 1.95107 0.522181 1.48223 0.991022C1.01339 1.45986 0.75 2.09575 0.75 2.75879V26.5088C0.750114 26.7218 0.804679 26.9313 0.908515 27.1174C1.01235 27.3034 1.16201 27.4598 1.34329 27.5717C1.52457 27.6836 1.73144 27.7474 1.94428 27.7569C2.15712 27.7664 2.36885 27.7213 2.55938 27.626L7 25.4057L11.4406 27.626C11.6143 27.7129 11.8058 27.7581 12 27.7581C12.1942 27.7581 12.3857 27.7129 12.5594 27.626L17 25.4057L21.4406 27.626C21.6143 27.7129 21.8058 27.7581 22 27.7581C22.1942 27.7581 22.3857 27.7129 22.5594 27.626L27 25.4057L31.4406 27.626C31.6312 27.7213 31.8429 27.7664 32.0557 27.7569C32.2686 27.7474 32.4754 27.6836 32.6567 27.5717C32.838 27.4598 32.9876 27.3034 33.0915 27.1174C33.1953 26.9313 33.2499 26.7218 33.25 26.5088V2.75879C33.25 2.09575 32.9866 1.45986 32.5178 0.991022C32.0489 0.522181 31.413 0.258789 30.75 0.258789ZM24.5 16.5088H9.5C9.16848 16.5088 8.85054 16.3771 8.61612 16.1427C8.3817 15.9083 8.25 15.5903 8.25 15.2588C8.25 14.9273 8.3817 14.6093 8.61612 14.3749C8.85054 14.1405 9.16848 14.0088 9.5 14.0088H24.5C24.8315 14.0088 25.1495 14.1405 25.3839 14.3749C25.6183 14.6093 25.75 14.9273 25.75 15.2588C25.75 15.5903 25.6183 15.9083 25.3839 16.1427C25.1495 16.3771 24.8315 16.5088 24.5 16.5088ZM24.5 11.5088H9.5C9.16848 11.5088 8.85054 11.3771 8.61612 11.1427C8.3817 10.9083 8.25 10.5903 8.25 10.2588C8.25 9.92727 8.3817 9.60933 8.61612 9.37491C8.85054 9.14049 9.16848 9.00879 9.5 9.00879H24.5C24.8315 9.00879 25.1495 9.14049 25.3839 9.37491C25.6183 9.60933 25.75 9.92727 25.75 10.2588C25.75 10.5903 25.6183 10.9083 25.3839 11.1427C25.1495 11.3771 24.8315 11.5088 24.5 11.5088Z" fill="#451AE2"/>
<path d="M30.75 0.258789H3.25C2.58696 0.258789 1.95107 0.522181 1.48223 0.991022C1.01339 1.45986 0.75 2.09575 0.75 2.75879V26.5088C0.750114 26.7218 0.804679 26.9313 0.908515 27.1174C1.01235 27.3034 1.16201 27.4598 1.34329 27.5717C1.52457 27.6836 1.73144 27.7474 1.94428 27.7569C2.15712 27.7664 2.36885 27.7213 2.55938 27.626L7 25.4057L11.4406 27.626C11.6143 27.7129 11.8058 27.7581 12 27.7581C12.1942 27.7581 12.3857 27.7129 12.5594 27.626L17 25.4057L21.4406 27.626C21.6143 27.7129 21.8058 27.7581 22 27.7581C22.1942 27.7581 22.3857 27.7129 22.5594 27.626L27 25.4057L31.4406 27.626C31.6312 27.7213 31.8429 27.7664 32.0557 27.7569C32.2686 27.7474 32.4754 27.6836 32.6567 27.5717C32.838 27.4598 32.9876 27.3034 33.0915 27.1174C33.1953 26.9313 33.2499 26.7218 33.25 26.5088V2.75879C33.25 2.09575 32.9866 1.45986 32.5178 0.991022C32.0489 0.522181 31.413 0.258789 30.75 0.258789ZM24.5 16.5088H9.5C9.16848 16.5088 8.85054 16.3771 8.61612 16.1427C8.3817 15.9083 8.25 15.5903 8.25 15.2588C8.25 14.9273 8.3817 14.6093 8.61612 14.3749C8.85054 14.1405 9.16848 14.0088 9.5 14.0088H24.5C24.8315 14.0088 25.1495 14.1405 25.3839 14.3749C25.6183 14.6093 25.75 14.9273 25.75 15.2588C25.75 15.5903 25.6183 15.9083 25.3839 16.1427C25.1495 16.3771 24.8315 16.5088 24.5 16.5088ZM24.5 11.5088H9.5C9.16848 11.5088 8.85054 11.3771 8.61612 11.1427C8.3817 10.9083 8.25 10.5903 8.25 10.2588C8.25 9.92727 8.3817 9.60933 8.61612 9.37491C8.85054 9.14049 9.16848 9.00879 9.5 9.00879H24.5C24.8315 9.00879 25.1495 9.14049 25.3839 9.37491C25.6183 9.60933 25.75 9.92727 25.75 10.2588C25.75 10.5903 25.6183 10.9083 25.3839 11.1427C25.1495 11.3771 24.8315 11.5088 24.5 11.5088Z" fill="white" fill-opacity="0.2"/>
</svg>
