<svg width="41" height="40" viewBox="0 0 41 40" fill="none" xmlns="http://www.w3.org/2000/svg">
<path d="M26.9168 17.5089C26.9168 19.2395 26.4036 20.9312 25.4422 22.3701C24.4807 23.8091 23.1141 24.9306 21.5153 25.5928C19.9164 26.2551 18.1571 26.4284 16.4598 26.0908C14.7624 25.7531 13.2033 24.9198 11.9796 23.6961C10.7559 22.4724 9.92255 20.9133 9.58492 19.2159C9.2473 17.5186 9.42058 15.7593 10.0829 14.1604C10.7451 12.5616 11.8666 11.195 13.3056 10.2335C14.7445 9.27208 16.4362 8.7589 18.1668 8.7589C20.4874 8.7589 22.713 9.68077 24.354 11.3217C25.9949 12.9627 26.9168 15.1883 26.9168 17.5089ZM36.5512 35.8933C36.4351 36.0095 36.2972 36.1017 36.1455 36.1646C35.9937 36.2275 35.8311 36.2599 35.6668 36.2599C35.5025 36.2599 35.3399 36.2275 35.1881 36.1646C35.0364 36.1017 34.8985 36.0095 34.7824 35.8933L26.9605 28.0698C24.2404 30.3328 20.7526 31.46 17.2225 31.2171C13.6925 30.9741 10.392 29.3796 8.00756 26.7652C5.62314 24.1509 4.33836 20.7179 4.42045 17.1805C4.50255 13.6431 5.9452 10.2734 8.44833 7.7725C10.9515 5.27158 14.3224 3.83191 17.8599 3.75294C21.3974 3.67397 24.8292 4.96179 27.4414 7.34852C30.0537 9.73525 31.6453 13.0371 31.8851 16.5674C32.125 20.0977 30.9947 23.5845 28.7293 26.3026L36.5512 34.1245C36.6674 34.2406 36.7596 34.3785 36.8225 34.5302C36.8854 34.682 36.9178 34.8446 36.9178 35.0089C36.9178 35.1732 36.8854 35.3358 36.8225 35.4876C36.7596 35.6393 36.6674 35.7772 36.5512 35.8933ZM18.1668 28.7589C20.3918 28.7589 22.5669 28.0991 24.417 26.8629C26.267 25.6268 27.709 23.8698 28.5604 21.8141C29.4119 19.7584 29.6347 17.4964 29.2006 15.3141C28.7665 13.1318 27.6951 11.1273 26.1217 9.55395C24.5484 7.98061 22.5438 6.90915 20.3616 6.47506C18.1793 6.04098 15.9173 6.26377 13.8616 7.11525C11.8059 7.96674 10.0489 9.40868 8.81276 11.2587C7.5766 13.1088 6.9168 15.2839 6.9168 17.5089C6.92011 20.4916 8.10643 23.3511 10.2155 25.4602C12.3246 27.5693 15.1841 28.7556 18.1668 28.7589Z" fill="#451AE2"/>
<path d="M26.9168 17.5089C26.9168 19.2395 26.4036 20.9312 25.4422 22.3701C24.4807 23.8091 23.1141 24.9306 21.5153 25.5928C19.9164 26.2551 18.1571 26.4284 16.4598 26.0908C14.7624 25.7531 13.2033 24.9198 11.9796 23.6961C10.7559 22.4724 9.92255 20.9133 9.58492 19.2159C9.2473 17.5186 9.42058 15.7593 10.0829 14.1604C10.7451 12.5616 11.8666 11.195 13.3056 10.2335C14.7445 9.27208 16.4362 8.7589 18.1668 8.7589C20.4874 8.7589 22.713 9.68077 24.354 11.3217C25.9949 12.9627 26.9168 15.1883 26.9168 17.5089ZM36.5512 35.8933C36.4351 36.0095 36.2972 36.1017 36.1455 36.1646C35.9937 36.2275 35.8311 36.2599 35.6668 36.2599C35.5025 36.2599 35.3399 36.2275 35.1881 36.1646C35.0364 36.1017 34.8985 36.0095 34.7824 35.8933L26.9605 28.0698C24.2404 30.3328 20.7526 31.46 17.2225 31.2171C13.6925 30.9741 10.392 29.3796 8.00756 26.7652C5.62314 24.1509 4.33836 20.7179 4.42045 17.1805C4.50255 13.6431 5.9452 10.2734 8.44833 7.7725C10.9515 5.27158 14.3224 3.83191 17.8599 3.75294C21.3974 3.67397 24.8292 4.96179 27.4414 7.34852C30.0537 9.73525 31.6453 13.0371 31.8851 16.5674C32.125 20.0977 30.9947 23.5845 28.7293 26.3026L36.5512 34.1245C36.6674 34.2406 36.7596 34.3785 36.8225 34.5302C36.8854 34.682 36.9178 34.8446 36.9178 35.0089C36.9178 35.1732 36.8854 35.3358 36.8225 35.4876C36.7596 35.6393 36.6674 35.7772 36.5512 35.8933ZM18.1668 28.7589C20.3918 28.7589 22.5669 28.0991 24.417 26.8629C26.267 25.6268 27.709 23.8698 28.5604 21.8141C29.4119 19.7584 29.6347 17.4964 29.2006 15.3141C28.7665 13.1318 27.6951 11.1273 26.1217 9.55395C24.5484 7.98061 22.5438 6.90915 20.3616 6.47506C18.1793 6.04098 15.9173 6.26377 13.8616 7.11525C11.8059 7.96674 10.0489 9.40868 8.81276 11.2587C7.5766 13.1088 6.9168 15.2839 6.9168 17.5089C6.92011 20.4916 8.10643 23.3511 10.2155 25.4602C12.3246 27.5693 15.1841 28.7556 18.1668 28.7589Z" fill="white" fill-opacity="0.2"/>
</svg>
