<svg width="39" height="26" viewBox="0 0 39 26" fill="none" xmlns="http://www.w3.org/2000/svg">
<path d="M37.8292 2.38386C37.6493 2.27155 37.4437 2.20688 37.2319 2.19595C37.02 2.18502 36.8089 2.22817 36.6183 2.32136C29.9105 5.60261 25.1199 4.06511 20.0558 2.44324C14.7292 0.747925 9.22925 -1.00989 1.61831 2.70574C1.40812 2.80836 1.23094 2.96791 1.10692 3.16623C0.982894 3.36456 0.917008 3.5937 0.916748 3.82761V22.5667C0.916718 22.7788 0.970652 22.9874 1.07347 23.1729C1.17629 23.3584 1.32462 23.5146 1.5045 23.627C1.68437 23.7394 1.88988 23.8041 2.10168 23.8152C2.31348 23.8262 2.5246 23.7832 2.71519 23.6901C9.423 20.4089 14.2136 21.9464 19.2855 23.5682C22.2917 24.5292 25.3542 25.5089 28.8167 25.5089C31.4871 25.5089 34.3996 24.9276 37.7089 23.312C37.9191 23.2094 38.0963 23.0498 38.2203 22.8515C38.3444 22.6532 38.4102 22.424 38.4105 22.1901V3.45105C38.4124 3.23841 38.36 3.02881 38.2583 2.84207C38.1566 2.65533 38.0089 2.49762 37.8292 2.38386ZM7.16675 16.7589C7.16675 17.0904 7.03505 17.4083 6.80063 17.6427C6.56621 17.8772 6.24827 18.0089 5.91675 18.0089C5.58523 18.0089 5.26729 17.8772 5.03286 17.6427C4.79844 17.4083 4.66675 17.0904 4.66675 16.7589V6.75886C4.66675 6.42734 4.79844 6.1094 5.03286 5.87498C5.26729 5.64056 5.58523 5.50886 5.91675 5.50886C6.24827 5.50886 6.56621 5.64056 6.80063 5.87498C7.03505 6.1094 7.16675 6.42734 7.16675 6.75886V16.7589ZM19.6667 18.0089C18.6778 18.0089 17.7111 17.7156 16.8889 17.1662C16.0667 16.6168 15.4258 15.8359 15.0473 14.9223C14.6689 14.0086 14.5699 13.0033 14.7628 12.0334C14.9557 11.0635 15.432 10.1726 16.1312 9.47333C16.8305 8.77407 17.7214 8.29786 18.6913 8.10494C19.6612 7.91201 20.6665 8.01103 21.5802 8.38946C22.4938 8.7679 23.2747 9.40877 23.8241 10.231C24.3735 11.0533 24.6667 12.02 24.6667 13.0089C24.6667 14.3349 24.14 15.6067 23.2023 16.5444C22.2646 17.4821 20.9928 18.0089 19.6667 18.0089ZM34.6667 19.2589C34.6667 19.5904 34.5351 19.9083 34.3006 20.1427C34.0662 20.3772 33.7483 20.5089 33.4167 20.5089C33.0852 20.5089 32.7673 20.3772 32.5329 20.1427C32.2984 19.9083 32.1667 19.5904 32.1667 19.2589V9.25886C32.1667 8.92734 32.2984 8.6094 32.5329 8.37498C32.7673 8.14056 33.0852 8.00886 33.4167 8.00886C33.7483 8.00886 34.0662 8.14056 34.3006 8.37498C34.5351 8.6094 34.6667 8.92734 34.6667 9.25886V19.2589Z" fill="#451AE2"/>
<path d="M37.8292 2.38386C37.6493 2.27155 37.4437 2.20688 37.2319 2.19595C37.02 2.18502 36.8089 2.22817 36.6183 2.32136C29.9105 5.60261 25.1199 4.06511 20.0558 2.44324C14.7292 0.747925 9.22925 -1.00989 1.61831 2.70574C1.40812 2.80836 1.23094 2.96791 1.10692 3.16623C0.982894 3.36456 0.917008 3.5937 0.916748 3.82761V22.5667C0.916718 22.7788 0.970652 22.9874 1.07347 23.1729C1.17629 23.3584 1.32462 23.5146 1.5045 23.627C1.68437 23.7394 1.88988 23.8041 2.10168 23.8152C2.31348 23.8262 2.5246 23.7832 2.71519 23.6901C9.423 20.4089 14.2136 21.9464 19.2855 23.5682C22.2917 24.5292 25.3542 25.5089 28.8167 25.5089C31.4871 25.5089 34.3996 24.9276 37.7089 23.312C37.9191 23.2094 38.0963 23.0498 38.2203 22.8515C38.3444 22.6532 38.4102 22.424 38.4105 22.1901V3.45105C38.4124 3.23841 38.36 3.02881 38.2583 2.84207C38.1566 2.65533 38.0089 2.49762 37.8292 2.38386ZM7.16675 16.7589C7.16675 17.0904 7.03505 17.4083 6.80063 17.6427C6.56621 17.8772 6.24827 18.0089 5.91675 18.0089C5.58523 18.0089 5.26729 17.8772 5.03286 17.6427C4.79844 17.4083 4.66675 17.0904 4.66675 16.7589V6.75886C4.66675 6.42734 4.79844 6.1094 5.03286 5.87498C5.26729 5.64056 5.58523 5.50886 5.91675 5.50886C6.24827 5.50886 6.56621 5.64056 6.80063 5.87498C7.03505 6.1094 7.16675 6.42734 7.16675 6.75886V16.7589ZM19.6667 18.0089C18.6778 18.0089 17.7111 17.7156 16.8889 17.1662C16.0667 16.6168 15.4258 15.8359 15.0473 14.9223C14.6689 14.0086 14.5699 13.0033 14.7628 12.0334C14.9557 11.0635 15.432 10.1726 16.1312 9.47333C16.8305 8.77407 17.7214 8.29786 18.6913 8.10494C19.6612 7.91201 20.6665 8.01103 21.5802 8.38946C22.4938 8.7679 23.2747 9.40877 23.8241 10.231C24.3735 11.0533 24.6667 12.02 24.6667 13.0089C24.6667 14.3349 24.14 15.6067 23.2023 16.5444C22.2646 17.4821 20.9928 18.0089 19.6667 18.0089ZM34.6667 19.2589C34.6667 19.5904 34.5351 19.9083 34.3006 20.1427C34.0662 20.3772 33.7483 20.5089 33.4167 20.5089C33.0852 20.5089 32.7673 20.3772 32.5329 20.1427C32.2984 19.9083 32.1667 19.5904 32.1667 19.2589V9.25886C32.1667 8.92734 32.2984 8.6094 32.5329 8.37498C32.7673 8.14056 33.0852 8.00886 33.4167 8.00886C33.7483 8.00886 34.0662 8.14056 34.3006 8.37498C34.5351 8.6094 34.6667 8.92734 34.6667 9.25886V19.2589Z" fill="white" fill-opacity="0.2"/>
</svg>
