<svg width="29" height="34" viewBox="0 0 29 34" fill="none" xmlns="http://www.w3.org/2000/svg">
<path d="M28.0511 7.37441L21.8011 1.12441C21.685 1.00837 21.5471 0.916354 21.3953 0.853619C21.2436 0.790884 21.0809 0.75866 20.9167 0.758789H8.41675C7.75371 0.758789 7.11782 1.02218 6.64898 1.49102C6.18014 1.95986 5.91675 2.59575 5.91675 3.25879V5.75879H3.41675C2.75371 5.75879 2.11782 6.02218 1.64898 6.49102C1.18014 6.95986 0.916748 7.59575 0.916748 8.25879V30.7588C0.916748 31.4218 1.18014 32.0577 1.64898 32.5266C2.11782 32.9954 2.75371 33.2588 3.41675 33.2588H20.9167C21.5798 33.2588 22.2157 32.9954 22.6845 32.5266C23.1534 32.0577 23.4167 31.4218 23.4167 30.7588V28.2588H25.9167C26.5798 28.2588 27.2157 27.9954 27.6845 27.5266C28.1534 27.0577 28.4167 26.4218 28.4167 25.7588V8.25879C28.4169 8.09459 28.3847 7.93197 28.3219 7.78023C28.2592 7.62848 28.1672 7.49059 28.0511 7.37441ZM15.9167 27.0088H8.41675C8.08523 27.0088 7.76729 26.8771 7.53286 26.6427C7.29844 26.4083 7.16675 26.0903 7.16675 25.7588C7.16675 25.4273 7.29844 25.1093 7.53286 24.8749C7.76729 24.6405 8.08523 24.5088 8.41675 24.5088H15.9167C16.2483 24.5088 16.5662 24.6405 16.8006 24.8749C17.0351 25.1093 17.1667 25.4273 17.1667 25.7588C17.1667 26.0903 17.0351 26.4083 16.8006 26.6427C16.5662 26.8771 16.2483 27.0088 15.9167 27.0088ZM15.9167 22.0088H8.41675C8.08523 22.0088 7.76729 21.8771 7.53286 21.6427C7.29844 21.4083 7.16675 21.0903 7.16675 20.7588C7.16675 20.4273 7.29844 20.1093 7.53286 19.8749C7.76729 19.6405 8.08523 19.5088 8.41675 19.5088H15.9167C16.2483 19.5088 16.5662 19.6405 16.8006 19.8749C17.0351 20.1093 17.1667 20.4273 17.1667 20.7588C17.1667 21.0903 17.0351 21.4083 16.8006 21.6427C16.5662 21.8771 16.2483 22.0088 15.9167 22.0088ZM25.9167 25.7588H23.4167V13.2588C23.4169 13.0946 23.3847 12.932 23.3219 12.7802C23.2592 12.6285 23.1672 12.4906 23.0511 12.3744L16.8011 6.12441C16.685 6.00837 16.5471 5.91635 16.3953 5.85362C16.2436 5.79088 16.0809 5.75866 15.9167 5.75879H8.41675V3.25879H20.3996L25.9167 8.77598V25.7588Z" fill="#451AE2"/>
<path d="M28.0511 7.37441L21.8011 1.12441C21.685 1.00837 21.5471 0.916354 21.3953 0.853619C21.2436 0.790884 21.0809 0.75866 20.9167 0.758789H8.41675C7.75371 0.758789 7.11782 1.02218 6.64898 1.49102C6.18014 1.95986 5.91675 2.59575 5.91675 3.25879V5.75879H3.41675C2.75371 5.75879 2.11782 6.02218 1.64898 6.49102C1.18014 6.95986 0.916748 7.59575 0.916748 8.25879V30.7588C0.916748 31.4218 1.18014 32.0577 1.64898 32.5266C2.11782 32.9954 2.75371 33.2588 3.41675 33.2588H20.9167C21.5798 33.2588 22.2157 32.9954 22.6845 32.5266C23.1534 32.0577 23.4167 31.4218 23.4167 30.7588V28.2588H25.9167C26.5798 28.2588 27.2157 27.9954 27.6845 27.5266C28.1534 27.0577 28.4167 26.4218 28.4167 25.7588V8.25879C28.4169 8.09459 28.3847 7.93197 28.3219 7.78023C28.2592 7.62848 28.1672 7.49059 28.0511 7.37441ZM15.9167 27.0088H8.41675C8.08523 27.0088 7.76729 26.8771 7.53286 26.6427C7.29844 26.4083 7.16675 26.0903 7.16675 25.7588C7.16675 25.4273 7.29844 25.1093 7.53286 24.8749C7.76729 24.6405 8.08523 24.5088 8.41675 24.5088H15.9167C16.2483 24.5088 16.5662 24.6405 16.8006 24.8749C17.0351 25.1093 17.1667 25.4273 17.1667 25.7588C17.1667 26.0903 17.0351 26.4083 16.8006 26.6427C16.5662 26.8771 16.2483 27.0088 15.9167 27.0088ZM15.9167 22.0088H8.41675C8.08523 22.0088 7.76729 21.8771 7.53286 21.6427C7.29844 21.4083 7.16675 21.0903 7.16675 20.7588C7.16675 20.4273 7.29844 20.1093 7.53286 19.8749C7.76729 19.6405 8.08523 19.5088 8.41675 19.5088H15.9167C16.2483 19.5088 16.5662 19.6405 16.8006 19.8749C17.0351 20.1093 17.1667 20.4273 17.1667 20.7588C17.1667 21.0903 17.0351 21.4083 16.8006 21.6427C16.5662 21.8771 16.2483 22.0088 15.9167 22.0088ZM25.9167 25.7588H23.4167V13.2588C23.4169 13.0946 23.3847 12.932 23.3219 12.7802C23.2592 12.6285 23.1672 12.4906 23.0511 12.3744L16.8011 6.12441C16.685 6.00837 16.5471 5.91635 16.3953 5.85362C16.2436 5.79088 16.0809 5.75866 15.9167 5.75879H8.41675V3.25879H20.3996L25.9167 8.77598V25.7588Z" fill="white" fill-opacity="0.2"/>
</svg>
