<svg width="41" height="40" viewBox="0 0 41 40" fill="none" xmlns="http://www.w3.org/2000/svg">
<path d="M34.7083 26.4291L20.3333 34.8119L5.95826 26.4291C5.67364 26.2873 5.34572 26.2594 5.04123 26.351C4.73675 26.4425 4.47859 26.6466 4.31931 26.9218C4.16002 27.197 4.11158 27.5225 4.18384 27.8321C4.25609 28.1417 4.44362 28.4122 4.70826 28.5884L19.7083 37.3384C19.8994 37.4499 20.1167 37.5086 20.3379 37.5086C20.5592 37.5086 20.7765 37.4499 20.9676 37.3384L35.9676 28.5884C36.1117 28.5069 36.2381 28.3976 36.3396 28.2668C36.4411 28.1361 36.5156 27.9864 36.5588 27.8266C36.602 27.6668 36.613 27.5 36.5912 27.336C36.5694 27.1719 36.5153 27.0137 36.4319 26.8707C36.3485 26.7278 36.2375 26.6028 36.1054 26.503C35.9733 26.4032 35.8227 26.3307 35.6624 26.2896C35.502 26.2485 35.3351 26.2397 35.1713 26.2636C35.0075 26.2876 34.8501 26.3438 34.7083 26.4291Z" fill="#451AE2"/>
<path d="M34.7083 26.4291L20.3333 34.8119L5.95826 26.4291C5.67364 26.2873 5.34572 26.2594 5.04123 26.351C4.73675 26.4425 4.47859 26.6466 4.31931 26.9218C4.16002 27.197 4.11158 27.5225 4.18384 27.8321C4.25609 28.1417 4.44362 28.4122 4.70826 28.5884L19.7083 37.3384C19.8994 37.4499 20.1167 37.5086 20.3379 37.5086C20.5592 37.5086 20.7765 37.4499 20.9676 37.3384L35.9676 28.5884C36.1117 28.5069 36.2381 28.3976 36.3396 28.2668C36.4411 28.1361 36.5156 27.9864 36.5588 27.8266C36.602 27.6668 36.613 27.5 36.5912 27.336C36.5694 27.1719 36.5153 27.0137 36.4319 26.8707C36.3485 26.7278 36.2375 26.6028 36.1054 26.503C35.9733 26.4032 35.8227 26.3307 35.6624 26.2896C35.502 26.2485 35.3351 26.2397 35.1713 26.2636C35.0075 26.2876 34.8501 26.3438 34.7083 26.4291Z" fill="white" fill-opacity="0.2"/>
<path d="M34.7083 18.9291L20.3333 27.3119L5.95826 18.9291C5.67364 18.7873 5.34572 18.7594 5.04123 18.851C4.73675 18.9425 4.47859 19.1466 4.31931 19.4218C4.16002 19.697 4.11158 20.0225 4.18384 20.3321C4.25609 20.6417 4.44362 20.9122 4.70826 21.0884L19.7083 29.8384C19.8994 29.9499 20.1167 30.0086 20.3379 30.0086C20.5592 30.0086 20.7765 29.9499 20.9676 29.8384L35.9676 21.0884C36.1117 21.0069 36.2381 20.8976 36.3396 20.7668C36.4411 20.6361 36.5156 20.4864 36.5588 20.3266C36.602 20.1668 36.613 20 36.5912 19.836C36.5694 19.6719 36.5153 19.5137 36.4319 19.3707C36.3485 19.2278 36.2375 19.1028 36.1054 19.003C35.9733 18.9032 35.8227 18.8307 35.6624 18.7896C35.502 18.7485 35.3351 18.7397 35.1713 18.7636C35.0075 18.7876 34.8501 18.8438 34.7083 18.9291Z" fill="#451AE2"/>
<path d="M34.7083 18.9291L20.3333 27.3119L5.95826 18.9291C5.67364 18.7873 5.34572 18.7594 5.04123 18.851C4.73675 18.9425 4.47859 19.1466 4.31931 19.4218C4.16002 19.697 4.11158 20.0225 4.18384 20.3321C4.25609 20.6417 4.44362 20.9122 4.70826 21.0884L19.7083 29.8384C19.8994 29.9499 20.1167 30.0086 20.3379 30.0086C20.5592 30.0086 20.7765 29.9499 20.9676 29.8384L35.9676 21.0884C36.1117 21.0069 36.2381 20.8976 36.3396 20.7668C36.4411 20.6361 36.5156 20.4864 36.5588 20.3266C36.602 20.1668 36.613 20 36.5912 19.836C36.5694 19.6719 36.5153 19.5137 36.4319 19.3707C36.3485 19.2278 36.2375 19.1028 36.1054 19.003C35.9733 18.9032 35.8227 18.8307 35.6624 18.7896C35.502 18.7485 35.3351 18.7397 35.1713 18.7636C35.0075 18.7876 34.8501 18.8438 34.7083 18.9291Z" fill="white" fill-opacity="0.2"/>
<path d="M4.70823 13.5884L19.7082 22.3384C19.8994 22.4498 20.1167 22.5085 20.3379 22.5085C20.5592 22.5085 20.7765 22.4498 20.9676 22.3384L35.9676 13.5884C36.1563 13.4783 36.3128 13.3206 36.4216 13.1312C36.5304 12.9418 36.5877 12.7271 36.5877 12.5087C36.5877 12.2902 36.5304 12.0756 36.4216 11.8861C36.3128 11.6967 36.1563 11.5391 35.9676 11.429L20.9676 2.67898C20.7765 2.56752 20.5592 2.50879 20.3379 2.50879C20.1167 2.50879 19.8994 2.56752 19.7082 2.67898L4.70823 11.429C4.51954 11.5391 4.36299 11.6967 4.25419 11.8861C4.14539 12.0756 4.08813 12.2902 4.08813 12.5087C4.08813 12.7271 4.14539 12.9418 4.25419 13.1312C4.36299 13.3206 4.51954 13.4783 4.70823 13.5884Z" fill="#451AE2"/>
<path d="M4.70823 13.5884L19.7082 22.3384C19.8994 22.4498 20.1167 22.5085 20.3379 22.5085C20.5592 22.5085 20.7765 22.4498 20.9676 22.3384L35.9676 13.5884C36.1563 13.4783 36.3128 13.3206 36.4216 13.1312C36.5304 12.9418 36.5877 12.7271 36.5877 12.5087C36.5877 12.2902 36.5304 12.0756 36.4216 11.8861C36.3128 11.6967 36.1563 11.5391 35.9676 11.429L20.9676 2.67898C20.7765 2.56752 20.5592 2.50879 20.3379 2.50879C20.1167 2.50879 19.8994 2.56752 19.7082 2.67898L4.70823 11.429C4.51954 11.5391 4.36299 11.6967 4.25419 11.8861C4.14539 12.0756 4.08813 12.2902 4.08813 12.5087C4.08813 12.7271 4.14539 12.9418 4.25419 13.1312C4.36299 13.3206 4.51954 13.4783 4.70823 13.5884Z" fill="white" fill-opacity="0.2"/>
</svg>
