<svg width="40" height="41" viewBox="0 0 40 41" fill="none" xmlns="http://www.w3.org/2000/svg">
<path d="M20 4.26074C16.7861 4.26074 13.6443 5.21379 10.972 6.99936C8.29969 8.78493 6.21689 11.3228 4.98696 14.2921C3.75704 17.2614 3.43524 20.5288 4.06225 23.681C4.68926 26.8332 6.23692 29.7286 8.50952 32.0012C10.7821 34.2738 13.6776 35.8215 16.8298 36.4485C19.982 37.0755 23.2493 36.7537 26.2186 35.5238C29.1879 34.2939 31.7258 32.2111 33.5114 29.5388C35.297 26.8665 36.25 23.7247 36.25 20.5107C36.2455 16.2024 34.5319 12.0718 31.4855 9.02528C28.439 5.9788 24.3084 4.26529 20 4.26074ZM21.875 28.0107H21.25V29.2607C21.25 29.5923 21.1183 29.9102 20.8839 30.1446C20.6495 30.379 20.3315 30.5107 20 30.5107C19.6685 30.5107 19.3505 30.379 19.1161 30.1446C18.8817 29.9102 18.75 29.5923 18.75 29.2607V28.0107H16.25C15.9185 28.0107 15.6005 27.879 15.3661 27.6446C15.1317 27.4102 15 27.0923 15 26.7607C15 26.4292 15.1317 26.1113 15.3661 25.8769C15.6005 25.6424 15.9185 25.5107 16.25 25.5107H21.875C22.3723 25.5107 22.8492 25.3132 23.2008 24.9616C23.5525 24.6099 23.75 24.133 23.75 23.6357C23.75 23.1385 23.5525 22.6615 23.2008 22.3099C22.8492 21.9583 22.3723 21.7607 21.875 21.7607H18.125C16.9647 21.7607 15.8519 21.2998 15.0314 20.4793C14.2109 19.6589 13.75 18.5461 13.75 17.3857C13.75 16.2254 14.2109 15.1126 15.0314 14.2922C15.8519 13.4717 16.9647 13.0107 18.125 13.0107H18.75V11.7607C18.75 11.4292 18.8817 11.1113 19.1161 10.8769C19.3505 10.6424 19.6685 10.5107 20 10.5107C20.3315 10.5107 20.6495 10.6424 20.8839 10.8769C21.1183 11.1113 21.25 11.4292 21.25 11.7607V13.0107H23.75C24.0815 13.0107 24.3995 13.1424 24.6339 13.3769C24.8683 13.6113 25 13.9292 25 14.2607C25 14.5923 24.8683 14.9102 24.6339 15.1446C24.3995 15.379 24.0815 15.5107 23.75 15.5107H18.125C17.6277 15.5107 17.1508 15.7083 16.7992 16.0599C16.4476 16.4115 16.25 16.8885 16.25 17.3857C16.25 17.883 16.4476 18.3599 16.7992 18.7116C17.1508 19.0632 17.6277 19.2607 18.125 19.2607H21.875C23.0353 19.2607 24.1481 19.7217 24.9686 20.5421C25.7891 21.3626 26.25 22.4754 26.25 23.6357C26.25 24.7961 25.7891 25.9089 24.9686 26.7293C24.1481 27.5498 23.0353 28.0107 21.875 28.0107Z" fill="#451AE2"/>
<path d="M20 4.26074C16.7861 4.26074 13.6443 5.21379 10.972 6.99936C8.29969 8.78493 6.21689 11.3228 4.98696 14.2921C3.75704 17.2614 3.43524 20.5288 4.06225 23.681C4.68926 26.8332 6.23692 29.7286 8.50952 32.0012C10.7821 34.2738 13.6776 35.8215 16.8298 36.4485C19.982 37.0755 23.2493 36.7537 26.2186 35.5238C29.1879 34.2939 31.7258 32.2111 33.5114 29.5388C35.297 26.8665 36.25 23.7247 36.25 20.5107C36.2455 16.2024 34.5319 12.0718 31.4855 9.02528C28.439 5.9788 24.3084 4.26529 20 4.26074ZM21.875 28.0107H21.25V29.2607C21.25 29.5923 21.1183 29.9102 20.8839 30.1446C20.6495 30.379 20.3315 30.5107 20 30.5107C19.6685 30.5107 19.3505 30.379 19.1161 30.1446C18.8817 29.9102 18.75 29.5923 18.75 29.2607V28.0107H16.25C15.9185 28.0107 15.6005 27.879 15.3661 27.6446C15.1317 27.4102 15 27.0923 15 26.7607C15 26.4292 15.1317 26.1113 15.3661 25.8769C15.6005 25.6424 15.9185 25.5107 16.25 25.5107H21.875C22.3723 25.5107 22.8492 25.3132 23.2008 24.9616C23.5525 24.6099 23.75 24.133 23.75 23.6357C23.75 23.1385 23.5525 22.6615 23.2008 22.3099C22.8492 21.9583 22.3723 21.7607 21.875 21.7607H18.125C16.9647 21.7607 15.8519 21.2998 15.0314 20.4793C14.2109 19.6589 13.75 18.5461 13.75 17.3857C13.75 16.2254 14.2109 15.1126 15.0314 14.2922C15.8519 13.4717 16.9647 13.0107 18.125 13.0107H18.75V11.7607C18.75 11.4292 18.8817 11.1113 19.1161 10.8769C19.3505 10.6424 19.6685 10.5107 20 10.5107C20.3315 10.5107 20.6495 10.6424 20.8839 10.8769C21.1183 11.1113 21.25 11.4292 21.25 11.7607V13.0107H23.75C24.0815 13.0107 24.3995 13.1424 24.6339 13.3769C24.8683 13.6113 25 13.9292 25 14.2607C25 14.5923 24.8683 14.9102 24.6339 15.1446C24.3995 15.379 24.0815 15.5107 23.75 15.5107H18.125C17.6277 15.5107 17.1508 15.7083 16.7992 16.0599C16.4476 16.4115 16.25 16.8885 16.25 17.3857C16.25 17.883 16.4476 18.3599 16.7992 18.7116C17.1508 19.0632 17.6277 19.2607 18.125 19.2607H21.875C23.0353 19.2607 24.1481 19.7217 24.9686 20.5421C25.7891 21.3626 26.25 22.4754 26.25 23.6357C26.25 24.7961 25.7891 25.9089 24.9686 26.7293C24.1481 27.5498 23.0353 28.0107 21.875 28.0107Z" fill="white" fill-opacity="0.2"/>
</svg>
