<svg width="40" height="41" viewBox="0 0 40 41" fill="none" xmlns="http://www.w3.org/2000/svg">
<path d="M21.25 11.2607V17.9889L26.9406 15.142C27.0875 15.0685 27.2475 15.0247 27.4113 15.0131C27.5752 15.0015 27.7397 15.0222 27.8955 15.0741C28.0514 15.1261 28.1954 15.2082 28.3195 15.3158C28.4436 15.4234 28.5453 15.5545 28.6188 15.7014C28.6922 15.8483 28.736 16.0082 28.7477 16.1721C28.7593 16.3359 28.7386 16.5005 28.6866 16.6563C28.6347 16.8121 28.5526 16.9562 28.4449 17.0803C28.3373 17.2044 28.2063 17.306 28.0594 17.3795L20.5594 21.1295C20.3687 21.2249 20.1569 21.27 19.9439 21.2604C19.7309 21.2508 19.524 21.1869 19.3426 21.0748C19.1613 20.9627 19.0117 20.8061 18.908 20.6199C18.8042 20.4336 18.7499 20.2239 18.75 20.0107V11.2607C18.75 10.9292 18.8817 10.6113 19.1161 10.3769C19.3505 10.1424 19.6685 10.0107 20 10.0107C20.3315 10.0107 20.6495 10.1424 20.8839 10.3769C21.1183 10.6113 21.25 10.9292 21.25 11.2607ZM20 33.7607C17.2805 33.7607 14.6221 32.9543 12.3609 31.4435C10.0997 29.9326 8.33737 27.7851 7.29666 25.2726C6.25596 22.7602 5.98366 19.9955 6.51421 17.3283C7.04476 14.661 8.35432 12.211 10.2773 10.288C12.2003 8.36506 14.6503 7.0555 17.3175 6.52495C19.9848 5.9944 22.7494 6.2667 25.2619 7.30741C27.7744 8.34811 29.9218 10.1105 31.4327 12.3717C32.9436 14.6328 33.75 17.2913 33.75 20.0107C33.75 20.3423 33.8817 20.6602 34.1161 20.8946C34.3505 21.1291 34.6685 21.2607 35 21.2607C35.3315 21.2607 35.6495 21.1291 35.8839 20.8946C36.1183 20.6602 36.25 20.3423 36.25 20.0107C36.25 16.7968 35.297 13.655 33.5114 10.9827C31.7258 8.31043 29.1879 6.22763 26.2186 4.99771C23.2493 3.76778 19.982 3.44598 16.8298 4.07299C13.6776 4.7 10.7821 6.24766 8.50952 8.52026C6.23692 10.7929 4.68926 13.6883 4.06225 16.8405C3.43524 19.9927 3.75704 23.2601 4.98696 26.2294C6.21689 29.1987 8.29969 31.7366 10.972 33.5221C13.6443 35.3077 16.7861 36.2607 20 36.2607C20.3315 36.2607 20.6495 36.1291 20.8839 35.8946C21.1183 35.6602 21.25 35.3423 21.25 35.0107C21.25 34.6792 21.1183 34.3613 20.8839 34.1269C20.6495 33.8924 20.3315 33.7607 20 33.7607ZM33.5344 31.0451C34.234 30.346 34.7105 29.4551 34.9037 28.4851C35.0969 27.5151 34.9981 26.5096 34.6197 25.5958C34.2414 24.6819 33.6005 23.9009 32.7782 23.3513C31.9559 22.8018 30.9891 22.5084 30 22.5084C29.011 22.5084 28.0441 22.8018 27.2218 23.3513C26.3995 23.9009 25.7586 24.6819 25.3803 25.5958C25.002 26.5096 24.9031 27.5151 25.0963 28.4851C25.2895 29.4551 25.766 30.346 26.4656 31.0451C25.1493 31.886 24.1955 33.1893 23.7922 34.6982C23.7446 34.8828 23.7397 35.0757 23.7781 35.2624C23.8165 35.449 23.897 35.6245 24.0135 35.7752C24.1301 35.926 24.2795 36.0481 24.4505 36.1323C24.6215 36.2164 24.8094 36.2604 25 36.2607H35C35.1916 36.2607 35.3806 36.2167 35.5525 36.132C35.7243 36.0473 35.8744 35.9243 35.9912 35.7724C36.1079 35.6204 36.1881 35.4437 36.2257 35.2559C36.2633 35.068 36.2572 34.874 36.2078 34.6889C35.8024 33.1833 34.8488 31.8837 33.5344 31.0451Z" fill="#451AE2"/>
<path d="M21.25 11.2607V17.9889L26.9406 15.142C27.0875 15.0685 27.2475 15.0247 27.4113 15.0131C27.5752 15.0015 27.7397 15.0222 27.8955 15.0741C28.0514 15.1261 28.1954 15.2082 28.3195 15.3158C28.4436 15.4234 28.5453 15.5545 28.6188 15.7014C28.6922 15.8483 28.736 16.0082 28.7477 16.1721C28.7593 16.3359 28.7386 16.5005 28.6866 16.6563C28.6347 16.8121 28.5526 16.9562 28.4449 17.0803C28.3373 17.2044 28.2063 17.306 28.0594 17.3795L20.5594 21.1295C20.3687 21.2249 20.1569 21.27 19.9439 21.2604C19.7309 21.2508 19.524 21.1869 19.3426 21.0748C19.1613 20.9627 19.0117 20.8061 18.908 20.6199C18.8042 20.4336 18.7499 20.2239 18.75 20.0107V11.2607C18.75 10.9292 18.8817 10.6113 19.1161 10.3769C19.3505 10.1424 19.6685 10.0107 20 10.0107C20.3315 10.0107 20.6495 10.1424 20.8839 10.3769C21.1183 10.6113 21.25 10.9292 21.25 11.2607ZM20 33.7607C17.2805 33.7607 14.6221 32.9543 12.3609 31.4435C10.0997 29.9326 8.33737 27.7851 7.29666 25.2726C6.25596 22.7602 5.98366 19.9955 6.51421 17.3283C7.04476 14.661 8.35432 12.211 10.2773 10.288C12.2003 8.36506 14.6503 7.0555 17.3175 6.52495C19.9848 5.9944 22.7494 6.2667 25.2619 7.30741C27.7744 8.34811 29.9218 10.1105 31.4327 12.3717C32.9436 14.6328 33.75 17.2913 33.75 20.0107C33.75 20.3423 33.8817 20.6602 34.1161 20.8946C34.3505 21.1291 34.6685 21.2607 35 21.2607C35.3315 21.2607 35.6495 21.1291 35.8839 20.8946C36.1183 20.6602 36.25 20.3423 36.25 20.0107C36.25 16.7968 35.297 13.655 33.5114 10.9827C31.7258 8.31043 29.1879 6.22763 26.2186 4.99771C23.2493 3.76778 19.982 3.44598 16.8298 4.07299C13.6776 4.7 10.7821 6.24766 8.50952 8.52026C6.23692 10.7929 4.68926 13.6883 4.06225 16.8405C3.43524 19.9927 3.75704 23.2601 4.98696 26.2294C6.21689 29.1987 8.29969 31.7366 10.972 33.5221C13.6443 35.3077 16.7861 36.2607 20 36.2607C20.3315 36.2607 20.6495 36.1291 20.8839 35.8946C21.1183 35.6602 21.25 35.3423 21.25 35.0107C21.25 34.6792 21.1183 34.3613 20.8839 34.1269C20.6495 33.8924 20.3315 33.7607 20 33.7607ZM33.5344 31.0451C34.234 30.346 34.7105 29.4551 34.9037 28.4851C35.0969 27.5151 34.9981 26.5096 34.6197 25.5958C34.2414 24.6819 33.6005 23.9009 32.7782 23.3513C31.9559 22.8018 30.9891 22.5084 30 22.5084C29.011 22.5084 28.0441 22.8018 27.2218 23.3513C26.3995 23.9009 25.7586 24.6819 25.3803 25.5958C25.002 26.5096 24.9031 27.5151 25.0963 28.4851C25.2895 29.4551 25.766 30.346 26.4656 31.0451C25.1493 31.886 24.1955 33.1893 23.7922 34.6982C23.7446 34.8828 23.7397 35.0757 23.7781 35.2624C23.8165 35.449 23.897 35.6245 24.0135 35.7752C24.1301 35.926 24.2795 36.0481 24.4505 36.1323C24.6215 36.2164 24.8094 36.2604 25 36.2607H35C35.1916 36.2607 35.3806 36.2167 35.5525 36.132C35.7243 36.0473 35.8744 35.9243 35.9912 35.7724C36.1079 35.6204 36.1881 35.4437 36.2257 35.2559C36.2633 35.068 36.2572 34.874 36.2078 34.6889C35.8024 33.1833 34.8488 31.8837 33.5344 31.0451Z" fill="white" fill-opacity="0.2"/>
</svg>
