<svg width="40" height="41" viewBox="0 0 40 41" fill="none" xmlns="http://www.w3.org/2000/svg">
<path d="M37.1779 17.2621C37.1431 17.0861 37.0708 16.9196 36.9659 16.774C36.8611 16.6284 36.7261 16.5071 36.5701 16.4184L31.9092 13.7621L31.8904 8.50899C31.8899 8.32807 31.85 8.14943 31.7737 7.98541C31.6973 7.8214 31.5863 7.6759 31.4482 7.55899C29.7575 6.12883 27.8105 5.03284 25.7107 4.3293C25.5454 4.27333 25.3701 4.25262 25.1963 4.2685C25.0224 4.28437 24.8539 4.33649 24.7014 4.42149L19.9998 7.04961L15.2936 4.4168C15.141 4.33132 14.9722 4.27881 14.798 4.26266C14.6239 4.24652 14.4483 4.26709 14.2826 4.32305C12.1841 5.03111 10.2392 6.13134 8.55137 7.56524C8.41351 7.68198 8.30259 7.82722 8.22625 7.99096C8.14992 8.15469 8.10998 8.33302 8.10918 8.51367L8.08575 13.7715L3.42481 16.4277C3.26887 16.5165 3.13388 16.6378 3.029 16.7834C2.92412 16.929 2.85181 17.0955 2.817 17.2715C2.39043 19.4151 2.39043 21.6217 2.817 23.7652C2.85181 23.9413 2.92412 24.1077 3.029 24.2533C3.13388 24.3989 3.26887 24.5202 3.42481 24.609L8.08575 27.2652L8.1045 32.5199C8.10506 32.7008 8.14489 32.8795 8.22124 33.0435C8.29758 33.2075 8.40862 33.353 8.54668 33.4699C10.2374 34.9001 12.1844 35.9961 14.2842 36.6996C14.4495 36.7556 14.6248 36.7763 14.7986 36.7604C14.9725 36.7445 15.1411 36.6924 15.2936 36.6074L19.9998 33.9715L24.7061 36.6043C24.8923 36.7081 25.1022 36.7619 25.3154 36.7605C25.452 36.7605 25.5876 36.7383 25.717 36.6949C27.815 35.9872 29.7597 34.8881 31.4482 33.4559C31.5861 33.3391 31.697 33.1939 31.7734 33.0301C31.8497 32.8664 31.8896 32.6881 31.8904 32.5074L31.9139 27.2496L36.5748 24.5934C36.7307 24.5046 36.8657 24.3833 36.9706 24.2377C37.0755 24.0921 37.1478 23.9256 37.1826 23.7496C37.6068 21.6078 37.6052 19.4033 37.1779 17.2621ZM19.9998 26.7605C18.7637 26.7605 17.5553 26.394 16.5275 25.7072C15.4997 25.0205 14.6986 24.0444 14.2256 22.9023C13.7525 21.7603 13.6287 20.5036 13.8699 19.2912C14.1111 18.0789 14.7063 16.9652 15.5804 16.0911C16.4545 15.2171 17.5681 14.6218 18.7805 14.3806C19.9929 14.1395 21.2495 14.2633 22.3916 14.7363C23.5336 15.2093 24.5097 16.0104 25.1965 17.0382C25.8833 18.066 26.2498 19.2744 26.2498 20.5105C26.2498 22.1682 25.5913 23.7579 24.4192 24.93C23.2471 26.1021 21.6574 26.7605 19.9998 26.7605Z" fill="#451AE2"/>
<path d="M37.1779 17.2621C37.1431 17.0861 37.0708 16.9196 36.9659 16.774C36.8611 16.6284 36.7261 16.5071 36.5701 16.4184L31.9092 13.7621L31.8904 8.50899C31.8899 8.32807 31.85 8.14943 31.7737 7.98541C31.6973 7.8214 31.5863 7.6759 31.4482 7.55899C29.7575 6.12883 27.8105 5.03284 25.7107 4.3293C25.5454 4.27333 25.3701 4.25262 25.1963 4.2685C25.0224 4.28437 24.8539 4.33649 24.7014 4.42149L19.9998 7.04961L15.2936 4.4168C15.141 4.33132 14.9722 4.27881 14.798 4.26266C14.6239 4.24652 14.4483 4.26709 14.2826 4.32305C12.1841 5.03111 10.2392 6.13134 8.55137 7.56524C8.41351 7.68198 8.30259 7.82722 8.22625 7.99096C8.14992 8.15469 8.10998 8.33302 8.10918 8.51367L8.08575 13.7715L3.42481 16.4277C3.26887 16.5165 3.13388 16.6378 3.029 16.7834C2.92412 16.929 2.85181 17.0955 2.817 17.2715C2.39043 19.4151 2.39043 21.6217 2.817 23.7652C2.85181 23.9413 2.92412 24.1077 3.029 24.2533C3.13388 24.3989 3.26887 24.5202 3.42481 24.609L8.08575 27.2652L8.1045 32.5199C8.10506 32.7008 8.14489 32.8795 8.22124 33.0435C8.29758 33.2075 8.40862 33.353 8.54668 33.4699C10.2374 34.9001 12.1844 35.9961 14.2842 36.6996C14.4495 36.7556 14.6248 36.7763 14.7986 36.7604C14.9725 36.7445 15.1411 36.6924 15.2936 36.6074L19.9998 33.9715L24.7061 36.6043C24.8923 36.7081 25.1022 36.7619 25.3154 36.7605C25.452 36.7605 25.5876 36.7383 25.717 36.6949C27.815 35.9872 29.7597 34.8881 31.4482 33.4559C31.5861 33.3391 31.697 33.1939 31.7734 33.0301C31.8497 32.8664 31.8896 32.6881 31.8904 32.5074L31.9139 27.2496L36.5748 24.5934C36.7307 24.5046 36.8657 24.3833 36.9706 24.2377C37.0755 24.0921 37.1478 23.9256 37.1826 23.7496C37.6068 21.6078 37.6052 19.4033 37.1779 17.2621ZM19.9998 26.7605C18.7637 26.7605 17.5553 26.394 16.5275 25.7072C15.4997 25.0205 14.6986 24.0444 14.2256 22.9023C13.7525 21.7603 13.6287 20.5036 13.8699 19.2912C14.1111 18.0789 14.7063 16.9652 15.5804 16.0911C16.4545 15.2171 17.5681 14.6218 18.7805 14.3806C19.9929 14.1395 21.2495 14.2633 22.3916 14.7363C23.5336 15.2093 24.5097 16.0104 25.1965 17.0382C25.8833 18.066 26.2498 19.2744 26.2498 20.5105C26.2498 22.1682 25.5913 23.7579 24.4192 24.93C23.2471 26.1021 21.6574 26.7605 19.9998 26.7605Z" fill="white" fill-opacity="0.2"/>
</svg>
