<svg width="40" height="41" viewBox="0 0 40 41" fill="none" xmlns="http://www.w3.org/2000/svg">
<path d="M20 4.26074C16.7861 4.26074 13.6443 5.21379 10.972 6.99936C8.29969 8.78493 6.21689 11.3228 4.98696 14.2921C3.75704 17.2614 3.43524 20.5288 4.06225 23.681C4.68926 26.8332 6.23692 29.7286 8.50952 32.0012C10.7821 34.2738 13.6776 35.8215 16.8298 36.4485C19.982 37.0755 23.2493 36.7537 26.2186 35.5238C29.1879 34.2939 31.7258 32.2111 33.5114 29.5388C35.297 26.8665 36.25 23.7247 36.25 20.5107C36.245 16.2025 34.5314 12.0721 31.485 9.02574C28.4386 5.97935 24.3083 4.2657 20 4.26074ZM32.2438 14.2607H26.6734C25.972 11.6872 24.7897 9.26961 23.1891 7.13574C25.123 7.60032 26.9336 8.47758 28.4967 9.70739C30.0599 10.9372 31.3386 12.4905 32.2453 14.2607H32.2438ZM33.75 20.5107C33.7511 21.7788 33.576 23.0409 33.2297 24.2607H27.2125C27.5958 21.7754 27.5958 19.246 27.2125 16.7607H33.2297C33.576 17.9806 33.7511 19.2427 33.75 20.5107ZM20 7.22949C21.8718 9.23343 23.2612 11.6383 24.0625 14.2607H15.9375C16.738 11.6379 18.1275 9.2329 20 7.22949ZM15.9375 26.7607H24.0625C23.2621 29.3835 21.8725 31.7886 20 33.792C18.1283 31.7881 16.7388 29.3832 15.9375 26.7607ZM15.3281 24.2607C14.899 21.7792 14.899 19.2423 15.3281 16.7607H24.6844C25.1135 19.2423 25.1135 21.7792 24.6844 24.2607H15.3281ZM23.1953 33.8857C24.7959 31.7519 25.9782 29.3343 26.6797 26.7607H32.2516C31.3442 28.5317 30.0645 30.0854 28.5002 31.3152C26.936 32.5451 25.1241 33.422 23.1891 33.8857H23.1953Z" fill="#451AE2"/>
<path d="M20 4.26074C16.7861 4.26074 13.6443 5.21379 10.972 6.99936C8.29969 8.78493 6.21689 11.3228 4.98696 14.2921C3.75704 17.2614 3.43524 20.5288 4.06225 23.681C4.68926 26.8332 6.23692 29.7286 8.50952 32.0012C10.7821 34.2738 13.6776 35.8215 16.8298 36.4485C19.982 37.0755 23.2493 36.7537 26.2186 35.5238C29.1879 34.2939 31.7258 32.2111 33.5114 29.5388C35.297 26.8665 36.25 23.7247 36.25 20.5107C36.245 16.2025 34.5314 12.0721 31.485 9.02574C28.4386 5.97935 24.3083 4.2657 20 4.26074ZM32.2438 14.2607H26.6734C25.972 11.6872 24.7897 9.26961 23.1891 7.13574C25.123 7.60032 26.9336 8.47758 28.4967 9.70739C30.0599 10.9372 31.3386 12.4905 32.2453 14.2607H32.2438ZM33.75 20.5107C33.7511 21.7788 33.576 23.0409 33.2297 24.2607H27.2125C27.5958 21.7754 27.5958 19.246 27.2125 16.7607H33.2297C33.576 17.9806 33.7511 19.2427 33.75 20.5107ZM20 7.22949C21.8718 9.23343 23.2612 11.6383 24.0625 14.2607H15.9375C16.738 11.6379 18.1275 9.2329 20 7.22949ZM15.9375 26.7607H24.0625C23.2621 29.3835 21.8725 31.7886 20 33.792C18.1283 31.7881 16.7388 29.3832 15.9375 26.7607ZM15.3281 24.2607C14.899 21.7792 14.899 19.2423 15.3281 16.7607H24.6844C25.1135 19.2423 25.1135 21.7792 24.6844 24.2607H15.3281ZM23.1953 33.8857C24.7959 31.7519 25.9782 29.3343 26.6797 26.7607H32.2516C31.3442 28.5317 30.0645 30.0854 28.5002 31.3152C26.936 32.5451 25.1241 33.422 23.1891 33.8857H23.1953Z" fill="white" fill-opacity="0.2"/>
</svg>
