<svg width="40" height="41" viewBox="0 0 40 41" fill="none" xmlns="http://www.w3.org/2000/svg">
<path d="M33.4142 19.6138L15.9142 38.3638C15.7288 38.5617 15.484 38.6939 15.2168 38.7405C14.9496 38.7871 14.6745 38.7455 14.433 38.622C14.1915 38.4985 13.9967 38.2999 13.8781 38.056C13.7594 37.8121 13.7233 37.5362 13.7751 37.27L16.0658 25.8122L7.06109 22.4309C6.8677 22.3586 6.69524 22.2395 6.55912 22.0842C6.423 21.929 6.32746 21.7424 6.28103 21.5412C6.23461 21.3401 6.23874 21.1305 6.29306 20.9313C6.34738 20.7321 6.4502 20.5495 6.59234 20.3997L24.0923 1.6497C24.2778 1.45178 24.5226 1.31956 24.7898 1.27297C25.057 1.22639 25.3321 1.26797 25.5735 1.39145C25.815 1.51492 26.0098 1.7136 26.1285 1.95748C26.2471 2.20136 26.2833 2.47723 26.2314 2.74345L23.9345 14.2138L32.9392 17.5903C33.1312 17.6631 33.3022 17.7821 33.4373 17.9368C33.5724 18.0914 33.6673 18.2769 33.7136 18.4769C33.7599 18.677 33.7563 18.8853 33.703 19.0836C33.6497 19.2819 33.5483 19.4639 33.408 19.6138H33.4142Z" fill="#451AE2"/>
<path d="M33.4142 19.6138L15.9142 38.3638C15.7288 38.5617 15.484 38.6939 15.2168 38.7405C14.9496 38.7871 14.6745 38.7455 14.433 38.622C14.1915 38.4985 13.9967 38.2999 13.8781 38.056C13.7594 37.8121 13.7233 37.5362 13.7751 37.27L16.0658 25.8122L7.06109 22.4309C6.8677 22.3586 6.69524 22.2395 6.55912 22.0842C6.423 21.929 6.32746 21.7424 6.28103 21.5412C6.23461 21.3401 6.23874 21.1305 6.29306 20.9313C6.34738 20.7321 6.4502 20.5495 6.59234 20.3997L24.0923 1.6497C24.2778 1.45178 24.5226 1.31956 24.7898 1.27297C25.057 1.22639 25.3321 1.26797 25.5735 1.39145C25.815 1.51492 26.0098 1.7136 26.1285 1.95748C26.2471 2.20136 26.2833 2.47723 26.2314 2.74345L23.9345 14.2138L32.9392 17.5903C33.1312 17.6631 33.3022 17.7821 33.4373 17.9368C33.5724 18.0914 33.6673 18.2769 33.7136 18.4769C33.7599 18.677 33.7563 18.8853 33.703 19.0836C33.6497 19.2819 33.5483 19.4639 33.408 19.6138H33.4142Z" fill="white" fill-opacity="0.2"/>
</svg>
