<svg width="40" height="41" viewBox="0 0 40 41" fill="none" xmlns="http://www.w3.org/2000/svg">
<path d="M32.5 6.76074H7.5C6.83696 6.76074 6.20107 7.02413 5.73223 7.49298C5.26339 7.96182 5 8.5977 5 9.26074V18.0107C5 26.2482 8.9875 31.2404 12.3328 33.9779C15.9359 36.9248 19.5203 37.9248 19.6766 37.967C19.8914 38.0254 20.118 38.0254 20.3328 37.967C20.4891 37.9248 24.0688 36.9248 27.6766 33.9779C31.0125 31.2404 35 26.2482 35 18.0107V9.26074C35 8.5977 34.7366 7.96182 34.2678 7.49298C33.7989 7.02413 33.163 6.76074 32.5 6.76074ZM27.1375 17.6451L18.3875 26.3951C18.2714 26.5113 18.1335 26.6035 17.9818 26.6664C17.8301 26.7293 17.6674 26.7617 17.5031 26.7617C17.3389 26.7617 17.1762 26.7293 17.0244 26.6664C16.8727 26.6035 16.7348 26.5113 16.6188 26.3951L12.8688 22.6451C12.6342 22.4106 12.5024 22.0924 12.5024 21.7607C12.5024 21.429 12.6342 21.1109 12.8688 20.8764C13.1033 20.6418 13.4214 20.51 13.7531 20.51C14.0848 20.51 14.4029 20.6418 14.6375 20.8764L17.5 23.7436L25.3656 15.8764C25.4818 15.7602 25.6196 15.6681 25.7714 15.6052C25.9231 15.5424 26.0858 15.51 26.25 15.51C26.4142 15.51 26.5769 15.5424 26.7286 15.6052C26.8804 15.6681 27.0182 15.7602 27.1344 15.8764C27.2505 15.9925 27.3426 16.1304 27.4055 16.2821C27.4683 16.4339 27.5007 16.5965 27.5007 16.7607C27.5007 16.925 27.4683 17.0876 27.4055 17.2394C27.3426 17.3911 27.2505 17.529 27.1344 17.6451H27.1375Z" fill="#451AE2"/>
<path d="M32.5 6.76074H7.5C6.83696 6.76074 6.20107 7.02413 5.73223 7.49298C5.26339 7.96182 5 8.5977 5 9.26074V18.0107C5 26.2482 8.9875 31.2404 12.3328 33.9779C15.9359 36.9248 19.5203 37.9248 19.6766 37.967C19.8914 38.0254 20.118 38.0254 20.3328 37.967C20.4891 37.9248 24.0688 36.9248 27.6766 33.9779C31.0125 31.2404 35 26.2482 35 18.0107V9.26074C35 8.5977 34.7366 7.96182 34.2678 7.49298C33.7989 7.02413 33.163 6.76074 32.5 6.76074ZM27.1375 17.6451L18.3875 26.3951C18.2714 26.5113 18.1335 26.6035 17.9818 26.6664C17.8301 26.7293 17.6674 26.7617 17.5031 26.7617C17.3389 26.7617 17.1762 26.7293 17.0244 26.6664C16.8727 26.6035 16.7348 26.5113 16.6188 26.3951L12.8688 22.6451C12.6342 22.4106 12.5024 22.0924 12.5024 21.7607C12.5024 21.429 12.6342 21.1109 12.8688 20.8764C13.1033 20.6418 13.4214 20.51 13.7531 20.51C14.0848 20.51 14.4029 20.6418 14.6375 20.8764L17.5 23.7436L25.3656 15.8764C25.4818 15.7602 25.6196 15.6681 25.7714 15.6052C25.9231 15.5424 26.0858 15.51 26.25 15.51C26.4142 15.51 26.5769 15.5424 26.7286 15.6052C26.8804 15.6681 27.0182 15.7602 27.1344 15.8764C27.2505 15.9925 27.3426 16.1304 27.4055 16.2821C27.4683 16.4339 27.5007 16.5965 27.5007 16.7607C27.5007 16.925 27.4683 17.0876 27.4055 17.2394C27.3426 17.3911 27.2505 17.529 27.1344 17.6451H27.1375Z" fill="white" fill-opacity="0.2"/>
</svg>
