<svg width="40" height="41" viewBox="0 0 40 41" fill="none" xmlns="http://www.w3.org/2000/svg">
    <path
        d="M26.25 18.0109C26.25 19.7414 25.7369 21.4332 24.7754 22.8721C23.8139 24.311 22.4474 25.4325 20.8485 26.0948C19.2497 26.7571 17.4903 26.9303 15.793 26.5927C14.0957 26.2551 12.5366 25.4217 11.3129 24.198C10.0892 22.9743 9.2558 21.4152 8.91818 19.7179C8.58056 18.0206 8.75384 16.2612 9.4161 14.6624C10.0784 13.0635 11.1999 11.697 12.6388 10.7355C14.0777 9.77403 15.7695 9.26085 17.5 9.26085C19.8207 9.26085 22.0463 10.1827 23.6872 11.8237C25.3282 13.4646 26.25 15.6902 26.25 18.0109ZM35.8844 36.3952C35.7683 36.5114 35.6305 36.6036 35.4787 36.6666C35.327 36.7295 35.1643 36.7618 35 36.7618C34.8358 36.7618 34.6731 36.7295 34.5214 36.6666C34.3696 36.6036 34.2318 36.5114 34.1157 36.3952L26.2938 28.5718C23.5737 30.8348 20.0858 31.962 16.5558 31.719C13.0257 31.476 9.72523 29.8815 7.34081 27.2672C4.95639 24.6528 3.67161 21.2199 3.75371 17.6825C3.8358 14.145 5.27845 10.7754 7.78158 8.27446C10.2847 5.77354 13.6556 4.33386 17.1931 4.25489C20.7307 4.17592 24.1624 5.46374 26.7747 7.85047C29.3869 10.2372 30.9785 13.5391 31.2184 17.0694C31.4582 20.5996 30.3279 24.0865 28.0625 26.8046L35.8844 34.6265C36.0006 34.7426 36.0928 34.8804 36.1557 35.0322C36.2187 35.1839 36.251 35.3466 36.251 35.5109C36.251 35.6751 36.2187 35.8378 36.1557 35.9895C36.0928 36.1413 36.0006 36.2791 35.8844 36.3952ZM17.5 29.2609C19.7251 29.2609 21.9002 28.6011 23.7502 27.3649C25.6003 26.1287 27.0422 24.3717 27.8937 22.316C28.7452 20.2604 28.968 17.9984 28.5339 15.8161C28.0998 13.6338 27.0283 11.6292 25.455 10.0559C23.8817 8.48256 21.8771 7.4111 19.6948 6.97702C17.5125 6.54293 15.2505 6.76572 13.1949 7.61721C11.1392 8.46869 9.38218 9.91063 8.14602 11.7607C6.90985 13.6107 6.25005 15.7858 6.25005 18.0109C6.25336 20.9935 7.43968 23.8531 9.54875 25.9621C11.6578 28.0712 14.5174 29.2575 17.5 29.2609Z"
        fill="#451AE2" />
    <path
        d="M26.25 18.0109C26.25 19.7414 25.7369 21.4332 24.7754 22.8721C23.8139 24.311 22.4474 25.4325 20.8485 26.0948C19.2497 26.7571 17.4903 26.9303 15.793 26.5927C14.0957 26.2551 12.5366 25.4217 11.3129 24.198C10.0892 22.9743 9.2558 21.4152 8.91818 19.7179C8.58056 18.0206 8.75384 16.2612 9.4161 14.6624C10.0784 13.0635 11.1999 11.697 12.6388 10.7355C14.0777 9.77403 15.7695 9.26085 17.5 9.26085C19.8207 9.26085 22.0463 10.1827 23.6872 11.8237C25.3282 13.4646 26.25 15.6902 26.25 18.0109ZM35.8844 36.3952C35.7683 36.5114 35.6305 36.6036 35.4787 36.6666C35.327 36.7295 35.1643 36.7618 35 36.7618C34.8358 36.7618 34.6731 36.7295 34.5214 36.6666C34.3696 36.6036 34.2318 36.5114 34.1157 36.3952L26.2938 28.5718C23.5737 30.8348 20.0858 31.962 16.5558 31.719C13.0257 31.476 9.72523 29.8815 7.34081 27.2672C4.95639 24.6528 3.67161 21.2199 3.75371 17.6825C3.8358 14.145 5.27845 10.7754 7.78158 8.27446C10.2847 5.77354 13.6556 4.33386 17.1931 4.25489C20.7307 4.17592 24.1624 5.46374 26.7747 7.85047C29.3869 10.2372 30.9785 13.5391 31.2184 17.0694C31.4582 20.5996 30.3279 24.0865 28.0625 26.8046L35.8844 34.6265C36.0006 34.7426 36.0928 34.8804 36.1557 35.0322C36.2187 35.1839 36.251 35.3466 36.251 35.5109C36.251 35.6751 36.2187 35.8378 36.1557 35.9895C36.0928 36.1413 36.0006 36.2791 35.8844 36.3952ZM17.5 29.2609C19.7251 29.2609 21.9002 28.6011 23.7502 27.3649C25.6003 26.1287 27.0422 24.3717 27.8937 22.316C28.7452 20.2604 28.968 17.9984 28.5339 15.8161C28.0998 13.6338 27.0283 11.6292 25.455 10.0559C23.8817 8.48256 21.8771 7.4111 19.6948 6.97702C17.5125 6.54293 15.2505 6.76572 13.1949 7.61721C11.1392 8.46869 9.38218 9.91063 8.14602 11.7607C6.90985 13.6107 6.25005 15.7858 6.25005 18.0109C6.25336 20.9935 7.43968 23.8531 9.54875 25.9621C11.6578 28.0712 14.5174 29.2575 17.5 29.2609Z"
        fill="white" fill-opacity="0.2" />
</svg>