<svg width="41" height="41" viewBox="0 0 41 41" fill="none" xmlns="http://www.w3.org/2000/svg">
<path d="M38.0779 21.292L33.0779 8.79199C32.9844 8.56083 32.8239 8.36291 32.617 8.22369C32.4102 8.08447 32.1664 8.01031 31.917 8.01074C31.826 8.01213 31.7354 8.02313 31.6467 8.04355L21.917 10.1982V6.76074C21.917 6.42922 21.7853 6.11128 21.5509 5.87686C21.3165 5.64244 20.9985 5.51074 20.667 5.51074C20.3355 5.51074 20.0176 5.64244 19.7831 5.87686C19.5487 6.11128 19.417 6.42922 19.417 6.76074V10.7576L9.1467 13.0436C8.9487 13.0868 8.76417 13.1775 8.60902 13.3078C8.45386 13.4382 8.33274 13.6044 8.25608 13.792L3.25608 26.292C3.19626 26.441 3.16602 26.6002 3.16702 26.7607C3.16702 30.4029 7.00139 31.7607 9.41702 31.7607C11.8326 31.7607 15.667 30.4029 15.667 26.7607C15.668 26.6002 15.6378 26.441 15.578 26.292L11.1233 15.1623L19.417 13.3232V33.0107H16.917C16.5855 33.0107 16.2676 33.1424 16.0331 33.3769C15.7987 33.6113 15.667 33.9292 15.667 34.2607C15.667 34.5923 15.7987 34.9102 16.0331 35.1446C16.2676 35.379 16.5855 35.5107 16.917 35.5107H24.417C24.7485 35.5107 25.0665 35.379 25.3009 35.1446C25.5353 34.9102 25.667 34.5923 25.667 34.2607C25.667 33.9292 25.5353 33.6113 25.3009 33.3769C25.0665 33.1424 24.7485 33.0107 24.417 33.0107H21.917V12.7639L29.8858 10.9951L25.7561 21.292C25.6963 21.441 25.666 21.6002 25.667 21.7607C25.667 25.4029 29.5014 26.7607 31.917 26.7607C34.3326 26.7607 38.167 25.4029 38.167 21.7607C38.168 21.6002 38.1378 21.441 38.0779 21.292ZM13.078 26.7607H5.76389L9.41702 17.6264L13.078 26.7607ZM28.2717 21.7607L31.917 12.6264L35.5701 21.7607H28.2717Z" fill="#451AE2"/>
<path d="M38.0779 21.292L33.0779 8.79199C32.9844 8.56083 32.8239 8.36291 32.617 8.22369C32.4102 8.08447 32.1664 8.01031 31.917 8.01074C31.826 8.01213 31.7354 8.02313 31.6467 8.04355L21.917 10.1982V6.76074C21.917 6.42922 21.7853 6.11128 21.5509 5.87686C21.3165 5.64244 20.9985 5.51074 20.667 5.51074C20.3355 5.51074 20.0176 5.64244 19.7831 5.87686C19.5487 6.11128 19.417 6.42922 19.417 6.76074V10.7576L9.1467 13.0436C8.9487 13.0868 8.76417 13.1775 8.60902 13.3078C8.45386 13.4382 8.33274 13.6044 8.25608 13.792L3.25608 26.292C3.19626 26.441 3.16602 26.6002 3.16702 26.7607C3.16702 30.4029 7.00139 31.7607 9.41702 31.7607C11.8326 31.7607 15.667 30.4029 15.667 26.7607C15.668 26.6002 15.6378 26.441 15.578 26.292L11.1233 15.1623L19.417 13.3232V33.0107H16.917C16.5855 33.0107 16.2676 33.1424 16.0331 33.3769C15.7987 33.6113 15.667 33.9292 15.667 34.2607C15.667 34.5923 15.7987 34.9102 16.0331 35.1446C16.2676 35.379 16.5855 35.5107 16.917 35.5107H24.417C24.7485 35.5107 25.0665 35.379 25.3009 35.1446C25.5353 34.9102 25.667 34.5923 25.667 34.2607C25.667 33.9292 25.5353 33.6113 25.3009 33.3769C25.0665 33.1424 24.7485 33.0107 24.417 33.0107H21.917V12.7639L29.8858 10.9951L25.7561 21.292C25.6963 21.441 25.666 21.6002 25.667 21.7607C25.667 25.4029 29.5014 26.7607 31.917 26.7607C34.3326 26.7607 38.167 25.4029 38.167 21.7607C38.168 21.6002 38.1378 21.441 38.0779 21.292ZM13.078 26.7607H5.76389L9.41702 17.6264L13.078 26.7607ZM28.2717 21.7607L31.917 12.6264L35.5701 21.7607H28.2717Z" fill="white" fill-opacity="0.2"/>
</svg>
