<svg width="41" height="41" viewBox="0 0 41 41" fill="none" xmlns="http://www.w3.org/2000/svg">
<path d="M20.333 4.26074C17.1191 4.26074 13.9773 5.21379 11.305 6.99936C8.6327 8.78493 6.5499 11.3228 5.31997 14.2921C4.09005 17.2614 3.76824 20.5288 4.39525 23.681C5.02226 26.8332 6.56993 29.7286 8.84253 32.0012C11.1151 34.2738 14.0106 35.8215 17.1628 36.4485C20.315 37.0755 23.5823 36.7537 26.5516 35.5238C29.5209 34.2939 32.0588 32.2111 33.8444 29.5388C35.63 26.8665 36.583 23.7247 36.583 20.5107C36.5785 16.2024 34.865 12.0718 31.8185 9.02528C28.772 5.9788 24.6414 4.26529 20.333 4.26074ZM22.208 28.0107H21.583V29.2607C21.583 29.5923 21.4513 29.9102 21.2169 30.1446C20.9825 30.379 20.6645 30.5107 20.333 30.5107C20.0015 30.5107 19.6836 30.379 19.4491 30.1446C19.2147 29.9102 19.083 29.5923 19.083 29.2607V28.0107H16.583C16.2515 28.0107 15.9336 27.879 15.6991 27.6446C15.4647 27.4102 15.333 27.0923 15.333 26.7607C15.333 26.4292 15.4647 26.1113 15.6991 25.8769C15.9336 25.6424 16.2515 25.5107 16.583 25.5107H22.208C22.7053 25.5107 23.1822 25.3132 23.5338 24.9616C23.8855 24.6099 24.083 24.133 24.083 23.6357C24.083 23.1385 23.8855 22.6615 23.5338 22.3099C23.1822 21.9583 22.7053 21.7607 22.208 21.7607H18.458C17.2977 21.7607 16.1849 21.2998 15.3644 20.4793C14.544 19.6589 14.083 18.5461 14.083 17.3857C14.083 16.2254 14.544 15.1126 15.3644 14.2922C16.1849 13.4717 17.2977 13.0107 18.458 13.0107H19.083V11.7607C19.083 11.4292 19.2147 11.1113 19.4491 10.8769C19.6836 10.6424 20.0015 10.5107 20.333 10.5107C20.6645 10.5107 20.9825 10.6424 21.2169 10.8769C21.4513 11.1113 21.583 11.4292 21.583 11.7607V13.0107H24.083C24.4145 13.0107 24.7325 13.1424 24.9669 13.3769C25.2013 13.6113 25.333 13.9292 25.333 14.2607C25.333 14.5923 25.2013 14.9102 24.9669 15.1446C24.7325 15.379 24.4145 15.5107 24.083 15.5107H18.458C17.9607 15.5107 17.4838 15.7083 17.1322 16.0599C16.7806 16.4115 16.583 16.8885 16.583 17.3857C16.583 17.883 16.7806 18.3599 17.1322 18.7116C17.4838 19.0632 17.9607 19.2607 18.458 19.2607H22.208C23.3683 19.2607 24.4811 19.7217 25.3016 20.5421C26.1221 21.3626 26.583 22.4754 26.583 23.6357C26.583 24.7961 26.1221 25.9089 25.3016 26.7293C24.4811 27.5498 23.3683 28.0107 22.208 28.0107Z" fill="#451AE2"/>
<path d="M20.333 4.26074C17.1191 4.26074 13.9773 5.21379 11.305 6.99936C8.6327 8.78493 6.5499 11.3228 5.31997 14.2921C4.09005 17.2614 3.76824 20.5288 4.39525 23.681C5.02226 26.8332 6.56993 29.7286 8.84253 32.0012C11.1151 34.2738 14.0106 35.8215 17.1628 36.4485C20.315 37.0755 23.5823 36.7537 26.5516 35.5238C29.5209 34.2939 32.0588 32.2111 33.8444 29.5388C35.63 26.8665 36.583 23.7247 36.583 20.5107C36.5785 16.2024 34.865 12.0718 31.8185 9.02528C28.772 5.9788 24.6414 4.26529 20.333 4.26074ZM22.208 28.0107H21.583V29.2607C21.583 29.5923 21.4513 29.9102 21.2169 30.1446C20.9825 30.379 20.6645 30.5107 20.333 30.5107C20.0015 30.5107 19.6836 30.379 19.4491 30.1446C19.2147 29.9102 19.083 29.5923 19.083 29.2607V28.0107H16.583C16.2515 28.0107 15.9336 27.879 15.6991 27.6446C15.4647 27.4102 15.333 27.0923 15.333 26.7607C15.333 26.4292 15.4647 26.1113 15.6991 25.8769C15.9336 25.6424 16.2515 25.5107 16.583 25.5107H22.208C22.7053 25.5107 23.1822 25.3132 23.5338 24.9616C23.8855 24.6099 24.083 24.133 24.083 23.6357C24.083 23.1385 23.8855 22.6615 23.5338 22.3099C23.1822 21.9583 22.7053 21.7607 22.208 21.7607H18.458C17.2977 21.7607 16.1849 21.2998 15.3644 20.4793C14.544 19.6589 14.083 18.5461 14.083 17.3857C14.083 16.2254 14.544 15.1126 15.3644 14.2922C16.1849 13.4717 17.2977 13.0107 18.458 13.0107H19.083V11.7607C19.083 11.4292 19.2147 11.1113 19.4491 10.8769C19.6836 10.6424 20.0015 10.5107 20.333 10.5107C20.6645 10.5107 20.9825 10.6424 21.2169 10.8769C21.4513 11.1113 21.583 11.4292 21.583 11.7607V13.0107H24.083C24.4145 13.0107 24.7325 13.1424 24.9669 13.3769C25.2013 13.6113 25.333 13.9292 25.333 14.2607C25.333 14.5923 25.2013 14.9102 24.9669 15.1446C24.7325 15.379 24.4145 15.5107 24.083 15.5107H18.458C17.9607 15.5107 17.4838 15.7083 17.1322 16.0599C16.7806 16.4115 16.583 16.8885 16.583 17.3857C16.583 17.883 16.7806 18.3599 17.1322 18.7116C17.4838 19.0632 17.9607 19.2607 18.458 19.2607H22.208C23.3683 19.2607 24.4811 19.7217 25.3016 20.5421C26.1221 21.3626 26.583 22.4754 26.583 23.6357C26.583 24.7961 26.1221 25.9089 25.3016 26.7293C24.4811 27.5498 23.3683 28.0107 22.208 28.0107Z" fill="white" fill-opacity="0.2"/>
</svg>
