<svg width="40" height="41" viewBox="0 0 40 41" fill="none" xmlns="http://www.w3.org/2000/svg">
<path d="M36.25 35.0107H32.5V5.01074H33.75C34.0815 5.01074 34.3995 4.87905 34.6339 4.64463C34.8683 4.41021 35 4.09226 35 3.76074C35 3.42922 34.8683 3.11128 34.6339 2.87686C34.3995 2.64244 34.0815 2.51074 33.75 2.51074H6.25C5.91848 2.51074 5.60054 2.64244 5.36612 2.87686C5.1317 3.11128 5 3.42922 5 3.76074C5 4.09226 5.1317 4.41021 5.36612 4.64463C5.60054 4.87905 5.91848 5.01074 6.25 5.01074H7.5V35.0107H3.75C3.41848 35.0107 3.10054 35.1424 2.86612 35.3769C2.6317 35.6113 2.5 35.9292 2.5 36.2607C2.5 36.5923 2.6317 36.9102 2.86612 37.1446C3.10054 37.379 3.41848 37.5107 3.75 37.5107H36.25C36.5815 37.5107 36.8995 37.379 37.1339 37.1446C37.3683 36.9102 37.5 36.5923 37.5 36.2607C37.5 35.9292 37.3683 35.6113 37.1339 35.3769C36.8995 35.1424 36.5815 35.0107 36.25 35.0107ZM13.75 8.76074H17.5C17.8315 8.76074 18.1495 8.89244 18.3839 9.12686C18.6183 9.36128 18.75 9.67922 18.75 10.0107C18.75 10.3423 18.6183 10.6602 18.3839 10.8946C18.1495 11.129 17.8315 11.2607 17.5 11.2607H13.75C13.4185 11.2607 13.1005 11.129 12.8661 10.8946C12.6317 10.6602 12.5 10.3423 12.5 10.0107C12.5 9.67922 12.6317 9.36128 12.8661 9.12686C13.1005 8.89244 13.4185 8.76074 13.75 8.76074ZM13.75 15.0107H17.5C17.8315 15.0107 18.1495 15.1424 18.3839 15.3769C18.6183 15.6113 18.75 15.9292 18.75 16.2607C18.75 16.5923 18.6183 16.9102 18.3839 17.1446C18.1495 17.379 17.8315 17.5107 17.5 17.5107H13.75C13.4185 17.5107 13.1005 17.379 12.8661 17.1446C12.6317 16.9102 12.5 16.5923 12.5 16.2607C12.5 15.9292 12.6317 15.6113 12.8661 15.3769C13.1005 15.1424 13.4185 15.0107 13.75 15.0107ZM12.5 22.5107C12.5 22.1792 12.6317 21.8613 12.8661 21.6269C13.1005 21.3924 13.4185 21.2607 13.75 21.2607H17.5C17.8315 21.2607 18.1495 21.3924 18.3839 21.6269C18.6183 21.8613 18.75 22.1792 18.75 22.5107C18.75 22.8423 18.6183 23.1602 18.3839 23.3946C18.1495 23.629 17.8315 23.7607 17.5 23.7607H13.75C13.4185 23.7607 13.1005 23.629 12.8661 23.3946C12.6317 23.1602 12.5 22.8423 12.5 22.5107ZM23.75 35.0107H16.25V28.7607H23.75V35.0107ZM26.25 23.7607H22.5C22.1685 23.7607 21.8505 23.629 21.6161 23.3946C21.3817 23.1602 21.25 22.8423 21.25 22.5107C21.25 22.1792 21.3817 21.8613 21.6161 21.6269C21.8505 21.3924 22.1685 21.2607 22.5 21.2607H26.25C26.5815 21.2607 26.8995 21.3924 27.1339 21.6269C27.3683 21.8613 27.5 22.1792 27.5 22.5107C27.5 22.8423 27.3683 23.1602 27.1339 23.3946C26.8995 23.629 26.5815 23.7607 26.25 23.7607ZM26.25 17.5107H22.5C22.1685 17.5107 21.8505 17.379 21.6161 17.1446C21.3817 16.9102 21.25 16.5923 21.25 16.2607C21.25 15.9292 21.3817 15.6113 21.6161 15.3769C21.8505 15.1424 22.1685 15.0107 22.5 15.0107H26.25C26.5815 15.0107 26.8995 15.1424 27.1339 15.3769C27.3683 15.6113 27.5 15.9292 27.5 16.2607C27.5 16.5923 27.3683 16.9102 27.1339 17.1446C26.8995 17.379 26.5815 17.5107 26.25 17.5107ZM26.25 11.2607H22.5C22.1685 11.2607 21.8505 11.129 21.6161 10.8946C21.3817 10.6602 21.25 10.3423 21.25 10.0107C21.25 9.67922 21.3817 9.36128 21.6161 9.12686C21.8505 8.89244 22.1685 8.76074 22.5 8.76074H26.25C26.5815 8.76074 26.8995 8.89244 27.1339 9.12686C27.3683 9.36128 27.5 9.67922 27.5 10.0107C27.5 10.3423 27.3683 10.6602 27.1339 10.8946C26.8995 11.129 26.5815 11.2607 26.25 11.2607Z" fill="#451AE2"/>
<path d="M36.25 35.0107H32.5V5.01074H33.75C34.0815 5.01074 34.3995 4.87905 34.6339 4.64463C34.8683 4.41021 35 4.09226 35 3.76074C35 3.42922 34.8683 3.11128 34.6339 2.87686C34.3995 2.64244 34.0815 2.51074 33.75 2.51074H6.25C5.91848 2.51074 5.60054 2.64244 5.36612 2.87686C5.1317 3.11128 5 3.42922 5 3.76074C5 4.09226 5.1317 4.41021 5.36612 4.64463C5.60054 4.87905 5.91848 5.01074 6.25 5.01074H7.5V35.0107H3.75C3.41848 35.0107 3.10054 35.1424 2.86612 35.3769C2.6317 35.6113 2.5 35.9292 2.5 36.2607C2.5 36.5923 2.6317 36.9102 2.86612 37.1446C3.10054 37.379 3.41848 37.5107 3.75 37.5107H36.25C36.5815 37.5107 36.8995 37.379 37.1339 37.1446C37.3683 36.9102 37.5 36.5923 37.5 36.2607C37.5 35.9292 37.3683 35.6113 37.1339 35.3769C36.8995 35.1424 36.5815 35.0107 36.25 35.0107ZM13.75 8.76074H17.5C17.8315 8.76074 18.1495 8.89244 18.3839 9.12686C18.6183 9.36128 18.75 9.67922 18.75 10.0107C18.75 10.3423 18.6183 10.6602 18.3839 10.8946C18.1495 11.129 17.8315 11.2607 17.5 11.2607H13.75C13.4185 11.2607 13.1005 11.129 12.8661 10.8946C12.6317 10.6602 12.5 10.3423 12.5 10.0107C12.5 9.67922 12.6317 9.36128 12.8661 9.12686C13.1005 8.89244 13.4185 8.76074 13.75 8.76074ZM13.75 15.0107H17.5C17.8315 15.0107 18.1495 15.1424 18.3839 15.3769C18.6183 15.6113 18.75 15.9292 18.75 16.2607C18.75 16.5923 18.6183 16.9102 18.3839 17.1446C18.1495 17.379 17.8315 17.5107 17.5 17.5107H13.75C13.4185 17.5107 13.1005 17.379 12.8661 17.1446C12.6317 16.9102 12.5 16.5923 12.5 16.2607C12.5 15.9292 12.6317 15.6113 12.8661 15.3769C13.1005 15.1424 13.4185 15.0107 13.75 15.0107ZM12.5 22.5107C12.5 22.1792 12.6317 21.8613 12.8661 21.6269C13.1005 21.3924 13.4185 21.2607 13.75 21.2607H17.5C17.8315 21.2607 18.1495 21.3924 18.3839 21.6269C18.6183 21.8613 18.75 22.1792 18.75 22.5107C18.75 22.8423 18.6183 23.1602 18.3839 23.3946C18.1495 23.629 17.8315 23.7607 17.5 23.7607H13.75C13.4185 23.7607 13.1005 23.629 12.8661 23.3946C12.6317 23.1602 12.5 22.8423 12.5 22.5107ZM23.75 35.0107H16.25V28.7607H23.75V35.0107ZM26.25 23.7607H22.5C22.1685 23.7607 21.8505 23.629 21.6161 23.3946C21.3817 23.1602 21.25 22.8423 21.25 22.5107C21.25 22.1792 21.3817 21.8613 21.6161 21.6269C21.8505 21.3924 22.1685 21.2607 22.5 21.2607H26.25C26.5815 21.2607 26.8995 21.3924 27.1339 21.6269C27.3683 21.8613 27.5 22.1792 27.5 22.5107C27.5 22.8423 27.3683 23.1602 27.1339 23.3946C26.8995 23.629 26.5815 23.7607 26.25 23.7607ZM26.25 17.5107H22.5C22.1685 17.5107 21.8505 17.379 21.6161 17.1446C21.3817 16.9102 21.25 16.5923 21.25 16.2607C21.25 15.9292 21.3817 15.6113 21.6161 15.3769C21.8505 15.1424 22.1685 15.0107 22.5 15.0107H26.25C26.5815 15.0107 26.8995 15.1424 27.1339 15.3769C27.3683 15.6113 27.5 15.9292 27.5 16.2607C27.5 16.5923 27.3683 16.9102 27.1339 17.1446C26.8995 17.379 26.5815 17.5107 26.25 17.5107ZM26.25 11.2607H22.5C22.1685 11.2607 21.8505 11.129 21.6161 10.8946C21.3817 10.6602 21.25 10.3423 21.25 10.0107C21.25 9.67922 21.3817 9.36128 21.6161 9.12686C21.8505 8.89244 22.1685 8.76074 22.5 8.76074H26.25C26.5815 8.76074 26.8995 8.89244 27.1339 9.12686C27.3683 9.36128 27.5 9.67922 27.5 10.0107C27.5 10.3423 27.3683 10.6602 27.1339 10.8946C26.8995 11.129 26.5815 11.2607 26.25 11.2607Z" fill="white" fill-opacity="0.2"/>
</svg>
