<svg width="41" height="41" viewBox="0 0 41 41" fill="none" xmlns="http://www.w3.org/2000/svg">
<path d="M33.7174 13.3764L24.9674 4.62637C24.8512 4.51032 24.7133 4.41831 24.5616 4.35557C24.4098 4.29284 24.2472 4.26061 24.083 4.26074H9.08301C8.41997 4.26074 7.78408 4.52413 7.31524 4.99298C6.8464 5.46182 6.58301 6.0977 6.58301 6.76074V34.2607C6.58301 34.9238 6.8464 35.5597 7.31524 36.0285C7.78408 36.4973 8.41997 36.7607 9.08301 36.7607H31.583C32.246 36.7607 32.8819 36.4973 33.3508 36.0285C33.8196 35.5597 34.083 34.9238 34.083 34.2607V14.2607C34.0831 14.0965 34.0509 13.9339 33.9882 13.7822C33.9254 13.6304 33.8334 13.4925 33.7174 13.3764ZM24.9674 23.8951C24.8513 24.0113 24.7134 24.1035 24.5617 24.1664C24.4099 24.2293 24.2473 24.2617 24.083 24.2617C23.9187 24.2617 23.7561 24.2293 23.6043 24.1664C23.4526 24.1035 23.3147 24.0113 23.1986 23.8951L21.583 22.2779V29.2607C21.583 29.5923 21.4513 29.9102 21.2169 30.1446C20.9825 30.379 20.6645 30.5107 20.333 30.5107C20.0015 30.5107 19.6835 30.379 19.4491 30.1446C19.2147 29.9102 19.083 29.5923 19.083 29.2607V22.2779L17.4674 23.8951C17.3512 24.0113 17.2134 24.1034 17.0616 24.1662C16.9099 24.2291 16.7473 24.2614 16.583 24.2614C16.4188 24.2614 16.2561 24.2291 16.1044 24.1662C15.9526 24.1034 15.8148 24.0113 15.6986 23.8951C15.5825 23.779 15.4904 23.6411 15.4275 23.4894C15.3647 23.3376 15.3323 23.175 15.3323 23.0107C15.3323 22.8465 15.3647 22.6839 15.4275 22.5321C15.4904 22.3804 15.5825 22.2425 15.6986 22.1264L19.4486 18.3764C19.5647 18.2601 19.7026 18.1679 19.8543 18.105C20.0061 18.0421 20.1687 18.0098 20.333 18.0098C20.4973 18.0098 20.6599 18.0421 20.8117 18.105C20.9634 18.1679 21.1013 18.2601 21.2174 18.3764L24.9674 22.1264C25.0836 22.2425 25.1758 22.3803 25.2387 22.5321C25.3016 22.6838 25.334 22.8465 25.334 23.0107C25.334 23.175 25.3016 23.3377 25.2387 23.4894C25.1758 23.6412 25.0836 23.779 24.9674 23.8951ZM24.083 14.2607V7.38574L30.958 14.2607H24.083Z" fill="#451AE2"/>
<path d="M33.7174 13.3764L24.9674 4.62637C24.8512 4.51032 24.7133 4.41831 24.5616 4.35557C24.4098 4.29284 24.2472 4.26061 24.083 4.26074H9.08301C8.41997 4.26074 7.78408 4.52413 7.31524 4.99298C6.8464 5.46182 6.58301 6.0977 6.58301 6.76074V34.2607C6.58301 34.9238 6.8464 35.5597 7.31524 36.0285C7.78408 36.4973 8.41997 36.7607 9.08301 36.7607H31.583C32.246 36.7607 32.8819 36.4973 33.3508 36.0285C33.8196 35.5597 34.083 34.9238 34.083 34.2607V14.2607C34.0831 14.0965 34.0509 13.9339 33.9882 13.7822C33.9254 13.6304 33.8334 13.4925 33.7174 13.3764ZM24.9674 23.8951C24.8513 24.0113 24.7134 24.1035 24.5617 24.1664C24.4099 24.2293 24.2473 24.2617 24.083 24.2617C23.9187 24.2617 23.7561 24.2293 23.6043 24.1664C23.4526 24.1035 23.3147 24.0113 23.1986 23.8951L21.583 22.2779V29.2607C21.583 29.5923 21.4513 29.9102 21.2169 30.1446C20.9825 30.379 20.6645 30.5107 20.333 30.5107C20.0015 30.5107 19.6835 30.379 19.4491 30.1446C19.2147 29.9102 19.083 29.5923 19.083 29.2607V22.2779L17.4674 23.8951C17.3512 24.0113 17.2134 24.1034 17.0616 24.1662C16.9099 24.2291 16.7473 24.2614 16.583 24.2614C16.4188 24.2614 16.2561 24.2291 16.1044 24.1662C15.9526 24.1034 15.8148 24.0113 15.6986 23.8951C15.5825 23.779 15.4904 23.6411 15.4275 23.4894C15.3647 23.3376 15.3323 23.175 15.3323 23.0107C15.3323 22.8465 15.3647 22.6839 15.4275 22.5321C15.4904 22.3804 15.5825 22.2425 15.6986 22.1264L19.4486 18.3764C19.5647 18.2601 19.7026 18.1679 19.8543 18.105C20.0061 18.0421 20.1687 18.0098 20.333 18.0098C20.4973 18.0098 20.6599 18.0421 20.8117 18.105C20.9634 18.1679 21.1013 18.2601 21.2174 18.3764L24.9674 22.1264C25.0836 22.2425 25.1758 22.3803 25.2387 22.5321C25.3016 22.6838 25.334 22.8465 25.334 23.0107C25.334 23.175 25.3016 23.3377 25.2387 23.4894C25.1758 23.6412 25.0836 23.779 24.9674 23.8951ZM24.083 14.2607V7.38574L30.958 14.2607H24.083Z" fill="white" fill-opacity="0.2"/>
</svg>
