<svg width="41" height="41" viewBox="0 0 41 41" fill="none" xmlns="http://www.w3.org/2000/svg">
<path d="M14.5058 5.97947C14.3814 5.67157 14.3845 5.3269 14.5143 5.02127C14.6441 4.71565 14.8901 4.47411 15.198 4.34979C15.5059 4.22547 15.8505 4.22855 16.1562 4.35836C16.4618 4.48817 16.7033 4.73407 16.8276 5.04197L18.0776 8.16697C18.1392 8.31943 18.1701 8.48252 18.1686 8.64693C18.1672 8.81134 18.1333 8.97384 18.0691 9.12518C18.0048 9.27651 17.9113 9.41369 17.794 9.52891C17.6767 9.64412 17.5379 9.7351 17.3855 9.79666C17.233 9.85822 17.0699 9.88914 16.9055 9.88767C16.7411 9.8862 16.5786 9.85236 16.4272 9.78809C16.2759 9.72381 16.1387 9.63036 16.0235 9.51306C15.9083 9.39577 15.8173 9.25693 15.7558 9.10447L14.5058 5.97947ZM5.19795 16.6717L8.32295 17.9217C8.47541 17.9832 8.63849 18.0141 8.8029 18.0127C8.96731 18.0112 9.12982 17.9774 9.28115 17.9131C9.43248 17.8488 9.56967 17.7554 9.68488 17.6381C9.8001 17.5208 9.89108 17.3819 9.95264 17.2295C10.0142 17.077 10.0451 16.9139 10.0436 16.7495C10.0422 16.5851 10.0083 16.4226 9.94406 16.2713C9.87979 16.1199 9.78633 15.9828 9.66904 15.8675C9.55175 15.7523 9.41291 15.6613 9.26045 15.5998L6.13545 14.3498C5.82755 14.2255 5.48288 14.2286 5.17725 14.3584C4.87162 14.4882 4.63008 14.7341 4.50576 15.042C4.38144 15.3499 4.38453 15.6945 4.51434 16.0002C4.64415 16.3058 4.89005 16.5473 5.19795 16.6717ZM36.1355 24.3498L33.0105 23.0998C32.7026 22.9755 32.3579 22.9786 32.0523 23.1084C31.7466 23.2382 31.5051 23.4841 31.3808 23.792C31.2564 24.0999 31.2595 24.4445 31.3893 24.7502C31.5191 25.0558 31.7651 25.2973 32.073 25.4217L35.198 26.6717C35.5059 26.796 35.8505 26.7929 36.1561 26.6631C36.4618 26.5333 36.7033 26.2874 36.8276 25.9795C36.952 25.6716 36.9489 25.3269 36.8191 25.0213C36.6893 24.7156 36.4434 24.4741 36.1355 24.3498ZM25.5776 31.917C25.4533 31.6091 25.2118 31.3632 24.9061 31.2334C24.6005 31.1036 24.2559 31.1005 23.948 31.2248C23.6401 31.3491 23.3941 31.5906 23.2643 31.8963C23.1345 32.2019 23.1314 32.5466 23.2558 32.8545L24.5058 35.9795C24.6301 36.2874 24.8716 36.5333 25.1773 36.6631C25.4829 36.7929 25.8276 36.796 26.1355 36.6717C26.4434 36.5473 26.6893 36.3058 26.8191 36.0002C26.9489 35.6945 26.952 35.3499 26.8276 35.042L25.5776 31.917ZM37.8401 3.40447C37.7255 3.28214 37.5874 3.18412 37.434 3.11625C37.2807 3.04838 37.1153 3.01205 36.9477 3.00943C36.78 3.00681 36.6135 3.03794 36.4582 3.10097C36.3028 3.16401 36.1617 3.25766 36.0433 3.37635L27.8542 11.5654L27.0136 10.7248C26.5492 10.2599 25.9978 9.89111 25.3908 9.63949C24.7838 9.38787 24.1332 9.25835 23.4761 9.25835C22.819 9.25835 22.1684 9.38787 21.5614 9.63949C20.9544 9.89111 20.4029 10.2599 19.9386 10.7248L17.2511 13.4076C17.193 13.4656 17.1469 13.5346 17.1154 13.6104C17.084 13.6863 17.0678 13.7677 17.0678 13.8498C17.0678 13.9319 17.084 14.0133 17.1154 14.0891C17.1469 14.165 17.193 14.2339 17.2511 14.292L26.8917 23.9263C26.9497 23.9845 27.0187 24.0306 27.0946 24.062C27.1704 24.0935 27.2518 24.1097 27.3339 24.1097C27.416 24.1097 27.4974 24.0935 27.5732 24.062C27.6491 24.0306 27.718 23.9845 27.7761 23.9263L30.3917 21.3107C31.3397 20.381 31.8893 19.1193 31.9245 17.792C31.9375 17.121 31.8144 16.4543 31.5628 15.8321C31.3112 15.2099 30.9362 14.6451 30.4604 14.1717L29.6198 13.3326L37.7761 5.18104C38.0138 4.95033 38.1532 4.63669 38.1651 4.30563C38.1771 3.97457 38.0606 3.65171 37.8401 3.40447ZM14.048 14.6263C13.9295 14.5079 13.7885 14.4145 13.6333 14.3516C13.4781 14.2887 13.3118 14.2576 13.1443 14.2602C12.9769 14.2629 12.8116 14.2991 12.6585 14.3668C12.5053 14.4346 12.3673 14.5324 12.2526 14.6545C12.0321 14.9017 11.9157 15.2246 11.9276 15.5556C11.9396 15.8867 12.079 16.2003 12.3167 16.431L13.2714 17.3857L10.8761 19.7779C10.4014 20.2515 10.0274 20.8162 9.77656 21.4381C9.52576 22.06 9.40335 22.7262 9.4167 23.3967C9.4497 24.7237 9.99707 25.986 10.9433 26.917L11.7245 27.6888L3.55576 35.8435C3.32528 36.068 3.18756 36.3709 3.1699 36.6921C3.15225 37.0134 3.25595 37.3295 3.46045 37.5779C3.57275 37.7082 3.71074 37.8139 3.86576 37.8884C4.02079 37.9629 4.18953 38.0046 4.36142 38.0109C4.53331 38.0172 4.70465 37.988 4.86472 37.9251C5.02479 37.8621 5.17015 37.7668 5.2917 37.6451L13.4792 29.456L14.3183 30.2967C15.2582 31.2322 16.5304 31.7574 17.8565 31.7574C19.1827 31.7574 20.4549 31.2322 21.3948 30.2967L23.7917 27.9029L24.7823 28.8951C24.8985 29.0112 25.0363 29.1034 25.1881 29.1662C25.3398 29.2291 25.5025 29.2614 25.6667 29.2614C25.8309 29.2614 25.9936 29.2291 26.1453 29.1662C26.2971 29.1034 26.4349 29.0112 26.5511 28.8951C26.6672 28.779 26.7593 28.6411 26.8222 28.4893C26.885 28.3376 26.9174 28.175 26.9174 28.0107C26.9174 27.8465 26.885 27.6838 26.8222 27.5321C26.7593 27.3804 26.6672 27.2425 26.5511 27.1263L14.048 14.6263Z" fill="#451AE2"/>
<path d="M14.5058 5.97947C14.3814 5.67157 14.3845 5.3269 14.5143 5.02127C14.6441 4.71565 14.8901 4.47411 15.198 4.34979C15.5059 4.22547 15.8505 4.22855 16.1562 4.35836C16.4618 4.48817 16.7033 4.73407 16.8276 5.04197L18.0776 8.16697C18.1392 8.31943 18.1701 8.48252 18.1686 8.64693C18.1672 8.81134 18.1333 8.97384 18.0691 9.12518C18.0048 9.27651 17.9113 9.41369 17.794 9.52891C17.6767 9.64412 17.5379 9.7351 17.3855 9.79666C17.233 9.85822 17.0699 9.88914 16.9055 9.88767C16.7411 9.8862 16.5786 9.85236 16.4272 9.78809C16.2759 9.72381 16.1387 9.63036 16.0235 9.51306C15.9083 9.39577 15.8173 9.25693 15.7558 9.10447L14.5058 5.97947ZM5.19795 16.6717L8.32295 17.9217C8.47541 17.9832 8.63849 18.0141 8.8029 18.0127C8.96731 18.0112 9.12982 17.9774 9.28115 17.9131C9.43248 17.8488 9.56967 17.7554 9.68488 17.6381C9.8001 17.5208 9.89108 17.3819 9.95264 17.2295C10.0142 17.077 10.0451 16.9139 10.0436 16.7495C10.0422 16.5851 10.0083 16.4226 9.94406 16.2713C9.87979 16.1199 9.78633 15.9828 9.66904 15.8675C9.55175 15.7523 9.41291 15.6613 9.26045 15.5998L6.13545 14.3498C5.82755 14.2255 5.48288 14.2286 5.17725 14.3584C4.87162 14.4882 4.63008 14.7341 4.50576 15.042C4.38144 15.3499 4.38453 15.6945 4.51434 16.0002C4.64415 16.3058 4.89005 16.5473 5.19795 16.6717ZM36.1355 24.3498L33.0105 23.0998C32.7026 22.9755 32.3579 22.9786 32.0523 23.1084C31.7466 23.2382 31.5051 23.4841 31.3808 23.792C31.2564 24.0999 31.2595 24.4445 31.3893 24.7502C31.5191 25.0558 31.7651 25.2973 32.073 25.4217L35.198 26.6717C35.5059 26.796 35.8505 26.7929 36.1561 26.6631C36.4618 26.5333 36.7033 26.2874 36.8276 25.9795C36.952 25.6716 36.9489 25.3269 36.8191 25.0213C36.6893 24.7156 36.4434 24.4741 36.1355 24.3498ZM25.5776 31.917C25.4533 31.6091 25.2118 31.3632 24.9061 31.2334C24.6005 31.1036 24.2559 31.1005 23.948 31.2248C23.6401 31.3491 23.3941 31.5906 23.2643 31.8963C23.1345 32.2019 23.1314 32.5466 23.2558 32.8545L24.5058 35.9795C24.6301 36.2874 24.8716 36.5333 25.1773 36.6631C25.4829 36.7929 25.8276 36.796 26.1355 36.6717C26.4434 36.5473 26.6893 36.3058 26.8191 36.0002C26.9489 35.6945 26.952 35.3499 26.8276 35.042L25.5776 31.917ZM37.8401 3.40447C37.7255 3.28214 37.5874 3.18412 37.434 3.11625C37.2807 3.04838 37.1153 3.01205 36.9477 3.00943C36.78 3.00681 36.6135 3.03794 36.4582 3.10097C36.3028 3.16401 36.1617 3.25766 36.0433 3.37635L27.8542 11.5654L27.0136 10.7248C26.5492 10.2599 25.9978 9.89111 25.3908 9.63949C24.7838 9.38787 24.1332 9.25835 23.4761 9.25835C22.819 9.25835 22.1684 9.38787 21.5614 9.63949C20.9544 9.89111 20.4029 10.2599 19.9386 10.7248L17.2511 13.4076C17.193 13.4656 17.1469 13.5346 17.1154 13.6104C17.084 13.6863 17.0678 13.7677 17.0678 13.8498C17.0678 13.9319 17.084 14.0133 17.1154 14.0891C17.1469 14.165 17.193 14.2339 17.2511 14.292L26.8917 23.9263C26.9497 23.9845 27.0187 24.0306 27.0946 24.062C27.1704 24.0935 27.2518 24.1097 27.3339 24.1097C27.416 24.1097 27.4974 24.0935 27.5732 24.062C27.6491 24.0306 27.718 23.9845 27.7761 23.9263L30.3917 21.3107C31.3397 20.381 31.8893 19.1193 31.9245 17.792C31.9375 17.121 31.8144 16.4543 31.5628 15.8321C31.3112 15.2099 30.9362 14.6451 30.4604 14.1717L29.6198 13.3326L37.7761 5.18104C38.0138 4.95033 38.1532 4.63669 38.1651 4.30563C38.1771 3.97457 38.0606 3.65171 37.8401 3.40447ZM14.048 14.6263C13.9295 14.5079 13.7885 14.4145 13.6333 14.3516C13.4781 14.2887 13.3118 14.2576 13.1443 14.2602C12.9769 14.2629 12.8116 14.2991 12.6585 14.3668C12.5053 14.4346 12.3673 14.5324 12.2526 14.6545C12.0321 14.9017 11.9157 15.2246 11.9276 15.5556C11.9396 15.8867 12.079 16.2003 12.3167 16.431L13.2714 17.3857L10.8761 19.7779C10.4014 20.2515 10.0274 20.8162 9.77656 21.4381C9.52576 22.06 9.40335 22.7262 9.4167 23.3967C9.4497 24.7237 9.99707 25.986 10.9433 26.917L11.7245 27.6888L3.55576 35.8435C3.32528 36.068 3.18756 36.3709 3.1699 36.6921C3.15225 37.0134 3.25595 37.3295 3.46045 37.5779C3.57275 37.7082 3.71074 37.8139 3.86576 37.8884C4.02079 37.9629 4.18953 38.0046 4.36142 38.0109C4.53331 38.0172 4.70465 37.988 4.86472 37.9251C5.02479 37.8621 5.17015 37.7668 5.2917 37.6451L13.4792 29.456L14.3183 30.2967C15.2582 31.2322 16.5304 31.7574 17.8565 31.7574C19.1827 31.7574 20.4549 31.2322 21.3948 30.2967L23.7917 27.9029L24.7823 28.8951C24.8985 29.0112 25.0363 29.1034 25.1881 29.1662C25.3398 29.2291 25.5025 29.2614 25.6667 29.2614C25.8309 29.2614 25.9936 29.2291 26.1453 29.1662C26.2971 29.1034 26.4349 29.0112 26.5511 28.8951C26.6672 28.779 26.7593 28.6411 26.8222 28.4893C26.885 28.3376 26.9174 28.175 26.9174 28.0107C26.9174 27.8465 26.885 27.6838 26.8222 27.5321C26.7593 27.3804 26.6672 27.2425 26.5511 27.1263L14.048 14.6263Z" fill="white" fill-opacity="0.2"/>
</svg>
