<svg width="40" height="40" viewBox="0 0 40 40" fill="none" xmlns="http://www.w3.org/2000/svg">
<path d="M33.7496 20.3376C33.7558 20.1126 33.7558 19.8876 33.7496 19.6626L36.0808 16.7501C36.2031 16.5972 36.2877 16.4177 36.3278 16.2261C36.368 16.0344 36.3626 15.8361 36.3121 15.6469C35.9292 14.2106 35.3576 12.8314 34.6121 11.5454C34.5144 11.3771 34.3788 11.234 34.216 11.1274C34.0533 11.0208 33.8679 10.9537 33.6746 10.9313L29.9683 10.5188C29.8142 10.3563 29.6579 10.2001 29.4996 10.0501L29.0621 6.33445C29.0396 6.14103 28.9722 5.95554 28.8653 5.79278C28.7584 5.63001 28.615 5.49446 28.4465 5.39695C27.1605 4.65202 25.7813 4.0814 24.3449 3.70007C24.1558 3.64954 23.9574 3.64414 23.7658 3.68431C23.5742 3.72447 23.3947 3.80908 23.2418 3.93132L20.3371 6.25007C20.1121 6.25007 19.8871 6.25007 19.6621 6.25007L16.7496 3.92351C16.5967 3.80127 16.4172 3.71666 16.2256 3.6765C16.034 3.63633 15.8356 3.64173 15.6465 3.69226C14.2101 4.07511 12.8309 4.64676 11.5449 5.39226C11.3766 5.48996 11.2335 5.62558 11.1269 5.78834C11.0203 5.95109 10.9532 6.13648 10.9308 6.32976L10.5183 10.0423C10.3558 10.1975 10.1996 10.3537 10.0496 10.511L6.33396 10.9376C6.14054 10.9601 5.95505 11.0275 5.79229 11.1343C5.62952 11.2412 5.49398 11.3847 5.39646 11.5532C4.65169 12.8394 4.08057 14.2186 3.69802 15.6548C3.6477 15.844 3.64256 16.0424 3.683 16.2341C3.72344 16.4257 3.80833 16.6051 3.93083 16.7579L6.24958 19.6626C6.24958 19.8876 6.24958 20.1126 6.24958 20.3376L3.92302 23.2501C3.80078 23.403 3.71617 23.5825 3.67601 23.7741C3.63584 23.9657 3.64124 24.1641 3.69177 24.3532C4.07463 25.7895 4.64628 27.1687 5.39177 28.4548C5.48947 28.623 5.62509 28.7661 5.78785 28.8727C5.9506 28.9793 6.136 29.0465 6.32927 29.0688L10.0355 29.4813C10.1907 29.6438 10.347 29.8001 10.5043 29.9501L10.9371 33.6657C10.9596 33.8591 11.027 34.0446 11.1338 34.2074C11.2407 34.3701 11.3842 34.5057 11.5527 34.6032C12.8389 35.348 14.2181 35.9191 15.6543 36.3016C15.8435 36.352 16.042 36.3571 16.2336 36.3167C16.4252 36.2762 16.6046 36.1913 16.7574 36.0688L19.6621 33.7501C19.8871 33.7563 20.1121 33.7563 20.3371 33.7501L23.2496 36.0813C23.4025 36.2036 23.582 36.2882 23.7736 36.3283C23.9652 36.3685 24.1636 36.3631 24.3527 36.3126C25.7893 35.9304 27.1686 35.3587 28.4543 34.6126C28.6225 34.5149 28.7657 34.3793 28.8723 34.2165C28.9789 34.0537 29.046 33.8684 29.0683 33.6751L29.4808 29.9688C29.6433 29.8147 29.7996 29.6584 29.9496 29.5001L33.6652 29.0626C33.8586 29.0401 34.0441 28.9727 34.2069 28.8658C34.3696 28.7589 34.5052 28.6155 34.6027 28.4469C35.3475 27.1608 35.9186 25.7816 36.3011 24.3454C36.3515 24.1561 36.3566 23.9577 36.3162 23.7661C36.2757 23.5745 36.1908 23.395 36.0683 23.2423L33.7496 20.3376ZM19.9996 26.2501C18.7635 26.2501 17.5551 25.8835 16.5273 25.1968C15.4995 24.51 14.6984 23.5339 14.2253 22.3918C13.7523 21.2498 13.6285 19.9931 13.8697 18.7808C14.1108 17.5684 14.7061 16.4547 15.5802 15.5807C16.4542 14.7066 17.5679 14.1113 18.7803 13.8702C19.9927 13.629 21.2493 13.7528 22.3914 14.2258C23.5334 14.6989 24.5095 15.5 25.1963 16.5278C25.883 17.5556 26.2496 18.7639 26.2496 20.0001C26.2496 21.6577 25.5911 23.2474 24.419 24.4195C23.2469 25.5916 21.6572 26.2501 19.9996 26.2501Z" fill="#F4F4F4"/>
</svg>
