<svg width="40" height="40" viewBox="0 0 40 40" fill="none" xmlns="http://www.w3.org/2000/svg">
<path d="M26.25 17.5001C26.25 19.2307 25.7369 20.9224 24.7754 22.3613C23.8139 23.8003 22.4474 24.9218 20.8485 25.5841C19.2497 26.2463 17.4903 26.4196 15.793 26.082C14.0957 25.7444 12.5366 24.911 11.3129 23.6873C10.0892 22.4636 9.2558 20.9045 8.91818 19.2071C8.58056 17.5098 8.75384 15.7505 9.4161 14.1516C10.0784 12.5528 11.1999 11.1862 12.6388 10.2247C14.0777 9.26329 15.7695 8.75011 17.5 8.75011C19.8207 8.75011 22.0463 9.67198 23.6872 11.3129C25.3282 12.9539 26.25 15.1795 26.25 17.5001ZM35.8844 35.8845C35.7683 36.0007 35.6305 36.0929 35.4787 36.1558C35.327 36.2187 35.1643 36.2511 35 36.2511C34.8358 36.2511 34.6731 36.2187 34.5214 36.1558C34.3696 36.0929 34.2318 36.0007 34.1157 35.8845L26.2938 28.061C23.5737 30.324 20.0858 31.4513 16.5558 31.2083C13.0257 30.9653 9.72523 29.3708 7.34081 26.7564C4.95639 24.1421 3.67161 20.7092 3.75371 17.1717C3.8358 13.6343 5.27845 10.2646 7.78158 7.76371C10.2847 5.26279 13.6556 3.82312 17.1931 3.74415C20.7307 3.66518 24.1624 4.953 26.7747 7.33973C29.3869 9.72646 30.9785 13.0284 31.2184 16.5586C31.4582 20.0889 30.3279 23.5757 28.0625 26.2939L35.8844 34.1157C36.0006 34.2318 36.0928 34.3697 36.1557 34.5214C36.2187 34.6732 36.251 34.8358 36.251 35.0001C36.251 35.1644 36.2187 35.327 36.1557 35.4788C36.0928 35.6305 36.0006 35.7684 35.8844 35.8845ZM17.5 28.7501C19.7251 28.7501 21.9002 28.0903 23.7502 26.8541C25.6003 25.618 27.0422 23.861 27.8937 21.8053C28.7452 19.7496 28.968 17.4876 28.5339 15.3053C28.0998 13.1231 27.0283 11.1185 25.455 9.54516C23.8817 7.97182 21.8771 6.90036 19.6948 6.46628C17.5125 6.03219 15.2505 6.25498 13.1949 7.10646C11.1392 7.95795 9.38218 9.39989 8.14602 11.2499C6.90985 13.1 6.25005 15.2751 6.25005 17.5001C6.25336 20.4828 7.43968 23.3423 9.54875 25.4514C11.6578 27.5605 14.5174 28.7468 17.5 28.7501Z" fill="#F4F4F4"/>
</svg>
