<svg width="40" height="40" viewBox="0 0 40 40" fill="none" xmlns="http://www.w3.org/2000/svg">
<path d="M27.4996 32.3813C28.3619 32.0416 29.1975 31.6378 29.9996 31.1735V37.5C29.9996 37.8316 29.8679 38.1495 29.6335 38.3839C29.3991 38.6183 29.0811 38.75 28.7496 38.75C28.4181 38.75 28.1001 38.6183 27.8657 38.3839C27.6313 38.1495 27.4996 37.8316 27.4996 37.5V32.3813ZM29.3371 18.5641L20.5871 13.8969C20.2952 13.7478 19.9563 13.7193 19.6436 13.8176C19.3309 13.916 19.0693 14.1332 18.9152 14.4225C18.7611 14.7119 18.7269 15.0501 18.8198 15.3645C18.9127 15.6789 19.1255 15.9441 19.4121 16.1032L26.7184 20L29.3746 18.5844L29.3371 18.5641ZM39.3371 13.8969L20.5871 3.89691C20.4063 3.80061 20.2045 3.75024 19.9996 3.75024C19.7947 3.75024 19.593 3.80061 19.4121 3.89691L0.662109 13.8969C0.462116 14.0035 0.29486 14.1624 0.178234 14.3568C0.0616083 14.5511 0 14.7734 0 15C0 15.2267 0.0616083 15.449 0.178234 15.6433C0.29486 15.8376 0.462116 15.9966 0.662109 16.1032L4.99961 18.4172V25.9828C4.99831 26.5968 5.22428 27.1896 5.63398 27.6469C7.68086 29.9266 12.2668 33.75 19.9996 33.75C22.5636 33.7712 25.1084 33.3068 27.4996 32.3813V20.4172L26.7184 20L19.9996 23.5828L6.84805 16.5625L3.90586 15L19.9996 6.41722L36.0934 15L33.159 16.5625H33.1496L29.3746 18.5844C29.5647 18.6941 29.7225 18.852 29.8322 19.0421C29.9419 19.2321 29.9997 19.4478 29.9996 19.6672V31.1735C31.6296 30.2325 33.1026 29.0426 34.3652 27.6469C34.7749 27.1896 35.0009 26.5968 34.9996 25.9828V18.4172L39.3371 16.1032C39.5371 15.9966 39.7044 15.8376 39.821 15.6433C39.9376 15.449 39.9992 15.2267 39.9992 15C39.9992 14.7734 39.9376 14.5511 39.821 14.3568C39.7044 14.1624 39.5371 14.0035 39.3371 13.8969Z" fill="#F4F4F4"/>
</svg>
