<svg width="40" height="40" viewBox="0 0 40 40" fill="none" xmlns="http://www.w3.org/2000/svg">
<path d="M33.75 6.25H6.25C5.58696 6.25 4.95107 6.51339 4.48223 6.98223C4.01339 7.45107 3.75 8.08696 3.75 8.75V31.25C3.75 31.913 4.01339 32.5489 4.48223 33.0178C4.95107 33.4866 5.58696 33.75 6.25 33.75H33.75C34.413 33.75 35.0489 33.4866 35.5178 33.0178C35.9866 32.5489 36.25 31.913 36.25 31.25V8.75C36.25 8.08696 35.9866 7.45107 35.5178 6.98223C35.0489 6.51339 34.413 6.25 33.75 6.25ZM22.5 27.5H17.5C17.1685 27.5 16.8505 27.3683 16.6161 27.1339C16.3817 26.8995 16.25 26.5815 16.25 26.25C16.25 25.9185 16.3817 25.6005 16.6161 25.3661C16.8505 25.1317 17.1685 25 17.5 25H22.5C22.8315 25 23.1495 25.1317 23.3839 25.3661C23.6183 25.6005 23.75 25.9185 23.75 26.25C23.75 26.5815 23.6183 26.8995 23.3839 27.1339C23.1495 27.3683 22.8315 27.5 22.5 27.5ZM27.5 21.25H12.5C12.1685 21.25 11.8505 21.1183 11.6161 20.8839C11.3817 20.6495 11.25 20.3315 11.25 20C11.25 19.6685 11.3817 19.3505 11.6161 19.1161C11.8505 18.8817 12.1685 18.75 12.5 18.75H27.5C27.8315 18.75 28.1495 18.8817 28.3839 19.1161C28.6183 19.3505 28.75 19.6685 28.75 20C28.75 20.3315 28.6183 20.6495 28.3839 20.8839C28.1495 21.1183 27.8315 21.25 27.5 21.25ZM32.5 15H7.5C7.16848 15 6.85054 14.8683 6.61612 14.6339C6.3817 14.3995 6.25 14.0815 6.25 13.75C6.25 13.4185 6.3817 13.1005 6.61612 12.8661C6.85054 12.6317 7.16848 12.5 7.5 12.5H32.5C32.8315 12.5 33.1495 12.6317 33.3839 12.8661C33.6183 13.1005 33.75 13.4185 33.75 13.75C33.75 14.0815 33.6183 14.3995 33.3839 14.6339C33.1495 14.8683 32.8315 15 32.5 15Z" fill="#F4F4F4"/>
</svg>
