<svg width="40" height="40" viewBox="0 0 40 40" fill="none" xmlns="http://www.w3.org/2000/svg">
<path d="M13.8388 5.46873C13.7145 5.16083 13.7175 4.81616 13.8473 4.51053C13.9772 4.20491 14.2231 3.96336 14.531 3.83904C14.8389 3.71472 15.1835 3.71781 15.4892 3.84762C15.7948 3.97743 16.0363 4.22333 16.1606 4.53123L17.4106 7.65623C17.4722 7.80869 17.5031 7.97178 17.5017 8.13619C17.5002 8.30059 17.4663 8.4631 17.4021 8.61443C17.3378 8.76576 17.2443 8.90295 17.127 9.01817C17.0098 9.13338 16.8709 9.22436 16.7185 9.28592C16.566 9.34748 16.4029 9.3784 16.2385 9.37693C16.0741 9.37546 15.9116 9.34162 15.7603 9.27735C15.6089 9.21307 15.4717 9.11962 15.3565 9.00232C15.2413 8.88503 15.1503 8.74619 15.0888 8.59373L13.8388 5.46873ZM4.53096 16.1609L7.65596 17.4109C7.80841 17.4725 7.9715 17.5034 8.13591 17.5019C8.30032 17.5005 8.46283 17.4666 8.61416 17.4023C8.76549 17.3381 8.90268 17.2446 9.01789 17.1273C9.1331 17.01 9.22409 16.8712 9.28565 16.7187C9.3472 16.5663 9.37813 16.4032 9.37666 16.2388C9.37519 16.0744 9.34135 15.9119 9.27707 15.7605C9.21279 15.6092 9.11934 15.472 9.00205 15.3568C8.88475 15.2416 8.74591 15.1506 8.59346 15.089L5.46846 13.839C5.16056 13.7147 4.81588 13.7178 4.51026 13.8476C4.20463 13.9774 3.96309 14.2233 3.83877 14.5312C3.71445 14.8391 3.71753 15.1838 3.84734 15.4894C3.97716 15.7951 4.22306 16.0366 4.53096 16.1609ZM35.4685 23.839L32.3435 22.589C32.0356 22.4647 31.6909 22.4678 31.3853 22.5976C31.0796 22.7274 30.8381 22.9733 30.7138 23.2812C30.5895 23.5891 30.5925 23.9338 30.7223 24.2394C30.8522 24.5451 31.0981 24.7866 31.406 24.9109L34.531 26.1609C34.8389 26.2852 35.1835 26.2822 35.4892 26.1523C35.7948 26.0225 36.0363 25.7766 36.1606 25.4687C36.285 25.1608 36.2819 24.8162 36.1521 24.5105C36.0223 24.2049 35.7764 23.9634 35.4685 23.839ZM24.9106 31.4062C24.7863 31.0983 24.5448 30.8524 24.2392 30.7226C23.9335 30.5928 23.5889 30.5897 23.281 30.714C22.9731 30.8384 22.7272 31.0799 22.5973 31.3855C22.4675 31.6912 22.4645 32.0358 22.5888 32.3437L23.8388 35.4687C23.9631 35.7766 24.2046 36.0225 24.5103 36.1523C24.8159 36.2822 25.1606 36.2852 25.4685 36.1609C25.7764 36.0366 26.0223 35.7951 26.1521 35.4894C26.2819 35.1838 26.285 34.8391 26.1606 34.5312L24.9106 31.4062ZM37.1731 2.89373C37.0585 2.77139 36.9204 2.67337 36.7671 2.60551C36.6137 2.53764 36.4483 2.50131 36.2807 2.49869C36.113 2.49606 35.9466 2.5272 35.7912 2.59023C35.6358 2.65327 35.4947 2.74692 35.3763 2.86561L27.1872 11.0547L26.3466 10.214C25.8822 9.74916 25.3308 9.38037 24.7238 9.12875C24.1168 8.87712 23.4662 8.74761 22.8091 8.74761C22.152 8.74761 21.5014 8.87712 20.8944 9.12875C20.2874 9.38037 19.7359 9.74916 19.2716 10.214L16.5841 12.8969C16.526 12.9549 16.4799 13.0238 16.4484 13.0997C16.417 13.1756 16.4008 13.2569 16.4008 13.339C16.4008 13.4212 16.417 13.5025 16.4484 13.5784C16.4799 13.6543 16.526 13.7232 16.5841 13.7812L26.2247 23.4156C26.2828 23.4737 26.3517 23.5198 26.4276 23.5513C26.5034 23.5827 26.5848 23.5989 26.6669 23.5989C26.749 23.5989 26.8304 23.5827 26.9062 23.5513C26.9821 23.5198 27.051 23.4737 27.1091 23.4156L29.7247 20.8C30.6727 19.8703 31.2223 18.6086 31.2575 17.2812C31.2705 16.6102 31.1474 15.9435 30.8958 15.3213C30.6442 14.6991 30.2692 14.1343 29.7935 13.6609L28.9528 12.8219L37.1091 4.67029C37.3468 4.43958 37.4862 4.12594 37.4981 3.79489C37.5101 3.46383 37.3936 3.14097 37.1731 2.89373ZM13.381 14.1156C13.2625 13.9972 13.1215 13.9037 12.9663 13.8408C12.8111 13.7779 12.6448 13.7469 12.4773 13.7495C12.3099 13.7521 12.1447 13.7884 11.9915 13.8561C11.8383 13.9238 11.7003 14.0216 11.5856 14.1437C11.3652 14.391 11.2487 14.7138 11.2607 15.0449C11.2726 15.3759 11.412 15.6896 11.6497 15.9203L12.6044 16.875L10.2091 19.2672C9.73437 19.7408 9.36036 20.3055 9.10956 20.9274C8.85877 21.5493 8.73636 22.2155 8.74971 22.8859C8.7827 24.2129 9.33008 25.4752 10.2763 26.4062L11.0575 27.1781L2.88877 35.3328C2.65829 35.5573 2.52056 35.8602 2.50291 36.1814C2.48526 36.5026 2.58896 36.8188 2.79346 37.0672C2.90576 37.1975 3.04374 37.3032 3.19877 37.3777C3.3538 37.4522 3.52254 37.4939 3.69443 37.5002C3.86632 37.5065 4.03766 37.4773 4.19773 37.4143C4.3578 37.3514 4.50316 37.2561 4.62471 37.1344L12.8122 28.9453L13.6513 29.7859C14.5912 30.7215 15.8634 31.2467 17.1896 31.2467C18.5157 31.2467 19.7879 30.7215 20.7278 29.7859L23.1247 27.3922L24.1153 28.3844C24.2315 28.5005 24.3693 28.5926 24.5211 28.6555C24.6728 28.7183 24.8355 28.7507 24.9997 28.7507C25.164 28.7507 25.3266 28.7183 25.4783 28.6555C25.6301 28.5926 25.7679 28.5005 25.8841 28.3844C26.0002 28.2682 26.0923 28.1303 26.1552 27.9786C26.2181 27.8269 26.2504 27.6642 26.2504 27.5C26.2504 27.3357 26.2181 27.1731 26.1552 27.0214C26.0923 26.8696 26.0002 26.7317 25.8841 26.6156L13.381 14.1156Z" fill="#F4F4F4"/>
</svg>
