<svg width="226" height="64" viewBox="0 0 226 64" fill="none" xmlns="http://www.w3.org/2000/svg">
    <path
        d="M61.1192 27.8764H58.6055V31.5763H48.8332C48.8332 31.0397 48.7767 30.5031 48.7202 29.9947V30.0512L63.4916 25.2498L62.5031 22.1712C60.9215 22.3972 59.1704 21.2392 58.4361 19.0362L56.0635 19.7988L57.2216 23.3292L47.9294 26.3513C47.7599 25.8711 47.5622 25.391 47.3645 24.9391L59.9047 15.8447L58.0124 13.2462C56.572 13.9523 54.5384 13.3875 53.1827 11.5516L51.1492 13.0203L53.3239 16.0141L45.4157 21.7476C45.0768 21.3239 44.7379 20.9285 44.3707 20.5331L44.4272 20.5896L53.5499 8.04943L50.9515 6.1571C49.8218 7.28685 47.7034 7.37158 45.8111 6.01588L44.3425 8.04943L47.3363 10.2242L41.6028 18.1324C41.1509 17.8217 40.6991 17.5393 40.2189 17.2851H40.3036L45.105 2.57017L42.0265 1.58164C41.2922 2.99382 39.3151 3.72815 37.1121 3.05031L36.3495 5.42278L39.88 6.58076L36.8579 15.8729C36.3495 15.7317 35.8411 15.5905 35.3045 15.5057H35.361V0H32.1412C31.887 1.58164 30.2207 2.88084 27.9047 2.90909V5.42278H31.6046V15.1951C31.068 15.1951 30.5313 15.2515 29.9947 15.308H30.0794C30.0794 15.2798 25.278 0.536627 25.278 0.536627L22.1995 1.52515C22.4254 3.10679 21.2674 4.8579 19.0644 5.59223L19.827 7.9647L23.3574 6.80671L26.3796 16.0989C25.8994 16.2683 25.4193 16.466 24.9674 16.6637L15.8729 4.12357L13.2745 6.01588C13.9806 7.45631 13.4157 9.48985 11.5799 10.8455L13.0485 12.8791L16.0424 10.7043L21.7758 18.5843C21.3804 18.895 20.985 19.2339 20.6178 19.5728L8.1059 10.5066L6.21359 13.105C7.34334 14.2348 7.42807 16.353 6.07237 18.2454L8.1059 19.714L10.2807 16.7202L18.1324 22.4254C17.8217 22.8773 17.5393 23.3292 17.2851 23.8094V23.7246L2.5702 18.9232L1.58167 22.0018C2.99385 22.7361 3.72817 24.7132 3.05032 26.9162L5.42276 27.6787L6.58077 24.1483L15.8729 27.1704C15.7317 27.6787 15.5905 28.1871 15.5058 28.7237V28.6673H0V31.887C1.58164 32.1412 2.88086 33.8076 2.9091 36.1236H5.42276V32.4237H15.1951C15.1951 32.9603 15.2515 33.4969 15.308 34.0053V33.9488L0.53667 38.7502L1.5252 41.8288C3.10684 41.6028 4.85791 42.7608 5.59225 44.9638L7.96468 44.2012L6.80674 40.6708L16.0989 37.6487C16.2683 38.1289 16.466 38.609 16.6637 39.0609L4.12359 48.1553L6.0159 50.7538C7.45632 50.0477 9.48989 50.6125 10.8456 52.4484L12.8791 50.9797L10.7044 47.9859L18.6126 42.2524C18.9515 42.6761 19.2904 43.0715 19.6576 43.4669L19.6011 43.4104L10.4784 55.9506L13.0768 57.8429C14.2065 56.7132 16.3248 56.6284 18.2171 57.9841L19.6858 55.9506L16.692 53.7758L22.4537 45.8676C22.9056 46.1783 23.3575 46.4607 23.8376 46.7149H23.7529L18.9515 61.4298L22.03 62.4184C22.7643 61.0062 24.7414 60.2718 26.9444 60.9497L27.707 58.5772L24.1765 57.4192L27.1986 48.1271C27.707 48.2683 28.2154 48.4095 28.752 48.4943H28.6955V64H31.9153C32.1695 62.4184 33.8358 61.1192 36.1518 61.0909V58.5772H32.4519V48.8049C32.9886 48.8049 33.5252 48.7485 34.0618 48.692H33.9771C33.9771 48.7202 38.7785 63.4634 38.7785 63.4634L41.857 62.4749C41.6311 60.8932 42.7891 59.1421 44.9921 58.4078L44.2295 56.0353L40.6991 57.1933L37.677 47.9011C38.1571 47.7317 38.6373 47.534 39.0892 47.3363L48.1836 59.8764L50.782 57.9841C50.0759 56.5437 50.6408 54.5102 52.4766 53.1545L51.008 51.1209L48.0141 53.2957L42.2807 45.4157C42.6761 45.105 43.0715 44.7661 43.4387 44.4272L55.9506 53.4934L57.8429 50.895C56.7132 49.7652 56.6284 47.647 57.9841 45.7546L55.9506 44.286L53.7759 47.2798L45.9241 41.5746C46.2348 41.1509 46.489 40.699 46.7714 40.2189V40.2754L61.4863 45.0768L62.4748 41.9982C61.0627 41.2639 60.3283 39.2868 61.0062 37.0839L58.6337 36.3213L57.4757 39.8517L48.1836 36.8297C48.3248 36.3213 48.4661 35.7846 48.5508 35.248V35.3327H64.0565V32.113C62.4749 31.8588 61.1756 30.1924 61.1474 27.8764H61.1192ZM31.9717 41.0097C27.0291 41.0097 23.0185 36.9991 23.0185 32.0565C23.0185 27.1139 27.0291 23.1033 31.9717 23.1033C36.9144 23.1033 40.925 27.1139 40.925 32.0565C40.925 36.9991 36.9144 41.0097 31.9717 41.0097Z"
        fill="#451AE2" />
    <g clip-path="url(#clip0_8964_868)">
        <g clip-path="url(#clip1_8964_868)">
            <path
                d="M83.5163 29.5145C80.4378 29.5145 78.9126 27.5657 78.7432 25.4192L74.7891 26.4642C75.128 29.571 77.6981 33.2992 83.488 33.2992C89.278 33.2992 91.368 29.9099 91.368 26.549C91.368 23.188 89.2497 20.872 85.2674 20.1094L82.2171 19.5163C80.6072 19.2056 79.8446 18.2453 79.8446 17.0591C79.8446 15.8729 81.2004 14.2912 83.2621 14.2912C85.3239 14.2912 87.0185 16.1836 87.2445 17.3698L91.0573 16.2118C90.5772 13.7546 88.5437 10.5348 83.2339 10.5348C77.9241 10.5348 75.6364 13.5004 75.6364 17.3698C75.6364 21.2392 77.8958 22.9055 81.3698 23.6116L84.4201 24.233C86.1147 24.5719 87.075 25.5604 87.075 26.8314C87.075 28.1023 85.8041 29.5145 83.5446 29.5145H83.5163Z"
                fill="white" />
            <path
                d="M96.0846 15.2233C97.4968 15.2233 98.5982 14.0936 98.5982 12.7379C98.5982 11.3822 97.4968 10.1677 96.0846 10.1677C94.6724 10.1677 93.5709 11.2974 93.5709 12.7379C93.5709 14.1783 94.7006 15.2233 96.0846 15.2233Z"
                fill="white" />
            <path d="M98.1465 17.6805H94.0511V32.8473H98.1465V17.6805Z" fill="white" />
            <path
                d="M118.482 17.2568C116.477 17.2568 114.867 17.9347 113.68 19.7705C112.918 18.1324 111.251 17.2568 109.19 17.2568C107.128 17.2568 105.574 18.0476 104.755 19.5445V17.7087H100.83V32.8755H104.925V24.007C104.925 22.3406 105.97 21.0132 107.749 21.0132C109.529 21.0132 110.432 22.2559 110.432 23.8658V32.8755H114.499V24.007C114.499 22.3689 115.545 21.0132 117.296 21.0132C119.047 21.0132 119.979 22.2559 119.979 23.8658V32.8755H123.961V23.0467C123.961 18.9797 121.278 17.285 118.482 17.285V17.2568Z"
                fill="white" />
            <path
                d="M135.259 17.3416C132.971 17.3416 131.276 18.3583 130.598 19.5163V17.6805H126.616V38.6937H130.711V31.3504C131.446 32.3672 132.999 33.1862 135.089 33.1862C139.382 33.1862 142.235 29.797 142.235 25.1933C142.235 20.5896 139.665 17.3133 135.23 17.3133L135.259 17.3416ZM134.468 29.5428C132.378 29.5428 130.683 27.9329 130.683 25.2498C130.683 22.5666 132.378 20.985 134.468 20.985C136.558 20.985 138.224 22.5666 138.224 25.2498C138.224 27.9329 136.558 29.5428 134.468 29.5428Z"
                fill="white" />
            <path d="M149.041 10.5348H144.946V32.8473H149.041V10.5348Z" fill="white" />
            <path
                d="M159.209 17.2286C155.34 17.2286 151.753 20.3637 151.753 25.2216C151.753 30.0795 155.424 33.3275 159.576 33.3275C163.728 33.3275 165.705 31.1527 166.468 28.526L163.05 27.5093C162.57 28.865 161.497 29.8253 159.604 29.8253C157.712 29.8253 155.876 28.3848 155.792 26.3795H166.637C166.637 26.323 166.694 25.7017 166.694 25.1086C166.694 20.2507 163.898 17.2569 159.209 17.2569V17.2286ZM155.876 23.5269C155.961 22.143 157.147 20.5331 159.266 20.5331C161.384 20.5331 162.598 22.0018 162.655 23.5269H155.876Z"
                fill="white" />
            <path
                d="M180.589 10.5348C174.686 10.5348 169.377 14.8843 169.377 21.9452C169.377 29.0061 174.686 33.3274 180.589 33.3274C186.492 33.3274 191.83 28.9779 191.83 21.9452C191.83 14.9126 186.521 10.5348 180.589 10.5348ZM180.589 29.1756C177.228 29.1756 173.783 26.8314 173.783 21.917C173.783 17.0026 177.228 14.6584 180.589 14.6584C183.95 14.6584 187.424 17.0026 187.424 21.917C187.424 26.8314 183.979 29.1756 180.589 29.1756Z"
                fill="white" />
            <path
                d="M202.902 17.2851C201.264 17.2851 199.456 17.9912 198.524 19.5728V17.6805H194.542V32.8473H198.637V24.12C198.637 22.3689 199.682 20.985 201.462 20.985C203.241 20.985 204.258 22.3124 204.258 24.0071V32.8473H208.353V23.301C208.353 19.9682 206.63 17.2851 202.874 17.2851H202.902Z"
                fill="white" />
            <path
                d="M226.005 25.0803C226.005 20.2224 223.209 17.2286 218.521 17.2286C213.832 17.2286 211.064 20.3637 211.064 25.2216C211.064 30.0795 214.736 33.3275 218.888 33.3275C223.04 33.3275 225.017 31.1527 225.779 28.526L222.362 27.5093C221.882 28.865 220.809 29.8253 218.916 29.8253C217.024 29.8253 215.188 28.3848 215.103 26.3795H225.949C225.949 26.323 226.005 25.7017 226.005 25.1086V25.0803ZM215.188 23.5269C215.273 22.143 216.459 20.5331 218.577 20.5331C220.696 20.5331 221.91 22.0018 221.966 23.5269H215.188Z"
                fill="white" />
        </g>
        <g clip-path="url(#clip2_8964_868)">
            <path
                d="M87.2727 38.4395H74.7891V41.2074H79.5622V53.4934H82.4995V41.2074H87.2727V38.4395Z"
                fill="white" />
            <path
                d="M91.0856 42.7325C88.4025 42.7325 85.9453 44.9073 85.9453 48.24C85.9453 51.5728 88.459 53.8322 91.3398 53.8322C94.2206 53.8322 95.5764 52.3353 96.0847 50.5277L93.7405 49.8217C93.4016 50.7537 92.6673 51.4033 91.3681 51.4033C90.0689 51.4033 88.7979 50.4148 88.7414 49.0308H96.226C96.226 48.9743 96.2824 48.5507 96.2824 48.1553C96.2824 44.7943 94.3619 42.7325 91.1138 42.7325H91.0856ZM88.7697 47.082C88.8262 46.1218 89.6452 45.0202 91.1138 45.0202C92.5825 45.0202 93.4016 46.037 93.4581 47.082H88.7979H88.7697Z"
                fill="white" />
            <path
                d="M103.089 51.2339C101.649 51.2339 100.406 50.1606 100.406 48.2683C100.406 46.376 101.62 45.331 103.061 45.331C104.501 45.331 105.123 46.2348 105.377 47.0821L107.891 46.2348C107.439 44.4837 105.829 42.7043 102.976 42.7043C100.123 42.7043 97.5533 45.0203 97.5533 48.2401C97.5533 51.4598 99.9823 53.7758 103.061 53.7758C106.139 53.7758 107.467 51.9964 107.947 50.2453L105.462 49.4263C105.236 50.2454 104.501 51.1774 103.061 51.1774L103.089 51.2339Z"
                fill="white" />
            <path
                d="M114.951 42.7608C113.963 42.7608 112.805 43.0997 112.127 43.9188V38.1288H109.303V53.4933H112.127V47.3645C112.184 46.2065 112.89 45.3309 114.076 45.3309C115.262 45.3309 115.996 46.2347 115.996 47.421V53.5216H118.821V46.9408C118.821 44.6531 117.578 42.789 114.923 42.789L114.951 42.7608Z"
                fill="white" />
        </g>
    </g>
    <defs>
        <clipPath id="clip0_8964_868">
            <rect width="151.216" height="43.6646" fill="white"
                transform="translate(74.7891 10.1677)" />
        </clipPath>
        <clipPath id="clip1_8964_868">
            <rect width="151.216" height="28.526" fill="white"
                transform="translate(74.7891 10.1677)" />
        </clipPath>
        <clipPath id="clip2_8964_868">
            <rect width="44.0317" height="15.7034" fill="white"
                transform="translate(74.7891 38.1288)" />
        </clipPath>
    </defs>
</svg>