<svg width="209" height="24" viewBox="0 0 209 24" fill="none" xmlns="http://www.w3.org/2000/svg">
<path d="M8.656 17.5L7.984 15.516H3.792L3.12 17.5H0.256L4.32 6.268H7.488L11.552 17.5H8.656ZM7.28 13.404L5.888 9.292L4.512 13.404H7.28ZM15.5249 13.356V17.5H12.7889V8.572H15.5249V10.06C16.1489 9.116 17.1249 8.476 18.3249 8.476V11.372H17.5729C16.2769 11.372 15.5249 11.82 15.5249 13.356ZM20.0646 14.396V10.844H18.9766V8.572H20.0646V6.396H22.8006V8.572H24.5926V10.844H22.8006V14.428C22.8006 14.956 23.0246 15.18 23.6326 15.18H24.6086V17.5H23.2166C21.3606 17.5 20.0646 16.716 20.0646 14.396ZM30.0686 10.636C29.1726 10.636 28.4846 11.18 28.3246 12.172H31.7486C31.7486 11.196 30.9806 10.636 30.0686 10.636ZM34.3406 14.54C33.9086 16.284 32.3246 17.628 30.1006 17.628C27.4766 17.628 25.5886 15.868 25.5886 13.036C25.5886 10.204 27.4446 8.444 30.1006 8.444C32.7086 8.444 34.5486 10.172 34.5486 12.892C34.5486 13.148 34.5326 13.42 34.5006 13.692H28.3086C28.4046 14.86 29.1246 15.404 30.0046 15.404C30.7726 15.404 31.2046 15.02 31.4286 14.54H34.3406ZM43.5906 6.268C47.1746 6.268 49.4786 8.54 49.4786 11.884C49.4786 15.212 47.1746 17.5 43.5906 17.5H39.3826V6.268H43.5906ZM42.1186 15.132H43.4146C45.4786 15.132 46.6946 13.948 46.6946 11.884C46.6946 9.82 45.4786 8.604 43.4146 8.604H42.1186V15.132ZM54.9436 10.636C54.0476 10.636 53.3596 11.18 53.1996 12.172H56.6236C56.6236 11.196 55.8556 10.636 54.9436 10.636ZM59.2156 14.54C58.7836 16.284 57.1996 17.628 54.9756 17.628C52.3516 17.628 50.4636 15.868 50.4636 13.036C50.4636 10.204 52.3196 8.444 54.9756 8.444C57.5836 8.444 59.4236 10.172 59.4236 12.892C59.4236 13.148 59.4076 13.42 59.3756 13.692H53.1836C53.2796 14.86 53.9996 15.404 54.8796 15.404C55.6476 15.404 56.0796 15.02 56.3036 14.54H59.2156ZM67.219 8.572V10.748L63.427 15.244H67.299V17.5H60.371V15.324L64.083 10.828H60.403V8.572H67.219ZM76.4031 6.268C79.9871 6.268 82.2911 8.54 82.2911 11.884C82.2911 15.212 79.9871 17.5 76.4031 17.5H72.1951V6.268H76.4031ZM74.9311 15.132H76.2271C78.2911 15.132 79.5071 13.948 79.5071 11.884C79.5071 9.82 78.2911 8.604 76.2271 8.604H74.9311V15.132ZM87.7561 10.636C86.8601 10.636 86.1721 11.18 86.0121 12.172H89.4361C89.4361 11.196 88.6681 10.636 87.7561 10.636ZM92.0281 14.54C91.5961 16.284 90.0121 17.628 87.7881 17.628C85.1641 17.628 83.2761 15.868 83.2761 13.036C83.2761 10.204 85.1321 8.444 87.7881 8.444C90.3961 8.444 92.2361 10.172 92.2361 12.892C92.2361 13.148 92.2201 13.42 92.1881 13.692H85.9961C86.0921 14.86 86.8121 15.404 87.6921 15.404C88.4601 15.404 88.8921 15.02 89.1161 14.54H92.0281ZM100.928 14.908C100.928 16.46 99.5515 17.628 97.3115 17.628C94.9275 17.628 93.3275 16.3 93.1995 14.572H95.9035C95.9675 15.196 96.5275 15.612 97.2795 15.612C97.9835 15.612 98.3515 15.292 98.3515 14.892C98.3515 13.452 93.4875 14.492 93.4875 11.212C93.4875 9.692 94.7835 8.444 97.1195 8.444C99.4235 8.444 100.704 9.724 100.88 11.484H98.3515C98.2715 10.876 97.8075 10.476 97.0395 10.476C96.3995 10.476 96.0475 10.732 96.0475 11.164C96.0475 12.588 100.88 11.58 100.928 14.908ZM102.601 17.5V8.572H105.337V17.5H102.601ZM103.977 7.644C103.001 7.644 102.345 6.988 102.345 6.172C102.345 5.34 103.001 4.684 103.977 4.684C104.937 4.684 105.593 5.34 105.593 6.172C105.593 6.988 104.937 7.644 103.977 7.644ZM106.776 13.02C106.776 10.204 108.52 8.444 110.712 8.444C112.024 8.444 112.984 9.036 113.464 9.836V8.572H116.2V17.484C116.2 19.868 114.824 21.9 111.736 21.9C109.08 21.9 107.352 20.556 107.112 18.428H109.816C109.992 19.1 110.664 19.532 111.608 19.532C112.648 19.532 113.464 18.988 113.464 17.484V16.22C112.968 17.004 112.024 17.628 110.712 17.628C108.52 17.628 106.776 15.836 106.776 13.02ZM113.464 13.036C113.464 11.612 112.552 10.828 111.512 10.828C110.488 10.828 109.56 11.596 109.56 13.02C109.56 14.444 110.488 15.244 111.512 15.244C112.552 15.244 113.464 14.46 113.464 13.036ZM124.34 17.5V12.652C124.34 11.436 123.668 10.764 122.628 10.764C121.588 10.764 120.916 11.436 120.916 12.652V17.5H118.18V8.572H120.916V9.756C121.46 9.004 122.42 8.476 123.62 8.476C125.684 8.476 127.06 9.884 127.06 12.284V17.5H124.34ZM140.319 8.988H137.743C137.759 8.38 137.391 8.092 136.911 8.092C136.399 8.092 136.015 8.412 136.015 8.892C136.015 9.356 136.319 9.82 136.911 10.444L139.647 13.116C139.711 12.972 139.791 12.828 139.855 12.668L140.447 11.66H143.183L142.415 13.052C142.111 13.724 141.775 14.316 141.423 14.844L144.127 17.5H140.943L139.903 16.492C138.879 17.276 137.663 17.676 136.191 17.676C133.583 17.676 131.935 16.316 131.935 14.236C131.935 12.86 132.671 11.66 134.223 10.924C133.647 10.236 133.439 9.628 133.439 8.908C133.439 7.324 134.703 6.044 136.943 6.044C139.231 6.044 140.367 7.436 140.319 8.988ZM136.319 15.468C137.055 15.468 137.679 15.26 138.223 14.86L135.727 12.444C134.959 12.844 134.575 13.404 134.575 14.044C134.575 14.828 135.231 15.468 136.319 15.468ZM148.044 11.868C148.044 8.508 150.38 6.14 153.692 6.14C156.364 6.14 158.38 7.644 159.02 10.076H156.012C155.548 9.116 154.7 8.636 153.66 8.636C151.98 8.636 150.828 9.884 150.828 11.868C150.828 13.852 151.98 15.1 153.66 15.1C154.7 15.1 155.548 14.62 156.012 13.66H159.02C158.38 16.092 156.364 17.58 153.692 17.58C150.38 17.58 148.044 15.228 148.044 11.868ZM171.751 11.852C171.751 15.228 169.191 17.612 166.007 17.612C162.823 17.612 160.231 15.228 160.231 11.852C160.231 8.476 162.823 6.108 166.007 6.108C169.207 6.108 171.751 8.476 171.751 11.852ZM163.031 11.852C163.031 13.82 164.183 15.116 166.007 15.116C167.799 15.116 168.967 13.82 168.967 11.852C168.967 9.852 167.799 8.588 166.007 8.588C164.183 8.588 163.031 9.852 163.031 11.852ZM176.169 16.156C176.169 16.972 175.513 17.628 174.553 17.628C173.577 17.628 172.921 16.972 172.921 16.156C172.921 15.308 173.577 14.652 174.553 14.652C175.513 14.652 176.169 15.308 176.169 16.156Z" fill="#E6E6E6"/>
<path d="M0 19.1H106.45V19.9H0V19.1ZM116.761 19.1H176.793V19.9H116.761V19.1Z" fill="#E6E6E6"/>
<g clip-path="url(#clip0_2239_1443)">
<path d="M208.031 4.34961H207.278V21.3176H206.3V23.9996H209V21.3176H208.031V4.34961Z" fill="#E6E6E6"/>
<path d="M206.3 0V0.966H189.296V1.713H206.3V2.682H209V0H206.3Z" fill="#E6E6E6"/>
<path d="M185.975 19.653H186.728V2.682H187.7V0H185V2.682H185.975V19.653Z" fill="#E6E6E6"/>
<path d="M187.7 21.3184H185V24.0004H187.7V23.0344H204.707V22.2874H187.7V21.3184Z" fill="#E6E6E6"/>
<path d="M192.73 3.50098L189.316 11.109H191.599L192.1 9.85798H195.502L196.003 11.109H198.307L194.905 3.50098H192.73ZM192.826 8.05498L193.804 5.63098L194.77 8.05498H192.823H192.826Z" fill="#E6E6E6"/>
<path d="M204.683 3.50098H197.639V5.27098H200.087V11.109H202.226V5.27098H204.683V3.50098Z" fill="#E6E6E6"/>
<path d="M190.193 12.8906V20.4986H193.454C196.181 20.4986 197.432 18.7376 197.432 16.6406C197.432 14.5436 196.139 12.8906 193.454 12.8906H190.193ZM195.299 16.6196C195.299 17.6636 194.822 18.6836 193.451 18.6836H192.32V14.6846H193.451C194.765 14.6846 195.299 15.5756 195.299 16.6196Z" fill="#E6E6E6"/>
<path d="M197.978 20.4986H204.683V18.6416H200.933L204.26 13.4996V12.8906H197.639V14.6306H201.38L197.978 19.8266V20.4986Z" fill="#E6E6E6"/>
</g>
<defs>
<clipPath id="clip0_2239_1443">
<rect width="24" height="24" fill="white" transform="translate(185)"/>
</clipPath>
</defs>
</svg>
