<svg width="324" height="294" viewBox="0 0 324 294" fill="none" xmlns="http://www.w3.org/2000/svg">
    <g filter="url(#filter0_d_370_5121)">
        <path
            d="M266.465 151.688L236.465 76.6876C235.904 75.3006 234.941 74.1131 233.7 73.2778C232.459 72.4425 230.996 71.9975 229.5 72.0001C228.954 72.0084 228.41 72.0744 227.878 72.197L169.5 85.1251V64.5001C169.5 62.511 168.709 60.6033 167.303 59.1968C165.896 57.7903 163.989 57.0001 162 57.0001C160.011 57.0001 158.103 57.7903 156.696 59.1968C155.29 60.6033 154.5 62.511 154.5 64.5001V88.4814L92.8778 102.197C91.6898 102.456 90.5826 103 89.6517 103.783C88.7207 104.565 87.994 105.562 87.534 106.688L57.534 181.688C57.1751 182.582 56.9937 183.537 56.9997 184.5C56.9997 206.353 80.0059 214.5 94.4997 214.5C108.993 214.5 132 206.353 132 184.5C132.006 183.537 131.824 182.582 131.465 181.688L104.737 114.909L154.5 103.875V222H139.5C137.511 222 135.603 222.79 134.196 224.197C132.79 225.603 132 227.511 132 229.5C132 231.489 132.79 233.397 134.196 234.803C135.603 236.21 137.511 237 139.5 237H184.5C186.489 237 188.396 236.21 189.803 234.803C191.209 233.397 192 231.489 192 229.5C192 227.511 191.209 225.603 189.803 224.197C188.396 222.79 186.489 222 184.5 222H169.5V100.519L217.312 89.9064L192.534 151.688C192.175 152.582 191.994 153.537 192 154.5C192 176.353 215.006 184.5 229.5 184.5C243.993 184.5 267 176.353 267 154.5C267.006 153.537 266.824 152.582 266.465 151.688ZM116.465 184.5H72.5809L94.4997 129.694L116.465 184.5ZM207.628 154.5L229.5 99.6939L251.418 154.5H207.628Z"
            fill="url(#paint0_linear_370_5121)" />
    </g>
    <defs>
        <filter id="filter0_d_370_5121" x="0.399513" y="0.400124" width="323.2" height="293.2"
            filterUnits="userSpaceOnUse" color-interpolation-filters="sRGB">
            <feFlood flood-opacity="0" result="BackgroundImageFix" />
            <feColorMatrix in="SourceAlpha" type="matrix"
                values="0 0 0 0 0 0 0 0 0 0 0 0 0 0 0 0 0 0 127 0" result="hardAlpha" />
            <feOffset />
            <feGaussianBlur stdDeviation="28.3" />
            <feComposite in2="hardAlpha" operator="out" />
            <feColorMatrix type="matrix"
                values="0 0 0 0 0.270588 0 0 0 0 0.101961 0 0 0 0 0.886275 0 0 0 0.4 0" />
            <feBlend mode="normal" in2="BackgroundImageFix" result="effect1_dropShadow_370_5121" />
            <feBlend mode="normal" in="SourceGraphic" in2="effect1_dropShadow_370_5121"
                result="shape" />
        </filter>
        <linearGradient id="paint0_linear_370_5121" x1="56.9995" y1="57.0001" x2="290.732"
            y2="96.4736" gradientUnits="userSpaceOnUse">
            <stop stop-color="#2D51FD" />
            <stop offset="1" stop-color="#451AE2" />
        </linearGradient>
    </defs>
</svg>