<svg width="246" height="117" viewBox="0 0 246 117" fill="none" xmlns="http://www.w3.org/2000/svg">
    <path
        d="M111.507 50.6518H106.942V57.3931H89.1384C89.1384 56.4125 89.0465 55.4626 88.924 54.5127V54.6353C88.9546 54.6353 115.767 45.9328 115.767 45.9328L113.959 40.3559C111.078 40.7849 107.892 38.6706 106.543 34.6871L102.192 36.0967L104.276 42.5009L87.3612 47.9859C87.0547 47.0972 86.6871 46.2699 86.3194 45.4119L109.117 28.8651L105.685 24.1155C103.081 25.4025 99.4036 24.3913 96.891 21.0206L93.2139 23.6865L97.1667 29.1409L82.8261 39.5592C82.2439 38.7932 81.6004 38.0578 80.9263 37.3224L81.0489 37.4143L97.6263 14.6164L92.8768 11.1845C90.7931 13.2375 86.9628 13.3907 83.5309 10.9393L80.865 14.6164L86.3194 18.5693L75.8703 32.9405C75.0736 32.3889 74.2463 31.868 73.3883 31.4084L73.5415 31.4697L82.2439 4.65765L76.667 2.84975C75.3188 5.4237 71.7336 6.77197 67.7195 5.51564L66.3099 9.86685L72.7141 11.9505L67.2292 28.8651C66.3099 28.5893 65.3907 28.3748 64.4101 28.1909H64.5326V0H58.68C58.1897 2.88038 55.2174 5.27049 50.9888 5.30114V9.86685H57.7301V27.6394C56.7495 27.6394 55.7689 27.7313 54.7884 27.8539L54.9416 27.7926L46.2392 0.980576L40.6623 2.78848C41.0913 5.66886 38.977 8.85564 34.9935 10.2039L36.403 14.5551L42.8073 12.4714L48.2922 29.386C47.4036 29.6924 46.5763 30.0601 45.7183 30.4278L29.1714 7.62994L24.4219 11.0619C25.7089 13.6665 24.6976 17.3436 21.327 19.8562L23.9928 23.5333L29.4472 19.5804L39.8656 33.9211C39.1302 34.4726 38.4254 35.0855 37.7513 35.6983L15.0147 19.1821L11.5827 23.9317C13.6357 26.0153 13.789 29.8456 11.3376 33.2776L15.0147 35.9434L18.9675 30.4891L33.2469 40.8769C32.6953 41.6736 32.1744 42.5009 31.7148 43.3589L31.776 43.2057L4.96401 34.5033L3.15607 40.0802C5.73003 41.4284 7.07835 45.0136 5.82201 49.0277L10.1732 50.4373L12.2569 44.033L29.1714 49.518C28.8957 50.4373 28.6812 51.3565 28.4973 52.3371V52.2145H0.306396V58.0672C3.18677 58.5575 5.57681 61.5298 5.60746 65.7584H10.1732V59.0171H27.9457C27.9457 59.9977 28.0377 60.9476 28.1602 61.8975V61.7749C28.1296 61.7749 1.31753 70.4773 1.31753 70.4773L3.12547 76.0542C6.00585 75.6253 9.19264 77.7396 10.5409 81.7231L14.8921 80.3135L12.8084 73.9093L29.723 68.4243C30.0294 69.3129 30.3971 70.1403 30.7648 70.9983L7.96697 87.5451L11.3989 92.2947C14.0035 91.0077 17.6806 92.0189 20.1932 95.3895L23.8703 92.7236L19.9175 87.2693L34.258 76.8509C34.8402 77.617 35.4838 78.3524 36.1579 79.0878L36.0353 78.9959L19.4578 101.794L24.2074 105.226C26.2911 103.173 30.1214 103.019 33.5533 105.471L36.2192 101.794L30.7648 97.8409L41.2139 83.4697C42.0106 84.0212 42.8379 84.5421 43.6959 85.0018L43.5427 84.9405L34.8403 111.753L40.4172 113.56C41.7654 110.986 45.3506 109.638 49.3647 110.895L50.7743 106.543L44.37 104.46L49.855 87.5451C50.7743 87.8209 51.6935 88.0354 52.6741 88.2192H52.5515V116.41H58.4042C58.8945 113.53 61.8668 111.14 66.0954 111.109V106.543H59.3541V88.7708C60.3347 88.7708 61.3152 88.6789 62.2957 88.5563L62.1425 88.6176L70.845 115.43L76.4219 113.622C75.9929 110.741 78.1072 107.555 82.0907 106.206L80.6811 101.855L74.2769 103.939L68.792 87.0242C69.6806 86.7178 70.5079 86.3501 71.3659 85.9823L87.9127 108.78L92.6623 105.348C91.3753 102.744 92.3865 99.0666 95.7572 96.5539L93.0913 92.8769L87.637 96.8297L77.2186 82.4891C77.954 81.9376 78.6588 81.3247 79.3329 80.7119L102.069 97.2281L105.501 92.4785C103.448 90.3948 103.295 86.5645 105.747 83.1326L102.069 80.4667L98.1166 85.9211L83.8373 75.5333C84.3889 74.7366 84.8791 73.9093 85.3694 73.0819V73.2045C85.3388 73.2045 112.151 81.9069 112.151 81.9069L113.959 76.33C111.385 74.9818 110.037 71.3966 111.293 67.3825L106.942 65.9729L104.858 72.3772L87.9434 66.8922C88.2192 65.9729 88.4643 64.9924 88.6481 64.0424V64.1957H116.839V58.343C113.959 57.8527 111.599 54.8804 111.538 50.6518H111.507ZM58.5268 74.4915C49.5486 74.4915 42.2557 67.1986 42.2557 58.2204C42.2557 49.2422 49.5486 41.9493 58.5268 41.9493C67.505 41.9493 74.7978 49.2422 74.7978 58.2204C74.7978 67.1986 67.505 74.4915 58.5268 74.4915Z"
        fill="#451AE2" />
    <g clip-path="url(#clip0_8964_1484)">
        <g clip-path="url(#clip1_8964_1484)">
            <path
                d="M146.93 35.0392C143.13 35.0392 141.261 32.6491 141.016 29.9832L136.144 31.2702C136.573 35.1311 139.729 39.7274 146.899 39.7274C154.07 39.7274 156.674 35.5294 156.674 31.3621C156.674 27.1947 154.039 24.345 149.136 23.3951L145.367 22.6597C143.376 22.292 142.426 21.0969 142.426 19.5954C142.426 18.094 144.111 16.1635 146.654 16.1635C149.198 16.1635 151.312 18.4923 151.588 19.9631L156.307 18.523C155.694 15.4587 153.181 11.5059 146.624 11.5059C140.066 11.5059 137.216 15.1523 137.216 19.9631C137.216 24.774 140.005 26.827 144.295 27.7157L148.064 28.4817C150.148 28.9107 151.343 30.1364 151.343 31.6992C151.343 33.2619 149.78 35.0085 146.961 35.0085L146.93 35.0392Z"
                fill="white" />
            <path d="M164.151 20.3916H159.095V39.1447H164.151V20.3916Z" fill="white" />
            <path
                d="M161.608 17.3585C163.354 17.3585 164.733 15.9489 164.733 14.2636C164.733 12.5782 163.354 11.1074 161.608 11.1074C159.861 11.1074 158.482 12.517 158.482 14.2636C158.482 16.0102 159.892 17.3585 161.608 17.3585Z"
                fill="white" />
            <path
                d="M171.658 28.1755C171.658 26.1225 172.945 24.4678 175.152 24.4678C177.358 24.4678 178.461 25.9999 178.461 28.0223V39.1455H183.486V28.1755C183.486 26.1531 184.773 24.4678 186.949 24.4678C189.125 24.4678 190.258 25.9999 190.258 28.0223V39.1455H195.192V26.9805C195.192 21.9551 191.882 19.8408 188.42 19.8408C184.957 19.8408 183.946 20.6682 182.475 22.9663C181.525 20.9439 179.472 19.8408 176.898 19.8408C174.324 19.8408 172.424 20.8214 171.413 22.6599V20.3617H166.572V39.1148H171.628V28.1449L171.658 28.1755Z"
                fill="white" />
            <path
                d="M208.337 19.9932C205.518 19.9932 203.404 21.2495 202.577 22.6897V20.3915H197.643V46.4068H202.699V37.3367C203.618 38.593 205.518 39.6349 208.123 39.6349C213.424 39.6349 216.979 35.4369 216.979 29.7681C216.979 24.0992 213.822 19.9932 208.337 19.9932ZM207.326 35.0692C204.722 35.0692 202.638 33.0774 202.638 29.7681C202.638 26.4587 204.722 24.4976 207.326 24.4976C209.931 24.4976 211.984 26.4281 211.984 29.7681C211.984 33.1081 209.931 35.0692 207.326 35.0692Z"
                fill="white" />
            <path d="M224.455 11.5674H219.399V39.1761H224.455V11.5674Z" fill="white" />
            <path
                d="M245.384 29.5544C245.384 23.5179 241.921 19.8408 236.13 19.8408C230.339 19.8408 226.907 23.7324 226.907 29.7076C226.907 35.6829 231.442 39.7277 236.59 39.7277C241.738 39.7277 244.189 37.0312 245.139 33.7831L240.91 32.5267C240.297 34.2121 239.01 35.3765 236.651 35.3765C234.291 35.3765 232.024 33.5992 231.932 31.1172H245.353C245.353 31.0559 245.415 30.2899 245.415 29.5544H245.384ZM231.993 27.6546C232.116 25.9386 233.556 23.9469 236.191 23.9469C238.826 23.9469 240.297 25.7854 240.389 27.6546H231.993Z"
                fill="white" />
        </g>
        <g clip-path="url(#clip2_8964_1484)">
            <path
                d="M136.144 58.7253C136.144 67.4278 142.701 72.7902 150.025 72.7902C157.348 72.7902 163.936 67.4278 163.936 58.7253C163.936 50.0229 157.379 44.6299 150.025 44.6299C142.671 44.6299 136.144 49.9923 136.144 58.7253ZM158.482 58.6947C158.482 64.7925 154.223 67.7035 150.025 67.7035C145.827 67.7035 141.598 64.7925 141.598 58.6947C141.598 52.5969 145.858 49.6859 150.025 49.6859C154.192 49.6859 158.482 52.5969 158.482 58.6947Z"
                fill="white" />
            <path
                d="M171.444 61.4215C171.444 59.2459 172.731 57.5299 174.937 57.5299C177.144 57.5299 178.4 59.1846 178.4 61.2683V72.2076H183.456V60.3797C183.456 56.2736 181.311 52.9336 176.684 52.9336C172.057 52.9336 172.425 53.8222 171.26 55.7527V53.4239H166.327V72.177H171.383V61.3909L171.444 61.4215Z"
                fill="white" />
            <path
                d="M204.415 62.6169C204.415 56.5804 200.953 52.9033 195.161 52.9033C189.37 52.9033 185.938 56.7949 185.938 62.7701C185.938 68.7454 190.473 72.7902 195.621 72.7902C200.769 72.7902 203.22 70.0937 204.17 66.8456L199.941 65.5892C199.329 67.2746 198.042 68.439 195.682 68.439C193.323 68.439 191.055 66.6617 190.963 64.1797H204.385C204.385 64.1184 204.446 63.3523 204.446 62.6169H204.415ZM191.025 60.7171C191.147 59.0011 192.587 57.0094 195.223 57.0094C197.858 57.0094 199.329 58.8479 199.42 60.7171H191.025Z"
                fill="white" />
        </g>
        <g clip-path="url(#clip3_8964_1484)">
            <path
                d="M158.544 77.7236H136.144V82.7183H144.693V104.75H149.994V82.7183H158.544V77.7236Z"
                fill="white" />
            <path
                d="M165.898 85.415C161.087 85.415 156.674 89.3066 156.674 95.2819C156.674 101.257 161.21 105.302 166.357 105.302C171.505 105.302 173.957 102.605 174.907 99.3573L170.678 98.101C170.065 99.7863 168.778 100.951 166.419 100.951C164.059 100.951 161.792 99.1734 161.7 96.6914H175.121C175.121 96.6301 175.182 95.8641 175.182 95.1287C175.182 89.0921 171.72 85.415 165.928 85.415H165.898ZM161.792 93.2288C161.914 91.5129 163.355 89.5211 165.99 89.5211C168.625 89.5211 170.096 91.3596 170.188 93.2288H161.792Z"
                fill="white" />
            <path
                d="M187.47 100.675C184.865 100.675 182.659 98.7754 182.659 95.3742C182.659 91.9729 184.835 90.1037 187.439 90.1037C190.044 90.1037 191.147 91.6971 191.607 93.2598L196.142 91.7277C195.345 88.5716 192.434 85.3848 187.348 85.3848C182.261 85.3848 177.634 89.5521 177.634 95.3435C177.634 101.135 181.985 105.302 187.501 105.302C193.016 105.302 195.437 102.085 196.264 98.9593L191.791 97.4578C191.362 98.898 190.075 100.614 187.47 100.614V100.675Z"
                fill="white" />
            <path
                d="M208.705 85.5069C206.928 85.5069 204.844 86.1198 203.649 87.56V77.1416H198.593V104.75H203.649V93.7191C203.772 91.666 205.028 90.0727 207.142 90.0727C209.257 90.0727 210.605 91.7274 210.605 93.811V104.75H215.661V92.9224C215.661 88.8163 213.455 85.4763 208.674 85.4763L208.705 85.5069Z"
                fill="white" />
        </g>
    </g>
    <defs>
        <clipPath id="clip0_8964_1484">
            <rect width="109.271" height="94.1945" fill="white"
                transform="translate(136.144 11.1074)" />
        </clipPath>
        <clipPath id="clip1_8964_1484">
            <rect width="109.271" height="35.2999" fill="white"
                transform="translate(136.144 11.1074)" />
        </clipPath>
        <clipPath id="clip2_8964_1484">
            <rect width="68.3018" height="28.1603" fill="white"
                transform="translate(136.144 44.6299)" />
        </clipPath>
        <clipPath id="clip3_8964_1484">
            <rect width="79.5168" height="28.1603" fill="white"
                transform="translate(136.144 77.1416)" />
        </clipPath>
    </defs>
</svg>