<svg width="101" height="48" viewBox="0 0 101 48" fill="none" xmlns="http://www.w3.org/2000/svg">
    <path
        d="M45.8039 20.8888H43.9232V23.6655H36.5901C36.5901 23.2616 36.5522 22.8704 36.5017 22.4791V22.5296C36.5143 22.5296 47.5582 18.945 47.5582 18.945L46.8136 16.6479C45.6272 16.8246 44.3145 15.9537 43.7591 14.3129L41.9669 14.8935L42.8251 17.5314L35.858 19.7907C35.7318 19.4247 35.5803 19.0839 35.4289 18.7305L44.8194 11.9148L43.4057 9.95846C42.3329 10.4886 40.8183 10.0721 39.7833 8.68367L38.2687 9.78175L39.8969 12.0284L33.99 16.3197C33.7502 16.0042 33.4851 15.7013 33.2075 15.3984L33.258 15.4362L40.0863 6.04576L38.1299 4.63214C37.2716 5.47778 35.6939 5.54089 34.2803 4.53116L33.1822 6.04576L35.4289 7.67394L31.1249 13.5935C30.7967 13.3663 30.456 13.1517 30.1026 12.9624L30.1657 12.9876L33.7502 1.94373L31.4531 1.19905C30.8977 2.25927 29.421 2.81462 27.7676 2.29714L27.187 4.08941L29.8249 4.94768L27.5656 11.9148C27.187 11.8012 26.8083 11.7129 26.4044 11.6371H26.4549V0.025238H24.0442C23.8422 1.21167 22.6179 2.19616 20.8762 2.20878V4.08941H23.6529V11.4099C23.249 11.4099 22.8451 11.4478 22.4412 11.4983L22.5043 11.4731L18.9198 0.429139L16.6227 1.17382C16.7994 2.36025 15.9285 3.67289 14.2877 4.22824L14.8683 6.02051L17.5062 5.16225L19.7654 12.1294C19.3994 12.2556 19.0586 12.4071 18.7052 12.5585L11.8896 3.16802L9.93321 4.58165C10.4633 5.65448 10.0468 7.16908 8.65843 8.20405L9.7565 9.71865L12.0032 8.09046L16.2945 13.9974C15.9916 14.2246 15.7013 14.477 15.4236 14.7294L6.05838 7.92637L4.64475 9.88273C5.49039 10.741 5.55351 12.3187 4.54378 13.7323L6.05838 14.8304L7.68657 12.5838L13.5682 16.8625C13.341 17.1906 13.1265 17.5314 12.9372 17.8848L12.9624 17.8217L1.91848 14.2372L1.1738 16.5343C2.23402 17.0897 2.78938 18.5664 2.27189 20.2198L4.06415 20.8004L4.92243 18.1625L11.8896 20.4218C11.776 20.8004 11.6876 21.1791 11.6119 21.583V21.5325H0V23.9432C1.18643 24.1452 2.17091 25.3694 2.18353 27.1112H4.06415V24.3345H11.3847C11.3847 24.7384 11.4226 25.1296 11.4731 25.5209V25.4704C11.4604 25.4704 0.416504 29.055 0.416504 29.055L1.16118 31.3521C2.34761 31.1754 3.66027 32.0463 4.21562 33.6871L6.00789 33.1065L5.14961 30.4686L12.1168 28.2093C12.243 28.5753 12.3944 28.9161 12.5459 29.2695L3.1554 36.0852L4.56902 38.0416C5.64186 37.5115 7.15646 37.928 8.19143 39.3163L9.70603 38.2183L8.07784 35.9716L13.9847 31.6803C14.2246 31.9958 14.4896 32.2987 14.7673 32.6016L14.7168 32.5638L7.88851 41.9543L9.84486 43.3679C10.7031 42.5222 12.2808 42.4591 13.6945 43.4689L14.7925 41.9543L12.5459 40.3261L16.8499 34.4065C17.178 34.6337 17.5188 34.8483 17.8722 35.0376L17.8091 35.0124L14.2246 46.0563L16.5217 46.801C17.0771 45.7407 18.5538 45.1854 20.2072 45.7029L20.7878 43.9106L18.1499 43.0523L20.4091 36.0852C20.7878 36.1988 21.1665 36.2871 21.5703 36.3629H21.5199V47.9748H23.9306C24.1325 46.7883 25.3568 45.8038 27.0986 45.7912V43.9106H24.3218V36.5901C24.7257 36.5901 25.1296 36.5522 25.5335 36.5017L25.4704 36.527L29.055 47.5709L31.3521 46.8262C31.1754 45.6398 32.0463 44.3271 33.6871 43.7718L33.1065 41.9795L30.4686 42.8378L28.2093 35.8706C28.5753 35.7444 28.9161 35.593 29.2695 35.4415L36.0852 44.832L38.0416 43.4184C37.5114 42.3455 37.928 40.8309 39.3163 39.796L38.2182 38.2814L35.9716 39.9096L31.6803 34.0026C31.9832 33.7755 32.2735 33.523 32.5512 33.2706L41.9164 40.0736L43.33 38.1173C42.4844 37.259 42.4213 35.6813 43.431 34.2677L41.9164 33.1696L40.2882 35.4163L34.4065 31.1375C34.6337 30.8094 34.8357 30.4686 35.0376 30.1278V30.1783C35.025 30.1783 46.0689 33.7628 46.0689 33.7628L46.8136 31.4657C45.7534 30.9103 45.198 29.4336 45.7155 27.7802L43.9232 27.1996L43.065 29.8375L36.0978 27.5782C36.2114 27.1996 36.3124 26.7957 36.3881 26.4044V26.4675H48V24.0568C46.8136 23.8549 45.8417 22.6306 45.8165 20.8888H45.8039ZM23.9811 30.7084C20.2829 30.7084 17.279 27.7045 17.279 24.0063C17.279 20.3082 20.2829 17.3042 23.9811 17.3042C27.6792 17.3042 30.6831 20.3082 30.6831 24.0063C30.6831 27.7045 27.6792 30.7084 23.9811 30.7084Z"
        fill="white" />
    <g clip-path="url(#clip0_8983_4282)">
        <g clip-path="url(#clip1_8983_4282)">
            <path
                d="M60.3945 14.4581C58.8294 14.4581 58.0595 13.4736 57.9585 12.3755L55.9517 12.9056C56.1284 14.4959 57.4284 16.3892 60.3819 16.3892C63.3353 16.3892 64.4081 14.66 64.4081 12.9435C64.4081 11.2269 63.3227 10.0531 61.3032 9.66184L59.7508 9.35892C58.9304 9.20746 58.5391 8.71522 58.5391 8.09676C58.5391 7.4783 59.2333 6.68314 60.2809 6.68314C61.3285 6.68314 62.1994 7.64239 62.313 8.24822L64.2567 7.65501C64.0043 6.39284 62.9693 4.76465 60.2682 4.76465C57.5672 4.76465 56.3934 6.26663 56.3934 8.24822C56.3934 10.2298 57.542 11.0755 59.309 11.4415L60.8615 11.757C61.7198 11.9337 62.212 12.4386 62.212 13.0823C62.212 13.726 61.5683 14.4454 60.4071 14.4454L60.3945 14.4581Z"
                fill="white" />
            <path d="M67.4878 8.42493H65.4053V16.1494H67.4878V8.42493Z" fill="white" />
            <path
                d="M66.4402 7.17539C67.1597 7.17539 67.7276 6.59479 67.7276 5.9006C67.7276 5.20641 67.1597 4.60057 66.4402 4.60057C65.7208 4.60057 65.1528 5.18117 65.1528 5.9006C65.1528 6.62003 65.7334 7.17539 66.4402 7.17539Z"
                fill="white" />
            <path
                d="M70.5801 11.6308C70.5801 10.7852 71.1102 10.1036 72.0189 10.1036C72.9277 10.1036 73.3821 10.7347 73.3821 11.5677V16.1494H75.452V11.6308C75.452 10.7978 75.9821 10.1036 76.8782 10.1036C77.7744 10.1036 78.2414 10.7347 78.2414 11.5677V16.1494H80.2734V11.1386C80.2734 9.06862 78.9103 8.19773 77.4841 8.19773C76.0578 8.19773 75.6413 8.53852 75.0355 9.48514C74.6442 8.65211 73.7986 8.19773 72.7383 8.19773C71.6781 8.19773 70.8956 8.60163 70.4791 9.35893V8.4123H68.4849V16.1367H70.5674V11.6182L70.5801 11.6308Z"
                fill="white" />
            <path
                d="M85.6882 8.26084C84.527 8.26084 83.6561 8.77833 83.3153 9.37154V8.42492H81.2832V19.1407H83.3658V15.4047C83.7444 15.9222 84.527 16.3513 85.5998 16.3513C87.7834 16.3513 89.2475 14.6221 89.2475 12.2871C89.2475 9.95214 87.9474 8.26084 85.6882 8.26084ZM85.2716 14.4707C84.1988 14.4707 83.3405 13.6503 83.3405 12.2871C83.3405 10.924 84.1988 10.1162 85.2716 10.1162C86.3445 10.1162 87.1901 10.9114 87.1901 12.2871C87.1901 13.6629 86.3445 14.4707 85.2716 14.4707Z"
                fill="white" />
            <path d="M92.3272 4.7899H90.2446V16.162H92.3272V4.7899Z" fill="white" />
            <path
                d="M100.948 12.1988C100.948 9.71233 99.5215 8.19773 97.136 8.19773C94.7505 8.19773 93.3369 9.80068 93.3369 12.2619C93.3369 14.7231 95.2049 16.3892 97.3254 16.3892C99.4458 16.3892 100.456 15.2785 100.847 13.9406L99.105 13.4231C98.8526 14.1173 98.3225 14.5969 97.3506 14.5969C96.3787 14.5969 95.4447 13.8648 95.4069 12.8425H100.935C100.935 12.8172 100.96 12.5017 100.96 12.1988H100.948ZM95.4321 11.4162C95.4826 10.7094 96.0758 9.88903 97.1613 9.88903C98.2467 9.88903 98.8526 10.6463 98.8904 11.4162H95.4321Z"
                fill="white" />
        </g>
        <g clip-path="url(#clip2_8983_4282)">
            <path
                d="M55.9517 24.2146C55.9517 27.7991 58.6527 30.0079 61.6693 30.0079C64.6858 30.0079 67.3995 27.7991 67.3995 24.2146C67.3995 20.63 64.6984 18.4086 61.6693 18.4086C58.6401 18.4086 55.9517 20.6174 55.9517 24.2146ZM65.1528 24.2019C65.1528 26.7136 63.3984 27.9127 61.6693 27.9127C59.9401 27.9127 58.1983 26.7136 58.1983 24.2019C58.1983 21.6902 59.9527 20.4912 61.6693 20.4912C63.3858 20.4912 65.1528 21.6902 65.1528 24.2019Z"
                fill="white" />
            <path
                d="M70.4917 25.3253C70.4917 24.4291 71.0218 23.7223 71.9306 23.7223C72.8394 23.7223 73.3568 24.4039 73.3568 25.2622V29.7681H75.4394V24.8961C75.4394 23.2048 74.5559 21.8291 72.65 21.8291C70.7442 21.8291 70.8956 22.1951 70.416 22.9903V22.031H68.3839V29.7555H70.4665V25.3126L70.4917 25.3253Z"
                fill="white" />
            <path
                d="M84.0725 25.8175C84.0725 23.3311 82.6463 21.8165 80.2608 21.8165C77.8753 21.8165 76.4617 23.4194 76.4617 25.8806C76.4617 28.3418 78.3297 30.0079 80.4501 30.0079C82.5705 30.0079 83.5803 28.8972 83.9715 27.5593L82.2297 27.0418C81.9773 27.736 81.4472 28.2156 80.4754 28.2156C79.5035 28.2156 78.5695 27.4836 78.5316 26.4612H84.0599C84.0599 26.436 84.0851 26.1204 84.0851 25.8175H84.0725ZM78.5569 25.035C78.6074 24.3282 79.2006 23.5078 80.286 23.5078C81.3715 23.5078 81.9773 24.2651 82.0152 25.035H78.5569Z"
                fill="white" />
        </g>
        <g clip-path="url(#clip3_8983_4282)">
            <path d="M65.1781 32.04H55.9517V34.0973H59.4731V43.1722H61.6566V34.0973H65.1781V32.04Z"
                fill="white" />
            <path
                d="M68.2072 35.208C66.2256 35.208 64.4081 36.8109 64.4081 39.2722C64.4081 41.7334 66.2761 43.3994 68.3965 43.3994C70.517 43.3994 71.5267 42.2887 71.9179 40.9508L70.1762 40.4333C69.9237 41.1275 69.3936 41.6072 68.4218 41.6072C67.4499 41.6072 66.5159 40.8751 66.478 39.8527H72.0063C72.0063 39.8275 72.0316 39.512 72.0316 39.209C72.0316 36.7226 70.6053 35.208 68.2198 35.208H68.2072ZM66.5159 38.4265C66.5664 37.7197 67.1596 36.8993 68.2451 36.8993C69.3305 36.8993 69.9364 37.6566 69.9742 38.4265H66.5159Z"
                fill="white" />
            <path
                d="M77.0928 41.4936C76.0199 41.4936 75.1112 40.711 75.1112 39.31C75.1112 37.909 76.0073 37.1391 77.0802 37.1391C78.153 37.1391 78.6074 37.7954 78.7967 38.4391L80.6647 37.808C80.3365 36.508 79.1375 35.1954 77.0423 35.1954C74.9471 35.1954 73.0413 36.9119 73.0413 39.2974C73.0413 41.6829 74.8335 43.3994 77.1054 43.3994C79.3773 43.3994 80.3744 42.0742 80.7152 40.7868L78.8724 40.1683C78.6957 40.7615 78.1656 41.4683 77.0928 41.4683V41.4936Z"
                fill="white" />
            <path
                d="M85.8397 35.2459C85.1076 35.2459 84.2494 35.4983 83.7571 36.0915V31.8002H81.6746V43.1722H83.7571V38.6285C83.8076 37.7828 84.3251 37.1265 85.196 37.1265C86.0669 37.1265 86.6222 37.8081 86.6222 38.6663V43.1722H88.7048V38.3003C88.7048 36.609 87.796 35.2332 85.8271 35.2332L85.8397 35.2459Z"
                fill="white" />
        </g>
    </g>
    <defs>
        <clipPath id="clip0_8983_4282">
            <rect width="45.0087" height="38.7989" fill="white"
                transform="translate(55.9517 4.60057)" />
        </clipPath>
        <clipPath id="clip1_8983_4282">
            <rect width="45.0087" height="14.5401" fill="white"
                transform="translate(55.9517 4.60057)" />
        </clipPath>
        <clipPath id="clip2_8983_4282">
            <rect width="28.1336" height="11.5993" fill="white"
                transform="translate(55.9517 18.4086)" />
        </clipPath>
        <clipPath id="clip3_8983_4282">
            <rect width="32.7531" height="11.5993" fill="white"
                transform="translate(55.9517 31.8002)" />
        </clipPath>
    </defs>
</svg>