<svg width="45" height="45" viewBox="0 0 45 45" fill="none" xmlns="http://www.w3.org/2000/svg">
<path d="M22.0334 30.2832C22.2412 30.402 22.4764 30.4645 22.7158 30.4645C22.9551 30.4645 23.1903 30.402 23.3981 30.2832C23.8192 30.0409 33.7106 24.2676 33.7106 13.9637C33.6242 11.1059 32.4285 8.39409 30.3769 6.4028C28.3253 4.41152 25.579 3.29726 22.72 3.29614C19.8609 3.29503 17.1137 4.40714 15.0606 6.39682C13.0074 8.3865 11.8096 11.0974 11.7209 13.9551C11.7209 24.2676 21.6175 30.0323 22.0334 30.2832ZM22.7209 9.83011C23.5368 9.83011 24.3343 10.072 25.0127 10.5253C25.691 10.9786 26.2197 11.6228 26.5319 12.3765C26.8442 13.1303 26.9259 13.9597 26.7667 14.7599C26.6075 15.56 26.2147 16.295 25.6378 16.8719C25.0609 17.4488 24.3259 17.8417 23.5257 18.0008C22.7255 18.16 21.8961 18.0783 21.1424 17.7661C20.3886 17.4539 19.7444 16.9252 19.2911 16.2468C18.8379 15.5685 18.5959 14.771 18.5959 13.9551C18.5959 12.8611 19.0305 11.8119 19.8041 11.0383C20.5777 10.2647 21.6269 9.83011 22.7209 9.83011ZM41.9709 31.8301C41.9709 37.1892 32.052 40.0801 22.7209 40.0801C13.3899 40.0801 3.47095 37.1892 3.47095 31.8301C3.47095 29.3225 5.74313 27.1018 9.86985 25.579C10.2083 25.4672 10.5769 25.4912 10.898 25.6459C11.2191 25.8006 11.4675 26.0739 11.591 26.4082C11.7145 26.7426 11.7033 27.1118 11.5599 27.4381C11.4164 27.7643 11.1519 28.0221 10.822 28.1571C7.98439 29.2073 6.22095 30.6132 6.22095 31.8301C6.22095 34.1264 12.4978 37.3301 22.7209 37.3301C32.9441 37.3301 39.2209 34.1264 39.2209 31.8301C39.2209 30.6132 37.4575 29.2073 34.6199 28.1589C34.29 28.0238 34.0255 27.766 33.882 27.4398C33.7386 27.1135 33.7274 26.7443 33.8509 26.4099C33.9744 26.0756 34.2228 25.8023 34.5439 25.6476C34.865 25.4929 35.2336 25.4689 35.572 25.5807C39.6988 27.1018 41.9709 29.3225 41.9709 31.8301Z" fill="white"/>
</svg>
