<svg width="310" height="317" viewBox="0 0 310 317" fill="none" xmlns="http://www.w3.org/2000/svg">
    <g filter="url(#filter0_d_430_5164)">
        <path
            d="M222.5 95.0088H162.5V65.0088C162.5 63.0197 161.71 61.112 160.303 59.7055C158.897 58.299 156.989 57.5088 155 57.5088C153.011 57.5088 151.103 58.299 149.697 59.7055C148.29 61.112 147.5 63.0197 147.5 65.0088V95.0088H87.5C79.5435 95.0088 71.9129 98.1695 66.2868 103.796C60.6607 109.422 57.5 117.052 57.5 125.009V230.009C57.5 237.965 60.6607 245.596 66.2868 251.222C71.9129 256.848 79.5435 260.009 87.5 260.009H222.5C230.456 260.009 238.087 256.848 243.713 251.222C249.339 245.596 252.5 237.965 252.5 230.009V125.009C252.5 117.052 249.339 109.422 243.713 103.796C238.087 98.1695 230.456 95.0088 222.5 95.0088ZM196.25 140.009C198.475 140.009 200.65 140.669 202.5 141.905C204.35 143.141 205.792 144.898 206.644 146.954C207.495 149.009 207.718 151.271 207.284 153.454C206.85 155.636 205.778 157.64 204.205 159.214C202.632 160.787 200.627 161.859 198.445 162.293C196.262 162.727 194 162.504 191.945 161.652C189.889 160.801 188.132 159.359 186.896 157.509C185.66 155.659 185 153.484 185 151.259C185 148.275 186.185 145.414 188.295 143.304C190.405 141.194 193.266 140.009 196.25 140.009ZM125 222.509H110C106.022 222.509 102.206 220.928 99.3934 218.115C96.5804 215.302 95 211.487 95 207.509C95 203.531 96.5804 199.715 99.3934 196.902C102.206 194.089 106.022 192.509 110 192.509H125V222.509ZM113.75 162.509C111.525 162.509 109.35 161.849 107.5 160.613C105.65 159.377 104.208 157.62 103.356 155.564C102.505 153.508 102.282 151.246 102.716 149.064C103.15 146.882 104.222 144.877 105.795 143.304C107.368 141.73 109.373 140.659 111.555 140.225C113.738 139.791 116 140.014 118.055 140.865C120.111 141.717 121.868 143.159 123.104 145.009C124.34 146.859 125 149.034 125 151.259C125 154.242 123.815 157.104 121.705 159.214C119.595 161.324 116.734 162.509 113.75 162.509ZM170 222.509H140V192.509H170V222.509ZM200 222.509H185V192.509H200C203.978 192.509 207.794 194.089 210.607 196.902C213.42 199.715 215 203.531 215 207.509C215 211.487 213.42 215.302 210.607 218.115C207.794 220.928 203.978 222.509 200 222.509Z"
            fill="url(#paint0_linear_430_5164)" />
        <path
            d="M222.5 95.0088H162.5V65.0088C162.5 63.0197 161.71 61.112 160.303 59.7055C158.897 58.299 156.989 57.5088 155 57.5088C153.011 57.5088 151.103 58.299 149.697 59.7055C148.29 61.112 147.5 63.0197 147.5 65.0088V95.0088H87.5C79.5435 95.0088 71.9129 98.1695 66.2868 103.796C60.6607 109.422 57.5 117.052 57.5 125.009V230.009C57.5 237.965 60.6607 245.596 66.2868 251.222C71.9129 256.848 79.5435 260.009 87.5 260.009H222.5C230.456 260.009 238.087 256.848 243.713 251.222C249.339 245.596 252.5 237.965 252.5 230.009V125.009C252.5 117.052 249.339 109.422 243.713 103.796C238.087 98.1695 230.456 95.0088 222.5 95.0088ZM196.25 140.009C198.475 140.009 200.65 140.669 202.5 141.905C204.35 143.141 205.792 144.898 206.644 146.954C207.495 149.009 207.718 151.271 207.284 153.454C206.85 155.636 205.778 157.64 204.205 159.214C202.632 160.787 200.627 161.859 198.445 162.293C196.262 162.727 194 162.504 191.945 161.652C189.889 160.801 188.132 159.359 186.896 157.509C185.66 155.659 185 153.484 185 151.259C185 148.275 186.185 145.414 188.295 143.304C190.405 141.194 193.266 140.009 196.25 140.009ZM125 222.509H110C106.022 222.509 102.206 220.928 99.3934 218.115C96.5804 215.302 95 211.487 95 207.509C95 203.531 96.5804 199.715 99.3934 196.902C102.206 194.089 106.022 192.509 110 192.509H125V222.509ZM113.75 162.509C111.525 162.509 109.35 161.849 107.5 160.613C105.65 159.377 104.208 157.62 103.356 155.564C102.505 153.508 102.282 151.246 102.716 149.064C103.15 146.882 104.222 144.877 105.795 143.304C107.368 141.73 109.373 140.659 111.555 140.225C113.738 139.791 116 140.014 118.055 140.865C120.111 141.717 121.868 143.159 123.104 145.009C124.34 146.859 125 149.034 125 151.259C125 154.242 123.815 157.104 121.705 159.214C119.595 161.324 116.734 162.509 113.75 162.509ZM170 222.509H140V192.509H170V222.509ZM200 222.509H185V192.509H200C203.978 192.509 207.794 194.089 210.607 196.902C213.42 199.715 215 203.531 215 207.509C215 211.487 213.42 215.302 210.607 218.115C207.794 220.928 203.978 222.509 200 222.509Z"
            fill="url(#paint1_linear_430_5164)" />
    </g>
    <defs>
        <filter id="filter0_d_430_5164" x="0.900002" y="0.908791" width="308.2" height="315.7"
            filterUnits="userSpaceOnUse" color-interpolation-filters="sRGB">
            <feFlood flood-opacity="0" result="BackgroundImageFix" />
            <feColorMatrix in="SourceAlpha" type="matrix"
                values="0 0 0 0 0 0 0 0 0 0 0 0 0 0 0 0 0 0 127 0" result="hardAlpha" />
            <feOffset />
            <feGaussianBlur stdDeviation="28.3" />
            <feComposite in2="hardAlpha" operator="out" />
            <feColorMatrix type="matrix"
                values="0 0 0 0 0.270588 0 0 0 0 0.101961 0 0 0 0 0.886275 0 0 0 0.4 0" />
            <feBlend mode="normal" in2="BackgroundImageFix" result="effect1_dropShadow_430_5164" />
            <feBlend mode="normal" in="SourceGraphic" in2="effect1_dropShadow_430_5164"
                result="shape" />
        </filter>
        <linearGradient id="paint0_linear_430_5164" x1="57.5" y1="57.5088" x2="276.473" y2="88.0325"
            gradientUnits="userSpaceOnUse">
            <stop stop-color="#2D51FD" />
            <stop offset="1" stop-color="#451AE2" />
        </linearGradient>
        <linearGradient id="paint1_linear_430_5164" x1="57.5" y1="57.5088" x2="276.473" y2="88.0325"
            gradientUnits="userSpaceOnUse">
            <stop stop-color="#2D51FD" />
            <stop offset="1" stop-color="#451AE2" />
        </linearGradient>
    </defs>
</svg>