<svg width="298" height="306" viewBox="0 0 298 306" fill="none" xmlns="http://www.w3.org/2000/svg">
    <g filter="url(#filter0_d_267_3838)">
        <path
            d="M224 59.5H74.0002C70.022 59.5 66.2067 61.0804 63.3936 63.8934C60.5806 66.7064 59.0002 70.5218 59.0002 74.5V127C59.0002 176.425 82.9252 206.378 102.997 222.803C124.616 240.484 146.122 246.484 147.06 246.738C148.349 247.088 149.708 247.088 150.997 246.738C151.935 246.484 173.413 240.484 195.06 222.803C215.075 206.378 239 176.425 239 127V74.5C239 70.5218 237.42 66.7064 234.607 63.8934C231.794 61.0804 227.979 59.5 224 59.5ZM191.825 124.806L139.325 177.306C138.629 178.004 137.802 178.557 136.891 178.934C135.981 179.312 135.005 179.506 134.019 179.506C133.033 179.506 132.057 179.312 131.147 178.934C130.236 178.557 129.409 178.004 128.713 177.306L106.213 154.806C104.805 153.399 104.015 151.49 104.015 149.5C104.015 147.51 104.805 145.601 106.213 144.194C107.62 142.786 109.529 141.996 111.519 141.996C113.509 141.996 115.418 142.786 116.825 144.194L134 161.397L181.194 114.194C181.891 113.497 182.718 112.944 183.629 112.567C184.539 112.19 185.515 111.996 186.5 111.996C187.486 111.996 188.462 112.19 189.372 112.567C190.282 112.944 191.11 113.497 191.807 114.194C192.503 114.891 193.056 115.718 193.433 116.628C193.81 117.539 194.004 118.515 194.004 119.5C194.004 120.485 193.81 121.461 193.433 122.372C193.056 123.282 192.503 124.109 191.807 124.806H191.825Z"
            fill="url(#paint0_linear_267_3838)" />
        <path
            d="M224 59.5H74.0002C70.022 59.5 66.2067 61.0804 63.3936 63.8934C60.5806 66.7064 59.0002 70.5218 59.0002 74.5V127C59.0002 176.425 82.9252 206.378 102.997 222.803C124.616 240.484 146.122 246.484 147.06 246.738C148.349 247.088 149.708 247.088 150.997 246.738C151.935 246.484 173.413 240.484 195.06 222.803C215.075 206.378 239 176.425 239 127V74.5C239 70.5218 237.42 66.7064 234.607 63.8934C231.794 61.0804 227.979 59.5 224 59.5ZM191.825 124.806L139.325 177.306C138.629 178.004 137.802 178.557 136.891 178.934C135.981 179.312 135.005 179.506 134.019 179.506C133.033 179.506 132.057 179.312 131.147 178.934C130.236 178.557 129.409 178.004 128.713 177.306L106.213 154.806C104.805 153.399 104.015 151.49 104.015 149.5C104.015 147.51 104.805 145.601 106.213 144.194C107.62 142.786 109.529 141.996 111.519 141.996C113.509 141.996 115.418 142.786 116.825 144.194L134 161.397L181.194 114.194C181.891 113.497 182.718 112.944 183.629 112.567C184.539 112.19 185.515 111.996 186.5 111.996C187.486 111.996 188.462 112.19 189.372 112.567C190.282 112.944 191.11 113.497 191.807 114.194C192.503 114.891 193.056 115.718 193.433 116.628C193.81 117.539 194.004 118.515 194.004 119.5C194.004 120.485 193.81 121.461 193.433 122.372C193.056 123.282 192.503 124.109 191.807 124.806H191.825Z"
            fill="url(#paint1_linear_267_3838)" />
    </g>
    <defs>
        <filter id="filter0_d_267_3838" x="0.448521" y="0.948277" width="297.103" height="304.604"
            filterUnits="userSpaceOnUse" color-interpolation-filters="sRGB">
            <feFlood flood-opacity="0" result="BackgroundImageFix" />
            <feColorMatrix in="SourceAlpha" type="matrix"
                values="0 0 0 0 0 0 0 0 0 0 0 0 0 0 0 0 0 0 127 0" result="hardAlpha" />
            <feOffset />
            <feGaussianBlur stdDeviation="29.2759" />
            <feComposite in2="hardAlpha" operator="out" />
            <feColorMatrix type="matrix"
                values="0 0 0 0 0.270588 0 0 0 0 0.101961 0 0 0 0 0.886275 0 0 0 0.4 0" />
            <feBlend mode="normal" in2="BackgroundImageFix" result="effect1_dropShadow_267_3838" />
            <feBlend mode="normal" in="SourceGraphic" in2="effect1_dropShadow_267_3838"
                result="shape" />
        </filter>
        <linearGradient id="paint0_linear_267_3838" x1="59.0002" y1="59.5" x2="261.153" y2="87.5923"
            gradientUnits="userSpaceOnUse">
            <stop stop-color="#2D51FD" />
            <stop offset="1" stop-color="#451AE2" />
        </linearGradient>
        <linearGradient id="paint1_linear_267_3838" x1="59.0002" y1="59.5" x2="261.153" y2="87.5923"
            gradientUnits="userSpaceOnUse">
            <stop stop-color="#2D51FD" />
            <stop offset="1" stop-color="#451AE2" />
        </linearGradient>
    </defs>
</svg>