<svg width="56" height="56" viewBox="0 0 56 56" fill="none" xmlns="http://www.w3.org/2000/svg">
<path d="M43.75 10.5H29.75V3.5C29.75 3.03587 29.5656 2.59075 29.2374 2.26256C28.9092 1.93437 28.4641 1.75 28 1.75C27.5359 1.75 27.0908 1.93437 26.7626 2.26256C26.4344 2.59075 26.25 3.03587 26.25 3.5V10.5H12.25C10.3935 10.5 8.61301 11.2375 7.30025 12.5503C5.9875 13.863 5.25 15.6435 5.25 17.5V42C5.25 43.8565 5.9875 45.637 7.30025 46.9497C8.61301 48.2625 10.3935 49 12.25 49H43.75C45.6065 49 47.387 48.2625 48.6997 46.9497C50.0125 45.637 50.75 43.8565 50.75 42V17.5C50.75 15.6435 50.0125 13.863 48.6997 12.5503C47.387 11.2375 45.6065 10.5 43.75 10.5ZM37.625 21C38.1442 21 38.6517 21.154 39.0834 21.4424C39.5151 21.7308 39.8515 22.1408 40.0502 22.6205C40.2489 23.1001 40.3008 23.6279 40.1996 24.1371C40.0983 24.6463 39.8483 25.114 39.4812 25.4812C39.114 25.8483 38.6463 26.0983 38.1371 26.1996C37.6279 26.3008 37.1001 26.2489 36.6205 26.0502C36.1408 25.8515 35.7308 25.5151 35.4424 25.0834C35.154 24.6517 35 24.1442 35 23.625C35 22.9288 35.2766 22.2611 35.7688 21.7688C36.2611 21.2766 36.9288 21 37.625 21ZM21 40.25H17.5C16.5717 40.25 15.6815 39.8813 15.0251 39.2249C14.3687 38.5685 14 37.6783 14 36.75C14 35.8217 14.3687 34.9315 15.0251 34.2751C15.6815 33.6187 16.5717 33.25 17.5 33.25H21V40.25ZM18.375 26.25C17.8558 26.25 17.3483 26.096 16.9166 25.8076C16.4849 25.5192 16.1485 25.1092 15.9498 24.6295C15.7511 24.1499 15.6992 23.6221 15.8004 23.1129C15.9017 22.6037 16.1517 22.136 16.5188 21.7688C16.886 21.4017 17.3537 21.1517 17.8629 21.0504C18.3721 20.9492 18.8999 21.0011 19.3795 21.1998C19.8592 21.3985 20.2692 21.7349 20.5576 22.1666C20.846 22.5983 21 23.1058 21 23.625C21 24.3212 20.7234 24.9889 20.2312 25.4812C19.7389 25.9734 19.0712 26.25 18.375 26.25ZM31.5 40.25H24.5V33.25H31.5V40.25ZM38.5 40.25H35V33.25H38.5C39.4283 33.25 40.3185 33.6187 40.9749 34.2751C41.6313 34.9315 42 35.8217 42 36.75C42 37.6783 41.6313 38.5685 40.9749 39.2249C40.3185 39.8813 39.4283 40.25 38.5 40.25Z" fill="white"/>
</svg>
