<svg width="40" height="40" viewBox="0 0 40 40" fill="none" xmlns="http://www.w3.org/2000/svg">
    <path
        d="M35 19.9998V32.4998C35 33.1628 34.7366 33.7987 34.2678 34.2675C33.7989 34.7364 33.163 34.9998 32.5 34.9998H7.5C6.83696 34.9998 6.20107 34.7364 5.73223 34.2675C5.26339 33.7987 5 33.1628 5 32.4998V7.49976C5 6.83672 5.26339 6.20084 5.73223 5.732C6.20107 5.26315 6.83696 4.99976 7.5 4.99976H20C20.3315 4.99976 20.6495 5.13146 20.8839 5.36588C21.1183 5.6003 21.25 5.91824 21.25 6.24976C21.25 6.58128 21.1183 6.89923 20.8839 7.13365C20.6495 7.36807 20.3315 7.49976 20 7.49976H7.5V32.4998H32.5V19.9998C32.5 19.6682 32.6317 19.3503 32.8661 19.1159C33.1005 18.8815 33.4185 18.7498 33.75 18.7498C34.0815 18.7498 34.3995 18.8815 34.6339 19.1159C34.8683 19.3503 35 19.6682 35 19.9998ZM35.8844 10.8841L20.8844 25.8841C20.7682 26.0002 20.6303 26.0922 20.4786 26.1549C20.3268 26.2177 20.1642 26.2499 20 26.2498H15C14.6685 26.2498 14.3505 26.1181 14.1161 25.8836C13.8817 25.6492 13.75 25.3313 13.75 24.9998V19.9998C13.7499 19.8356 13.7821 19.6729 13.8448 19.5212C13.9076 19.3695 13.9996 19.2316 14.1156 19.1154L29.1156 4.11539C29.2317 3.99917 29.3696 3.90697 29.5213 3.84406C29.6731 3.78116 29.8357 3.74878 30 3.74878C30.1643 3.74878 30.3269 3.78116 30.4787 3.84406C30.6304 3.90697 30.7683 3.99917 30.8844 4.11539L35.8844 9.11539C36.0006 9.23148 36.0928 9.36934 36.1557 9.52109C36.2186 9.67283 36.251 9.83549 36.251 9.99976C36.251 10.164 36.2186 10.3267 36.1557 10.4784C36.0928 10.6302 36.0006 10.768 35.8844 10.8841ZM33.2281 9.99976L30 6.76695L28.0172 8.74976L31.25 11.9826L33.2281 9.99976Z"
        fill="white" />
</svg>