<svg width="41" height="40" viewBox="0 0 41 40" fill="none" xmlns="http://www.w3.org/2000/svg">
<path d="M32.7623 6.25H7.76227C7.09923 6.25 6.46334 6.51339 5.9945 6.98223C5.52566 7.45107 5.26227 8.08696 5.26227 8.75V17.5C5.26227 25.7375 9.24977 30.7297 12.5951 33.4672C16.1982 36.4141 19.7826 37.4141 19.9388 37.4562C20.1537 37.5147 20.3802 37.5147 20.5951 37.4562C20.7513 37.4141 24.331 36.4141 27.9388 33.4672C31.2748 30.7297 35.2623 25.7375 35.2623 17.5V8.75C35.2623 8.08696 34.9989 7.45107 34.53 6.98223C34.0612 6.51339 33.4253 6.25 32.7623 6.25ZM27.3998 17.1344L18.6498 25.8844C18.5337 26.0006 18.3958 26.0928 18.2441 26.1557C18.0923 26.2186 17.9297 26.251 17.7654 26.251C17.6011 26.251 17.4385 26.2186 17.2867 26.1557C17.135 26.0928 16.9971 26.0006 16.881 25.8844L13.131 22.1344C12.8965 21.8998 12.7647 21.5817 12.7647 21.25C12.7647 20.9183 12.8965 20.6002 13.131 20.3656C13.3656 20.1311 13.6837 19.9993 14.0154 19.9993C14.3471 19.9993 14.6652 20.1311 14.8998 20.3656L17.7623 23.2328L25.6279 15.3656C25.744 15.2495 25.8819 15.1574 26.0336 15.0945C26.1854 15.0317 26.348 14.9993 26.5123 14.9993C26.6765 14.9993 26.8391 15.0317 26.9909 15.0945C27.1426 15.1574 27.2805 15.2495 27.3966 15.3656C27.5128 15.4818 27.6049 15.6196 27.6678 15.7714C27.7306 15.9231 27.763 16.0858 27.763 16.25C27.763 16.4142 27.7306 16.5769 27.6678 16.7286C27.6049 16.8804 27.5128 17.0182 27.3966 17.1344H27.3998Z" fill="white"/>
</svg>
