<svg width="280" height="288" viewBox="0 0 280 288" fill="none" xmlns="http://www.w3.org/2000/svg">
<g opacity="0.33">
<path d="M229 169.009C229.021 172.474 227.968 175.862 225.986 178.704C224.003 181.547 221.188 183.705 217.928 184.883L163.125 205.134L142.937 259.98C141.742 263.228 139.579 266.031 136.74 268.011C133.902 269.99 130.524 271.052 127.063 271.052C123.603 271.052 120.225 269.99 117.387 268.011C114.548 266.031 112.385 263.228 111.19 259.98L90.8747 205.134L36.0285 184.946C32.7807 183.751 29.9778 181.588 27.998 178.749C26.0181 175.911 24.9565 172.533 24.9565 169.073C24.9565 165.612 26.0181 162.234 27.998 159.396C29.9778 156.557 32.7807 154.394 36.0285 153.199L90.8747 132.884L111.062 78.0375C112.258 74.7898 114.421 71.9869 117.259 70.007C120.098 68.0271 123.475 66.9656 126.936 66.9656C130.397 66.9656 133.774 68.0271 136.613 70.007C139.451 71.9869 141.614 74.7898 142.81 78.0375L163.125 132.884L217.971 153.071C221.233 154.259 224.046 156.43 226.022 159.285C227.997 162.14 229.038 165.537 229 169.009ZM169.5 67.0088H186.5V84.0088C186.5 86.2631 187.395 88.4251 188.989 90.0192C190.583 91.6133 192.745 92.5088 195 92.5088C197.254 92.5088 199.416 91.6133 201.01 90.0192C202.604 88.4251 203.5 86.2631 203.5 84.0088V67.0088H220.5C222.754 67.0088 224.916 66.1133 226.51 64.5192C228.104 62.9251 229 60.7631 229 58.5088C229 56.2544 228.104 54.0924 226.51 52.4984C224.916 50.9043 222.754 50.0088 220.5 50.0088H203.5V33.0088C203.5 30.7544 202.604 28.5924 201.01 26.9984C199.416 25.4043 197.254 24.5088 195 24.5088C192.745 24.5088 190.583 25.4043 188.989 26.9984C187.395 28.5924 186.5 30.7544 186.5 33.0088V50.0088H169.5C167.245 50.0088 165.083 50.9043 163.489 52.4984C161.895 54.0924 161 56.2544 161 58.5088C161 60.7631 161.895 62.9251 163.489 64.5192C165.083 66.1133 167.245 67.0088 169.5 67.0088ZM263 101.009H254.5V92.5088C254.5 90.2544 253.604 88.0924 252.01 86.4984C250.416 84.9043 248.254 84.0088 246 84.0088C243.745 84.0088 241.583 84.9043 239.989 86.4984C238.395 88.0924 237.5 90.2544 237.5 92.5088V101.009H229C226.745 101.009 224.583 101.904 222.989 103.498C221.395 105.092 220.5 107.254 220.5 109.509C220.5 111.763 221.395 113.925 222.989 115.519C224.583 117.113 226.745 118.009 229 118.009H237.5V126.509C237.5 128.763 238.395 130.925 239.989 132.519C241.583 134.113 243.745 135.009 246 135.009C248.254 135.009 250.416 134.113 252.01 132.519C253.604 130.925 254.5 128.763 254.5 126.509V118.009H263C265.254 118.009 267.416 117.113 269.01 115.519C270.604 113.925 271.5 111.763 271.5 109.509C271.5 107.254 270.604 105.092 269.01 103.498C267.416 101.904 265.254 101.009 263 101.009Z" fill="#13161C"/>
</g>
<path d="M221 153.009C221.021 156.474 219.968 159.862 217.986 162.704C216.003 165.547 213.188 167.705 209.928 168.883L155.125 189.134L134.937 243.98C133.742 247.228 131.579 250.031 128.74 252.011C125.902 253.99 122.524 255.052 119.063 255.052C115.603 255.052 112.225 253.99 109.387 252.011C106.548 250.031 104.385 247.228 103.19 243.98L82.8747 189.134L28.0285 168.946C24.7807 167.751 21.9778 165.588 19.998 162.749C18.0181 159.911 16.9565 156.533 16.9565 153.073C16.9565 149.612 18.0181 146.234 19.998 143.396C21.9778 140.557 24.7807 138.394 28.0285 137.199L82.8747 116.884L103.062 62.0375C104.258 58.7898 106.421 55.9869 109.259 54.007C112.098 52.0271 115.475 50.9656 118.936 50.9656C122.397 50.9656 125.774 52.0271 128.613 54.007C131.451 55.9869 133.614 58.7898 134.81 62.0375L155.125 116.884L209.971 137.071C213.233 138.259 216.046 140.43 218.022 143.285C219.997 146.14 221.038 149.537 221 153.009ZM161.5 51.0088H178.5V68.0088C178.5 70.2631 179.395 72.4251 180.989 74.0192C182.583 75.6133 184.745 76.5088 187 76.5088C189.254 76.5088 191.416 75.6133 193.01 74.0192C194.604 72.4251 195.5 70.2631 195.5 68.0088V51.0088H212.5C214.754 51.0088 216.916 50.1133 218.51 48.5192C220.104 46.9251 221 44.7631 221 42.5088C221 40.2544 220.104 38.0924 218.51 36.4984C216.916 34.9043 214.754 34.0088 212.5 34.0088H195.5V17.0088C195.5 14.7544 194.604 12.5924 193.01 10.9984C191.416 9.40432 189.254 8.50879 187 8.50879C184.745 8.50879 182.583 9.40432 180.989 10.9984C179.395 12.5924 178.5 14.7544 178.5 17.0088V34.0088H161.5C159.245 34.0088 157.083 34.9043 155.489 36.4984C153.895 38.0924 153 40.2544 153 42.5088C153 44.7631 153.895 46.9251 155.489 48.5192C157.083 50.1133 159.245 51.0088 161.5 51.0088ZM255 85.0088H246.5V76.5088C246.5 74.2544 245.604 72.0924 244.01 70.4984C242.416 68.9043 240.254 68.0088 238 68.0088C235.745 68.0088 233.583 68.9043 231.989 70.4984C230.395 72.0924 229.5 74.2544 229.5 76.5088V85.0088H221C218.745 85.0088 216.583 85.9043 214.989 87.4984C213.395 89.0924 212.5 91.2544 212.5 93.5088C212.5 95.7631 213.395 97.9251 214.989 99.5192C216.583 101.113 218.745 102.009 221 102.009H229.5V110.509C229.5 112.763 230.395 114.925 231.989 116.519C233.583 118.113 235.745 119.009 238 119.009C240.254 119.009 242.416 118.113 244.01 116.519C245.604 114.925 246.5 112.763 246.5 110.509V102.009H255C257.254 102.009 259.416 101.113 261.01 99.5192C262.604 97.9251 263.5 95.7631 263.5 93.5088C263.5 91.2544 262.604 89.0924 261.01 87.4984C259.416 85.9043 257.254 85.0088 255 85.0088Z" fill="white"/>
</svg>
