<svg width="12" height="1985" viewBox="0 0 12 1985" fill="none" xmlns="http://www.w3.org/2000/svg">
    <path
        d="M6 1985L11.7735 1975H0.226497L6 1985ZM7 0.999962C7 0.447678 6.55228 -3.75153e-05 6 -3.75153e-05C5.44772 -3.75153e-05 5 0.447678 5 0.999962H7ZM6 1976H7L7 1964.33H6H5L5 1976H6ZM6 1923H7L7 1881.67H6H5L5 1923H6ZM6 1840.33H7L7 1799H6H5L5 1840.33H6ZM6 1757.67H7L7 1716.33H6H5L5 1757.67H6ZM6 1675H7L7 1633.67H6H5L5 1675H6ZM6 1592.33H7L7 1551H6H5L5 1592.33H6ZM6 1509.67H7L7 1468.33H6H5L5 1509.67H6ZM6 1427H7L7 1385.67H6H5L5 1427H6ZM6 1344.33H7L7 1303H6H5L5 1344.33H6ZM6 1261.67H7L7 1220.33H6H5L5 1261.67H6ZM6 1179H7L7 1137.67H6H5L5 1179H6ZM6 1096.33H7L7 1055H6H5L5 1096.33H6ZM6 1013.67H7L7 972.334H6H5L5 1013.67H6ZM6 931H7L7 889.667H6H5L5 931H6ZM6 848.334H7L7 807H6H5L5 848.334H6ZM6 765.667H7L7 724.333H6H5L5 765.667H6ZM6 683H7L7 641.667H6H5L5 683H6ZM6 600.333H7L7 559H6H5L5 600.333H6ZM6 517.666H7L7 476.333H6H5L5 517.666H6ZM6 435H7L7 393.666H6H5L5 435H6ZM6 352.333H7L7 311H6H5L5 352.333H6ZM6 269.666H7L7 228.333H6H5L5 269.666H6ZM6 186.999H7L7 145.666H6H5L5 186.999H6ZM6 104.333H7L7 62.9994H6H5L5 104.333H6ZM6 21.666H7L7 0.999962H6H5L5 21.666H6Z"
        fill="url(#paint0_linear_59_2676)" />
    <defs>
        <linearGradient id="paint0_linear_59_2676" x1="6.5" y1="1" x2="6.5" y2="1985"
            gradientUnits="userSpaceOnUse">
            <stop stop-color="#451AE2" stop-opacity="0" />
            <stop offset="0.5" stop-color="#E21AA6" />
            <stop offset="1" stop-color="#451AE2" />
        </linearGradient>
    </defs>
</svg>