<svg width="240" height="240" viewBox="0 0 240 240" fill="none" xmlns="http://www.w3.org/2000/svg">
    <g clip-path="url(#clip0_429_4898)">
        <g filter="url(#filter0_d_429_4898)">
            <path
                d="M20.0499 219.99L33.5685 170.315C24.6608 155.045 19.9809 137.678 20.0099 120C20.0099 64.7753 64.7754 20.0098 120 20.0098C175.224 20.0098 219.99 64.7753 219.99 120C219.99 175.224 175.224 219.99 120 219.99C102.329 220.018 84.9699 215.342 69.7049 206.441L20.0499 219.99ZM83.9135 73.0844C82.6222 73.1646 81.3605 73.5047 80.2038 74.0843C79.1192 74.6986 78.129 75.4664 77.2641 76.3641C76.0643 77.494 75.3843 78.4739 74.6544 79.4238C70.9589 84.2333 68.9711 90.1369 69.005 96.2021C69.025 101.102 70.3048 105.871 72.3046 110.331C76.3942 119.35 83.1235 128.899 92.0126 137.748C94.1524 139.878 96.2422 142.017 98.492 144.007C109.525 153.721 122.672 160.726 136.888 164.465L142.578 165.335C144.427 165.435 146.277 165.295 148.137 165.205C151.049 165.055 153.893 164.266 156.466 162.895C158.126 162.015 158.906 161.576 160.296 160.696C160.296 160.696 160.726 160.416 161.546 159.796C162.896 158.796 163.725 158.086 164.845 156.916C165.675 156.056 166.395 155.046 166.945 153.896C167.725 152.266 168.505 149.157 168.825 146.567C169.065 144.587 168.995 143.507 168.965 142.837C168.925 141.768 168.035 140.658 167.065 140.188L161.246 137.578C161.246 137.578 152.547 133.788 147.237 131.369C146.677 131.125 146.077 130.986 145.467 130.959C144.783 130.888 144.092 130.965 143.44 131.184C142.788 131.403 142.191 131.759 141.688 132.228V132.208C141.638 132.208 140.968 132.778 133.738 141.538C133.324 142.095 132.752 142.516 132.097 142.748C131.441 142.979 130.732 143.011 130.059 142.837C129.407 142.663 128.769 142.443 128.149 142.177C126.909 141.658 126.479 141.458 125.629 141.088L125.579 141.068C119.859 138.57 114.563 135.197 109.881 131.069C108.621 129.969 107.451 128.769 106.251 127.609C102.317 123.842 98.8891 119.58 96.0522 114.93L95.4623 113.98C95.0386 113.342 94.696 112.653 94.4424 111.931C94.0624 110.461 95.0523 109.281 95.0523 109.281C95.0523 109.281 97.4821 106.621 98.612 105.181C99.5528 103.985 100.431 102.74 101.242 101.452C102.422 99.5518 102.792 97.602 102.172 96.0921C99.3719 89.2528 96.4722 82.4435 93.4925 75.6842C92.9026 74.3443 91.1527 73.3844 89.5629 73.1944C89.0229 73.1344 88.483 73.0744 87.9431 73.0344C86.6003 72.9677 85.2547 72.9911 83.9135 73.0844Z"
                fill="url(#paint0_linear_429_4898)" />
        </g>
    </g>
    <defs>
        <filter id="filter0_d_429_4898" x="-38.542" y="-38.542" width="317.083" height="317.083"
            filterUnits="userSpaceOnUse" color-interpolation-filters="sRGB">
            <feFlood flood-opacity="0" result="BackgroundImageFix" />
            <feColorMatrix in="SourceAlpha" type="matrix"
                values="0 0 0 0 0 0 0 0 0 0 0 0 0 0 0 0 0 0 127 0" result="hardAlpha" />
            <feOffset />
            <feGaussianBlur stdDeviation="29.2759" />
            <feComposite in2="hardAlpha" operator="out" />
            <feColorMatrix type="matrix"
                values="0 0 0 0 0.270588 0 0 0 0 0.101961 0 0 0 0 0.886275 0 0 0 0.4 0" />
            <feBlend mode="normal" in2="BackgroundImageFix" result="effect1_dropShadow_429_4898" />
            <feBlend mode="normal" in="SourceGraphic" in2="effect1_dropShadow_429_4898"
                result="shape" />
        </filter>
        <linearGradient id="paint0_linear_429_4898" x1="20.0098" y1="20.0098" x2="244.24"
            y2="52.4685" gradientUnits="userSpaceOnUse">
            <stop stop-color="#2D51FD" />
            <stop offset="1" stop-color="#451AE2" />
        </linearGradient>
        <clipPath id="clip0_429_4898">
            <rect width="240" height="240" fill="white" />
        </clipPath>
    </defs>
</svg>