<svg width="48" height="48" viewBox="0 0 48 48" fill="none" xmlns="http://www.w3.org/2000/svg">
    <rect width="48" height="47.9577" fill="#0F1216" />
    <path
        d="M45.7989 20.8889H43.9153V23.6614H36.5926C36.5926 23.2593 36.5503 22.8571 36.5079 22.4762V22.5185L47.5767 18.9206L46.836 16.6138C45.6508 16.7831 44.3386 15.9153 43.7884 14.2645L42.0106 14.836L42.8783 17.4815L35.9153 19.746C35.7883 19.3862 35.6402 19.0264 35.492 18.6878L44.8889 11.873L43.4709 9.92592C42.3915 10.455 40.8677 10.0317 39.8519 8.65608L38.328 9.75661L39.9577 12L34.0317 16.2963C33.7778 15.9788 33.5238 15.6825 33.2487 15.3862L33.291 15.4286L40.127 6.03174L38.1799 4.61375C37.3333 5.46031 35.746 5.52381 34.328 4.50793L33.2275 6.03174L35.4709 7.66138L31.1746 13.5873C30.836 13.3545 30.4974 13.1429 30.1376 12.9524H30.201L33.7989 1.92593L31.4921 1.18519C30.9418 2.24339 29.4603 2.79365 27.8095 2.28571L27.2381 4.06349L29.8836 4.93121L27.619 11.8942C27.2381 11.7884 26.8571 11.6825 26.455 11.619H26.4973V0H24.0847C23.8942 1.18518 22.6455 2.15873 20.9101 2.17989V4.06349H23.6825V11.3862C23.2804 11.3862 22.8783 11.4286 22.4762 11.4709H22.5397C22.5397 11.4497 18.9418 0.402115 18.9418 0.402115L16.6349 1.14286C16.8042 2.32804 15.9365 3.64021 14.2857 4.19047L14.8571 5.96826L17.5026 5.10053L19.7672 12.0635C19.4074 12.1905 19.0476 12.3386 18.709 12.4868L11.8942 3.08995L9.94709 4.50793C10.4762 5.5873 10.0529 7.11111 8.67725 8.12698L9.77777 9.65079L12.0212 8.02116L16.3175 13.9259C16.0212 14.1587 15.7249 14.4127 15.4497 14.6667L6.07406 7.87302L4.65608 9.8201C5.50264 10.6667 5.56614 12.254 4.55026 13.672L6.07406 14.7725L7.70371 12.5291L13.5873 16.8042C13.3545 17.1429 13.1428 17.4815 12.9524 17.8413V17.7778L1.92592 14.1799L1.18518 16.4868C2.24338 17.037 2.79366 18.5185 2.28572 20.1693L4.06348 20.7407L4.93123 18.0952L11.8942 20.3598C11.7883 20.7407 11.6825 21.1217 11.6191 21.5238V21.4815H0V23.8942C1.18518 24.0847 2.15874 25.3333 2.1799 27.0688H4.06348V24.2963H11.3863C11.3863 24.6984 11.4286 25.1005 11.4709 25.4815V25.4391L0.402121 29.037L1.14286 31.3439C2.32805 31.1746 3.64022 32.0423 4.19049 33.6931L5.96824 33.1217L5.10052 30.4762L12.0635 28.2116C12.1905 28.5714 12.3386 28.9312 12.4868 29.2698L3.08994 36.0846L4.50795 38.0317C5.58731 37.5026 7.11111 37.9259 8.12699 39.3016L9.65079 38.201L8.02117 35.9577L13.9471 31.6614C14.2011 31.9788 14.455 32.2751 14.7302 32.5714L14.6878 32.5291L7.85184 41.9259L9.79895 43.3439C10.6455 42.4973 12.2328 42.4338 13.6508 43.4497L14.7513 41.9259L12.5079 40.2963L16.8254 34.3704C17.164 34.6032 17.5026 34.8148 17.8624 35.0053H17.7989L14.201 46.0317L16.5079 46.7725C17.0582 45.7143 18.5397 45.164 20.1905 45.6719L20.7619 43.8942L18.1164 43.0264L20.381 36.0635C20.7619 36.1693 21.1429 36.2751 21.545 36.3386H21.5026V47.9577H23.9153C24.1058 46.7725 25.3545 45.7989 27.0899 45.7778V43.8942H24.3175V36.5714C24.7196 36.5714 25.1217 36.5291 25.5238 36.4868H25.4603C25.4603 36.5079 29.0582 47.5555 29.0582 47.5555L31.3651 46.8148C31.1957 45.6296 32.0635 44.3174 33.7143 43.7672L33.1428 41.9894L30.4973 42.8571L28.2328 35.8942C28.5926 35.7672 28.9524 35.619 29.291 35.4709L36.1058 44.8677L38.0529 43.4497C37.5238 42.3704 37.9471 40.8466 39.3228 39.8307L38.2222 38.3069L35.9788 39.9365L31.6825 34.0317C31.9788 33.7989 32.2751 33.545 32.5503 33.291L41.9259 40.0847L43.3439 38.1376C42.4974 37.291 42.4339 35.7037 43.4497 34.2857L41.9259 33.1852L40.2963 35.4286L34.4127 31.1534C34.6455 30.836 34.836 30.4974 35.0476 30.1376V30.1799L46.0741 33.7778L46.8148 31.4709C45.7566 30.9206 45.2063 29.4391 45.7143 27.7884L43.9365 27.2169L43.0688 29.8624L36.1058 27.5979C36.2116 27.2169 36.3175 26.8148 36.381 26.4127V26.4762H48V24.0635C46.8148 23.873 45.8413 22.6243 45.8201 20.8889H45.7989ZM23.9577 30.7302C20.254 30.7302 17.2487 27.7249 17.2487 24.0212C17.2487 20.3175 20.254 17.3122 23.9577 17.3122C27.6614 17.3122 30.6667 20.3175 30.6667 24.0212C30.6667 27.7249 27.6614 30.7302 23.9577 30.7302Z"
        fill="white" />
</svg>