<svg width="41" height="41" viewBox="0 0 41 41" fill="none" xmlns="http://www.w3.org/2000/svg">
<path d="M33.1665 23.0088C33.1697 23.5184 33.0148 24.0166 32.7233 24.4346C32.4317 24.8526 32.0178 25.1701 31.5384 25.3432L23.479 28.3213L20.5103 36.3869C20.3345 36.8645 20.0164 37.2767 19.5989 37.5679C19.1815 37.859 18.6848 38.0151 18.1759 38.0151C17.6669 38.0151 17.1703 37.859 16.7528 37.5679C16.3354 37.2767 16.0173 36.8645 15.8415 36.3869L12.854 28.3213L4.78838 25.3525C4.31077 25.1767 3.89858 24.8587 3.60742 24.4412C3.31627 24.0238 3.16016 23.5271 3.16016 23.0182C3.16016 22.5092 3.31627 22.0125 3.60742 21.5951C3.89858 21.1777 4.31077 20.8596 4.78838 20.6838L12.854 17.6963L15.8228 9.63066C15.9986 9.15305 16.3166 8.74086 16.7341 8.4497C17.1515 8.15855 17.6482 8.00244 18.1571 8.00244C18.6661 8.00244 19.1628 8.15855 19.5802 8.4497C19.9976 8.74086 20.3157 9.15305 20.4915 9.63066L23.479 17.6963L31.5446 20.665C32.0244 20.8397 32.438 21.159 32.7285 21.5788C33.0191 21.9986 33.1721 22.4983 33.1665 23.0088ZM24.4165 8.00879H26.9165V10.5088C26.9165 10.8403 27.0482 11.1583 27.2826 11.3927C27.517 11.6271 27.835 11.7588 28.1665 11.7588C28.498 11.7588 28.816 11.6271 29.0504 11.3927C29.2848 11.1583 29.4165 10.8403 29.4165 10.5088V8.00879H31.9165C32.248 8.00879 32.566 7.87709 32.8004 7.64267C33.0348 7.40825 33.1665 7.09031 33.1665 6.75879C33.1665 6.42727 33.0348 6.10933 32.8004 5.87491C32.566 5.64049 32.248 5.50879 31.9165 5.50879H29.4165V3.00879C29.4165 2.67727 29.2848 2.35933 29.0504 2.12491C28.816 1.89049 28.498 1.75879 28.1665 1.75879C27.835 1.75879 27.517 1.89049 27.2826 2.12491C27.0482 2.35933 26.9165 2.67727 26.9165 3.00879V5.50879H24.4165C24.085 5.50879 23.767 5.64049 23.5326 5.87491C23.2982 6.10933 23.1665 6.42727 23.1665 6.75879C23.1665 7.09031 23.2982 7.40825 23.5326 7.64267C23.767 7.87709 24.085 8.00879 24.4165 8.00879ZM38.1665 13.0088H36.9165V11.7588C36.9165 11.4273 36.7848 11.1093 36.5504 10.8749C36.316 10.6405 35.998 10.5088 35.6665 10.5088C35.335 10.5088 35.017 10.6405 34.7826 10.8749C34.5482 11.1093 34.4165 11.4273 34.4165 11.7588V13.0088H33.1665C32.835 13.0088 32.517 13.1405 32.2826 13.3749C32.0482 13.6093 31.9165 13.9273 31.9165 14.2588C31.9165 14.5903 32.0482 14.9083 32.2826 15.1427C32.517 15.3771 32.835 15.5088 33.1665 15.5088H34.4165V16.7588C34.4165 17.0903 34.5482 17.4083 34.7826 17.6427C35.017 17.8771 35.335 18.0088 35.6665 18.0088C35.998 18.0088 36.316 17.8771 36.5504 17.6427C36.7848 17.4083 36.9165 17.0903 36.9165 16.7588V15.5088H38.1665C38.498 15.5088 38.816 15.3771 39.0504 15.1427C39.2848 14.9083 39.4165 14.5903 39.4165 14.2588C39.4165 13.9273 39.2848 13.6093 39.0504 13.3749C38.816 13.1405 38.498 13.0088 38.1665 13.0088Z" fill="#451AE2"/>
<path d="M33.1665 23.0088C33.1697 23.5184 33.0148 24.0166 32.7233 24.4346C32.4317 24.8526 32.0178 25.1701 31.5384 25.3432L23.479 28.3213L20.5103 36.3869C20.3345 36.8645 20.0164 37.2767 19.5989 37.5679C19.1815 37.859 18.6848 38.0151 18.1759 38.0151C17.6669 38.0151 17.1703 37.859 16.7528 37.5679C16.3354 37.2767 16.0173 36.8645 15.8415 36.3869L12.854 28.3213L4.78838 25.3525C4.31077 25.1767 3.89858 24.8587 3.60742 24.4412C3.31627 24.0238 3.16016 23.5271 3.16016 23.0182C3.16016 22.5092 3.31627 22.0125 3.60742 21.5951C3.89858 21.1777 4.31077 20.8596 4.78838 20.6838L12.854 17.6963L15.8228 9.63066C15.9986 9.15305 16.3166 8.74086 16.7341 8.4497C17.1515 8.15855 17.6482 8.00244 18.1571 8.00244C18.6661 8.00244 19.1628 8.15855 19.5802 8.4497C19.9976 8.74086 20.3157 9.15305 20.4915 9.63066L23.479 17.6963L31.5446 20.665C32.0244 20.8397 32.438 21.159 32.7285 21.5788C33.0191 21.9986 33.1721 22.4983 33.1665 23.0088ZM24.4165 8.00879H26.9165V10.5088C26.9165 10.8403 27.0482 11.1583 27.2826 11.3927C27.517 11.6271 27.835 11.7588 28.1665 11.7588C28.498 11.7588 28.816 11.6271 29.0504 11.3927C29.2848 11.1583 29.4165 10.8403 29.4165 10.5088V8.00879H31.9165C32.248 8.00879 32.566 7.87709 32.8004 7.64267C33.0348 7.40825 33.1665 7.09031 33.1665 6.75879C33.1665 6.42727 33.0348 6.10933 32.8004 5.87491C32.566 5.64049 32.248 5.50879 31.9165 5.50879H29.4165V3.00879C29.4165 2.67727 29.2848 2.35933 29.0504 2.12491C28.816 1.89049 28.498 1.75879 28.1665 1.75879C27.835 1.75879 27.517 1.89049 27.2826 2.12491C27.0482 2.35933 26.9165 2.67727 26.9165 3.00879V5.50879H24.4165C24.085 5.50879 23.767 5.64049 23.5326 5.87491C23.2982 6.10933 23.1665 6.42727 23.1665 6.75879C23.1665 7.09031 23.2982 7.40825 23.5326 7.64267C23.767 7.87709 24.085 8.00879 24.4165 8.00879ZM38.1665 13.0088H36.9165V11.7588C36.9165 11.4273 36.7848 11.1093 36.5504 10.8749C36.316 10.6405 35.998 10.5088 35.6665 10.5088C35.335 10.5088 35.017 10.6405 34.7826 10.8749C34.5482 11.1093 34.4165 11.4273 34.4165 11.7588V13.0088H33.1665C32.835 13.0088 32.517 13.1405 32.2826 13.3749C32.0482 13.6093 31.9165 13.9273 31.9165 14.2588C31.9165 14.5903 32.0482 14.9083 32.2826 15.1427C32.517 15.3771 32.835 15.5088 33.1665 15.5088H34.4165V16.7588C34.4165 17.0903 34.5482 17.4083 34.7826 17.6427C35.017 17.8771 35.335 18.0088 35.6665 18.0088C35.998 18.0088 36.316 17.8771 36.5504 17.6427C36.7848 17.4083 36.9165 17.0903 36.9165 16.7588V15.5088H38.1665C38.498 15.5088 38.816 15.3771 39.0504 15.1427C39.2848 14.9083 39.4165 14.5903 39.4165 14.2588C39.4165 13.9273 39.2848 13.6093 39.0504 13.3749C38.816 13.1405 38.498 13.0088 38.1665 13.0088Z" fill="white" fill-opacity="0.2"/>
</svg>
