<svg width="41" height="41" viewBox="0 0 41 41" fill="none" xmlns="http://www.w3.org/2000/svg">
<path d="M36.5835 20.5088V33.0088C36.5835 34.6664 35.925 36.2561 34.7529 37.4282C33.5808 38.6003 31.9911 39.2588 30.3335 39.2588H21.5835C21.252 39.2588 20.934 39.1271 20.6996 38.8926C20.4652 38.6582 20.3335 38.3403 20.3335 38.0088C20.3335 37.6772 20.4652 37.3593 20.6996 37.1249C20.934 36.8905 21.252 36.7588 21.5835 36.7588H30.3335C31.3281 36.7588 32.2819 36.3637 32.9851 35.6604C33.6884 34.9572 34.0835 34.0033 34.0835 33.0088H30.3335C29.3389 33.0088 28.3851 32.6137 27.6818 31.9104C26.9786 31.2072 26.5835 30.2533 26.5835 29.2588V23.0088C26.5835 22.0142 26.9786 21.0604 27.6818 20.3571C28.3851 19.6539 29.3389 19.2588 30.3335 19.2588H34.0288C33.7923 16.6602 32.8212 14.1826 31.2291 12.1154C29.637 10.0481 27.4895 8.47659 25.0376 7.58428C22.5856 6.69197 19.9304 6.51575 17.382 7.07621C14.8336 7.63667 12.4973 8.91067 10.646 10.7494C8.3439 13.0211 6.924 16.037 6.63975 19.2588H10.3335C11.3281 19.2588 12.2819 19.6539 12.9851 20.3571C13.6884 21.0604 14.0835 22.0142 14.0835 23.0088V29.2588C14.0835 30.2533 13.6884 31.2072 12.9851 31.9104C12.2819 32.6137 11.3281 33.0088 10.3335 33.0088H7.8335C6.83893 33.0088 5.88511 32.6137 5.18185 31.9104C4.47858 31.2072 4.0835 30.2533 4.0835 29.2588V20.5088C4.087 17.2899 5.04541 14.1443 6.83741 11.4704C8.62941 8.7964 11.1744 6.71418 14.1504 5.48728C17.1263 4.26037 20.3993 3.94394 23.5551 4.57803C26.711 5.21212 29.6078 6.76823 31.8788 9.04939C33.3782 10.5561 34.5656 12.3439 35.3729 14.3103C36.1803 16.2767 36.5916 18.3831 36.5835 20.5088Z" fill="#451AE2"/>
<path d="M36.5835 20.5088V33.0088C36.5835 34.6664 35.925 36.2561 34.7529 37.4282C33.5808 38.6003 31.9911 39.2588 30.3335 39.2588H21.5835C21.252 39.2588 20.934 39.1271 20.6996 38.8926C20.4652 38.6582 20.3335 38.3403 20.3335 38.0088C20.3335 37.6772 20.4652 37.3593 20.6996 37.1249C20.934 36.8905 21.252 36.7588 21.5835 36.7588H30.3335C31.3281 36.7588 32.2819 36.3637 32.9851 35.6604C33.6884 34.9572 34.0835 34.0033 34.0835 33.0088H30.3335C29.3389 33.0088 28.3851 32.6137 27.6818 31.9104C26.9786 31.2072 26.5835 30.2533 26.5835 29.2588V23.0088C26.5835 22.0142 26.9786 21.0604 27.6818 20.3571C28.3851 19.6539 29.3389 19.2588 30.3335 19.2588H34.0288C33.7923 16.6602 32.8212 14.1826 31.2291 12.1154C29.637 10.0481 27.4895 8.47659 25.0376 7.58428C22.5856 6.69197 19.9304 6.51575 17.382 7.07621C14.8336 7.63667 12.4973 8.91067 10.646 10.7494C8.3439 13.0211 6.924 16.037 6.63975 19.2588H10.3335C11.3281 19.2588 12.2819 19.6539 12.9851 20.3571C13.6884 21.0604 14.0835 22.0142 14.0835 23.0088V29.2588C14.0835 30.2533 13.6884 31.2072 12.9851 31.9104C12.2819 32.6137 11.3281 33.0088 10.3335 33.0088H7.8335C6.83893 33.0088 5.88511 32.6137 5.18185 31.9104C4.47858 31.2072 4.0835 30.2533 4.0835 29.2588V20.5088C4.087 17.2899 5.04541 14.1443 6.83741 11.4704C8.62941 8.7964 11.1744 6.71418 14.1504 5.48728C17.1263 4.26037 20.3993 3.94394 23.5551 4.57803C26.711 5.21212 29.6078 6.76823 31.8788 9.04939C33.3782 10.5561 34.5656 12.3439 35.3729 14.3103C36.1803 16.2767 36.5916 18.3831 36.5835 20.5088Z" fill="white" fill-opacity="0.2"/>
</svg>
