<svg width="40" height="40" viewBox="0 0 40 40" fill="none" xmlns="http://www.w3.org/2000/svg">
<path d="M33.75 6.25879H6.25C5.58696 6.25879 4.95107 6.52218 4.48223 6.99102C4.01339 7.45986 3.75 8.09575 3.75 8.75879V31.2588C3.75 31.9218 4.01339 32.5577 4.48223 33.0266C4.95107 33.4954 5.58696 33.7588 6.25 33.7588H33.75C34.413 33.7588 35.0489 33.4954 35.5178 33.0266C35.9866 32.5577 36.25 31.9218 36.25 31.2588V8.75879C36.25 8.09575 35.9866 7.45986 35.5178 6.99102C35.0489 6.52218 34.413 6.25879 33.75 6.25879ZM31.25 30.0088H8.75C8.41848 30.0088 8.10054 29.8771 7.86612 29.6427C7.6317 29.4083 7.5 29.0903 7.5 28.7588V11.2588C7.5 10.9273 7.6317 10.6093 7.86612 10.3749C8.10054 10.1405 8.41848 10.0088 8.75 10.0088C9.08152 10.0088 9.39946 10.1405 9.63388 10.3749C9.8683 10.6093 10 10.9273 10 11.2588V23.2416L15.3656 17.8744C15.4817 17.7582 15.6196 17.666 15.7713 17.6031C15.9231 17.5402 16.0857 17.5078 16.25 17.5078C16.4143 17.5078 16.5769 17.5402 16.7287 17.6031C16.8804 17.666 17.0183 17.7582 17.1344 17.8744L20 20.7416L26.9828 13.7588H22.5C22.1685 13.7588 21.8505 13.6271 21.6161 13.3927C21.3817 13.1583 21.25 12.8403 21.25 12.5088C21.25 12.1773 21.3817 11.8593 21.6161 11.6249C21.8505 11.3905 22.1685 11.2588 22.5 11.2588H30C30.3315 11.2588 30.6495 11.3905 30.8839 11.6249C31.1183 11.8593 31.25 12.1773 31.25 12.5088V20.0088C31.25 20.3403 31.1183 20.6583 30.8839 20.8927C30.6495 21.1271 30.3315 21.2588 30 21.2588C29.6685 21.2588 29.3505 21.1271 29.1161 20.8927C28.8817 20.6583 28.75 20.3403 28.75 20.0088V15.526L20.8844 23.3932C20.7683 23.5094 20.6304 23.6016 20.4787 23.6645C20.3269 23.7274 20.1643 23.7598 20 23.7598C19.8357 23.7598 19.6731 23.7274 19.5213 23.6645C19.3696 23.6016 19.2317 23.5094 19.1156 23.3932L16.25 20.526L10 26.776V27.5088H31.25C31.5815 27.5088 31.8995 27.6405 32.1339 27.8749C32.3683 28.1093 32.5 28.4273 32.5 28.7588C32.5 29.0903 32.3683 29.4083 32.1339 29.6427C31.8995 29.8771 31.5815 30.0088 31.25 30.0088Z" fill="#451AE2"/>
<path d="M33.75 6.25879H6.25C5.58696 6.25879 4.95107 6.52218 4.48223 6.99102C4.01339 7.45986 3.75 8.09575 3.75 8.75879V31.2588C3.75 31.9218 4.01339 32.5577 4.48223 33.0266C4.95107 33.4954 5.58696 33.7588 6.25 33.7588H33.75C34.413 33.7588 35.0489 33.4954 35.5178 33.0266C35.9866 32.5577 36.25 31.9218 36.25 31.2588V8.75879C36.25 8.09575 35.9866 7.45986 35.5178 6.99102C35.0489 6.52218 34.413 6.25879 33.75 6.25879ZM31.25 30.0088H8.75C8.41848 30.0088 8.10054 29.8771 7.86612 29.6427C7.6317 29.4083 7.5 29.0903 7.5 28.7588V11.2588C7.5 10.9273 7.6317 10.6093 7.86612 10.3749C8.10054 10.1405 8.41848 10.0088 8.75 10.0088C9.08152 10.0088 9.39946 10.1405 9.63388 10.3749C9.8683 10.6093 10 10.9273 10 11.2588V23.2416L15.3656 17.8744C15.4817 17.7582 15.6196 17.666 15.7713 17.6031C15.9231 17.5402 16.0857 17.5078 16.25 17.5078C16.4143 17.5078 16.5769 17.5402 16.7287 17.6031C16.8804 17.666 17.0183 17.7582 17.1344 17.8744L20 20.7416L26.9828 13.7588H22.5C22.1685 13.7588 21.8505 13.6271 21.6161 13.3927C21.3817 13.1583 21.25 12.8403 21.25 12.5088C21.25 12.1773 21.3817 11.8593 21.6161 11.6249C21.8505 11.3905 22.1685 11.2588 22.5 11.2588H30C30.3315 11.2588 30.6495 11.3905 30.8839 11.6249C31.1183 11.8593 31.25 12.1773 31.25 12.5088V20.0088C31.25 20.3403 31.1183 20.6583 30.8839 20.8927C30.6495 21.1271 30.3315 21.2588 30 21.2588C29.6685 21.2588 29.3505 21.1271 29.1161 20.8927C28.8817 20.6583 28.75 20.3403 28.75 20.0088V15.526L20.8844 23.3932C20.7683 23.5094 20.6304 23.6016 20.4787 23.6645C20.3269 23.7274 20.1643 23.7598 20 23.7598C19.8357 23.7598 19.6731 23.7274 19.5213 23.6645C19.3696 23.6016 19.2317 23.5094 19.1156 23.3932L16.25 20.526L10 26.776V27.5088H31.25C31.5815 27.5088 31.8995 27.6405 32.1339 27.8749C32.3683 28.1093 32.5 28.4273 32.5 28.7588C32.5 29.0903 32.3683 29.4083 32.1339 29.6427C31.8995 29.8771 31.5815 30.0088 31.25 30.0088Z" fill="white" fill-opacity="0.2"/>
</svg>
