<svg width="41" height="30" viewBox="0 0 41 30" fill="none" xmlns="http://www.w3.org/2000/svg">
<path d="M40.0415 15.0088C40.0416 15.1117 40.0162 15.2131 39.9677 15.3038C39.9192 15.3946 39.849 15.472 39.7634 15.5291L32.2634 20.5291C32.1692 20.5919 32.0598 20.628 31.9467 20.6335C31.8337 20.639 31.7213 20.6136 31.6215 20.5602C31.5217 20.5068 31.4383 20.4273 31.3802 20.3302C31.3221 20.2331 31.2914 20.122 31.2915 20.0088V16.2588H11.9165V23.7588H17.5415V22.5088C17.5415 22.0115 17.739 21.5346 18.0907 21.183C18.4423 20.8313 18.9192 20.6338 19.4165 20.6338H24.4165C24.9138 20.6338 25.3907 20.8313 25.7423 21.183C26.094 21.5346 26.2915 22.0115 26.2915 22.5088V27.5088C26.2915 28.0061 26.094 28.483 25.7423 28.8346C25.3907 29.1863 24.9138 29.3838 24.4165 29.3838H19.4165C18.9192 29.3838 18.4423 29.1863 18.0907 28.8346C17.739 28.483 17.5415 28.0061 17.5415 27.5088V26.2588H11.9165C11.2535 26.2588 10.6176 25.9954 10.1487 25.5266C9.6799 25.0577 9.4165 24.4218 9.4165 23.7588V16.2588H1.9165C1.58498 16.2588 1.26704 16.1271 1.03262 15.8927C0.7982 15.6583 0.666504 15.3403 0.666504 15.0088C0.666504 14.6773 0.7982 14.3593 1.03262 14.1249C1.26704 13.8905 1.58498 13.7588 1.9165 13.7588H9.4165V6.2588C9.4165 5.59576 9.6799 4.95987 10.1487 4.49103C10.6176 4.02219 11.2535 3.7588 11.9165 3.7588H17.7243C18.0246 2.75172 18.6773 1.88636 19.5631 1.32097C20.4489 0.755571 21.5087 0.527917 22.5486 0.679633C23.5884 0.831349 24.539 1.3523 25.2263 2.14722C25.9137 2.94214 26.2919 3.95791 26.2919 5.0088C26.2919 6.05969 25.9137 7.07546 25.2263 7.87038C24.539 8.6653 23.5884 9.18625 22.5486 9.33797C21.5087 9.48968 20.4489 9.26203 19.5631 8.69663C18.6773 8.13124 18.0246 7.26588 17.7243 6.2588H11.9165V13.7588H31.2915V10.0088C31.2914 9.89562 31.3221 9.78455 31.3802 9.68743C31.4383 9.59032 31.5217 9.51081 31.6215 9.45739C31.7213 9.40397 31.8337 9.37865 31.9467 9.38413C32.0598 9.3896 32.1692 9.42567 32.2634 9.48849L39.7634 14.4885C39.849 14.5456 39.9192 14.623 39.9677 14.7138C40.0162 14.8045 40.0416 14.9059 40.0415 15.0088Z" fill="#451AE2"/>
<path d="M40.0415 15.0088C40.0416 15.1117 40.0162 15.2131 39.9677 15.3038C39.9192 15.3946 39.849 15.472 39.7634 15.5291L32.2634 20.5291C32.1692 20.5919 32.0598 20.628 31.9467 20.6335C31.8337 20.639 31.7213 20.6136 31.6215 20.5602C31.5217 20.5068 31.4383 20.4273 31.3802 20.3302C31.3221 20.2331 31.2914 20.122 31.2915 20.0088V16.2588H11.9165V23.7588H17.5415V22.5088C17.5415 22.0115 17.739 21.5346 18.0907 21.183C18.4423 20.8313 18.9192 20.6338 19.4165 20.6338H24.4165C24.9138 20.6338 25.3907 20.8313 25.7423 21.183C26.094 21.5346 26.2915 22.0115 26.2915 22.5088V27.5088C26.2915 28.0061 26.094 28.483 25.7423 28.8346C25.3907 29.1863 24.9138 29.3838 24.4165 29.3838H19.4165C18.9192 29.3838 18.4423 29.1863 18.0907 28.8346C17.739 28.483 17.5415 28.0061 17.5415 27.5088V26.2588H11.9165C11.2535 26.2588 10.6176 25.9954 10.1487 25.5266C9.6799 25.0577 9.4165 24.4218 9.4165 23.7588V16.2588H1.9165C1.58498 16.2588 1.26704 16.1271 1.03262 15.8927C0.7982 15.6583 0.666504 15.3403 0.666504 15.0088C0.666504 14.6773 0.7982 14.3593 1.03262 14.1249C1.26704 13.8905 1.58498 13.7588 1.9165 13.7588H9.4165V6.2588C9.4165 5.59576 9.6799 4.95987 10.1487 4.49103C10.6176 4.02219 11.2535 3.7588 11.9165 3.7588H17.7243C18.0246 2.75172 18.6773 1.88636 19.5631 1.32097C20.4489 0.755571 21.5087 0.527917 22.5486 0.679633C23.5884 0.831349 24.539 1.3523 25.2263 2.14722C25.9137 2.94214 26.2919 3.95791 26.2919 5.0088C26.2919 6.05969 25.9137 7.07546 25.2263 7.87038C24.539 8.6653 23.5884 9.18625 22.5486 9.33797C21.5087 9.48968 20.4489 9.26203 19.5631 8.69663C18.6773 8.13124 18.0246 7.26588 17.7243 6.2588H11.9165V13.7588H31.2915V10.0088C31.2914 9.89562 31.3221 9.78455 31.3802 9.68743C31.4383 9.59032 31.5217 9.51081 31.6215 9.45739C31.7213 9.40397 31.8337 9.37865 31.9467 9.38413C32.0598 9.3896 32.1692 9.42567 32.2634 9.48849L39.7634 14.4885C39.849 14.5456 39.9192 14.623 39.9677 14.7138C40.0162 14.8045 40.0416 14.9059 40.0415 15.0088Z" fill="white" fill-opacity="0.2"/>
</svg>
