<svg width="34" height="35" viewBox="0 0 34 35" fill="none" xmlns="http://www.w3.org/2000/svg">
<path d="M28.25 7.00879H18.25V2.00879C18.25 1.67727 18.1183 1.35933 17.8839 1.12491C17.6495 0.890485 17.3315 0.758789 17 0.758789C16.6685 0.758789 16.3505 0.890485 16.1161 1.12491C15.8817 1.35933 15.75 1.67727 15.75 2.00879V7.00879H5.75C4.42392 7.00879 3.15215 7.53557 2.21447 8.47325C1.27678 9.41094 0.75 10.6827 0.75 12.0088V29.5088C0.75 30.8349 1.27678 32.1066 2.21447 33.0443C3.15215 33.982 4.42392 34.5088 5.75 34.5088H28.25C29.5761 34.5088 30.8479 33.982 31.7855 33.0443C32.7232 32.1066 33.25 30.8349 33.25 29.5088V12.0088C33.25 10.6827 32.7232 9.41094 31.7855 8.47325C30.8479 7.53557 29.5761 7.00879 28.25 7.00879ZM23.875 14.5088C24.2458 14.5088 24.6084 14.6188 24.9167 14.8248C25.225 15.0308 25.4654 15.3236 25.6073 15.6663C25.7492 16.0089 25.7863 16.3859 25.714 16.7496C25.6416 17.1133 25.463 17.4474 25.2008 17.7096C24.9386 17.9718 24.6045 18.1504 24.2408 18.2228C23.8771 18.2951 23.5001 18.258 23.1575 18.1161C22.8149 17.9741 22.522 17.7338 22.316 17.4255C22.11 17.1171 22 16.7546 22 16.3838C22 15.8865 22.1975 15.4096 22.5492 15.058C22.9008 14.7063 23.3777 14.5088 23.875 14.5088ZM12 28.2588H9.5C8.83696 28.2588 8.20107 27.9954 7.73223 27.5266C7.26339 27.0577 7 26.4218 7 25.7588C7 25.0957 7.26339 24.4599 7.73223 23.991C8.20107 23.5222 8.83696 23.2588 9.5 23.2588H12V28.2588ZM10.125 18.2588C9.75416 18.2588 9.39165 18.1488 9.08331 17.9428C8.77496 17.7368 8.53464 17.4439 8.39273 17.1013C8.25081 16.7587 8.21368 16.3817 8.28603 16.018C8.35837 15.6543 8.53695 15.3202 8.79917 15.058C9.0614 14.7957 9.39549 14.6172 9.75921 14.5448C10.1229 14.4725 10.4999 14.5096 10.8425 14.6515C11.1851 14.7934 11.478 15.0338 11.684 15.3421C11.89 15.6504 12 16.0129 12 16.3838C12 16.8811 11.8025 17.358 11.4508 17.7096C11.0992 18.0612 10.6223 18.2588 10.125 18.2588ZM19.5 28.2588H14.5V23.2588H19.5V28.2588ZM24.5 28.2588H22V23.2588H24.5C25.163 23.2588 25.7989 23.5222 26.2678 23.991C26.7366 24.4599 27 25.0957 27 25.7588C27 26.4218 26.7366 27.0577 26.2678 27.5266C25.7989 27.9954 25.163 28.2588 24.5 28.2588Z" fill="#451AE2"/>
<path d="M28.25 7.00879H18.25V2.00879C18.25 1.67727 18.1183 1.35933 17.8839 1.12491C17.6495 0.890485 17.3315 0.758789 17 0.758789C16.6685 0.758789 16.3505 0.890485 16.1161 1.12491C15.8817 1.35933 15.75 1.67727 15.75 2.00879V7.00879H5.75C4.42392 7.00879 3.15215 7.53557 2.21447 8.47325C1.27678 9.41094 0.75 10.6827 0.75 12.0088V29.5088C0.75 30.8349 1.27678 32.1066 2.21447 33.0443C3.15215 33.982 4.42392 34.5088 5.75 34.5088H28.25C29.5761 34.5088 30.8479 33.982 31.7855 33.0443C32.7232 32.1066 33.25 30.8349 33.25 29.5088V12.0088C33.25 10.6827 32.7232 9.41094 31.7855 8.47325C30.8479 7.53557 29.5761 7.00879 28.25 7.00879ZM23.875 14.5088C24.2458 14.5088 24.6084 14.6188 24.9167 14.8248C25.225 15.0308 25.4654 15.3236 25.6073 15.6663C25.7492 16.0089 25.7863 16.3859 25.714 16.7496C25.6416 17.1133 25.463 17.4474 25.2008 17.7096C24.9386 17.9718 24.6045 18.1504 24.2408 18.2228C23.8771 18.2951 23.5001 18.258 23.1575 18.1161C22.8149 17.9741 22.522 17.7338 22.316 17.4255C22.11 17.1171 22 16.7546 22 16.3838C22 15.8865 22.1975 15.4096 22.5492 15.058C22.9008 14.7063 23.3777 14.5088 23.875 14.5088ZM12 28.2588H9.5C8.83696 28.2588 8.20107 27.9954 7.73223 27.5266C7.26339 27.0577 7 26.4218 7 25.7588C7 25.0957 7.26339 24.4599 7.73223 23.991C8.20107 23.5222 8.83696 23.2588 9.5 23.2588H12V28.2588ZM10.125 18.2588C9.75416 18.2588 9.39165 18.1488 9.08331 17.9428C8.77496 17.7368 8.53464 17.4439 8.39273 17.1013C8.25081 16.7587 8.21368 16.3817 8.28603 16.018C8.35837 15.6543 8.53695 15.3202 8.79917 15.058C9.0614 14.7957 9.39549 14.6172 9.75921 14.5448C10.1229 14.4725 10.4999 14.5096 10.8425 14.6515C11.1851 14.7934 11.478 15.0338 11.684 15.3421C11.89 15.6504 12 16.0129 12 16.3838C12 16.8811 11.8025 17.358 11.4508 17.7096C11.0992 18.0612 10.6223 18.2588 10.125 18.2588ZM19.5 28.2588H14.5V23.2588H19.5V28.2588ZM24.5 28.2588H22V23.2588H24.5C25.163 23.2588 25.7989 23.5222 26.2678 23.991C26.7366 24.4599 27 25.0957 27 25.7588C27 26.4218 26.7366 27.0577 26.2678 27.5266C25.7989 27.9954 25.163 28.2588 24.5 28.2588Z" fill="white" fill-opacity="0.2"/>
</svg>
