<svg width="40" height="40" viewBox="0 0 40 40" fill="none" xmlns="http://www.w3.org/2000/svg">
<path d="M38.0172 21.2588L22.5 5.74161C22.2687 5.50846 21.9934 5.3236 21.69 5.1978C21.3866 5.072 21.0613 5.00775 20.7328 5.0088H6.25001C5.91849 5.0088 5.60055 5.1405 5.36613 5.37492C5.13171 5.60934 5.00001 5.92728 5.00001 6.2588V20.7416C4.99896 21.07 5.06321 21.3954 5.18901 21.6988C5.31481 22.0022 5.49967 22.2775 5.73282 22.5088L21.25 38.026C21.4822 38.2582 21.7578 38.4424 22.0611 38.5681C22.3645 38.6937 22.6896 38.7584 23.018 38.7584C23.3463 38.7584 23.6715 38.6937 23.9748 38.5681C24.2782 38.4424 24.5538 38.2582 24.786 38.026L38.0172 24.7947C38.2494 24.5626 38.4336 24.287 38.5593 23.9836C38.685 23.6803 38.7496 23.3551 38.7496 23.0268C38.7496 22.6984 38.685 22.3733 38.5593 22.0699C38.4336 21.7666 38.2494 21.491 38.0172 21.2588ZM13.125 15.0088C12.7542 15.0088 12.3917 14.8988 12.0833 14.6928C11.775 14.4868 11.5347 14.1939 11.3927 13.8513C11.2508 13.5087 11.2137 13.1317 11.286 12.768C11.3584 12.4043 11.537 12.0702 11.7992 11.808C12.0614 11.5458 12.3955 11.3672 12.7592 11.2948C13.1229 11.2225 13.4999 11.2596 13.8425 11.4015C14.1852 11.5434 14.478 11.7838 14.684 12.0921C14.89 12.4005 15 12.763 15 13.1338C15 13.6311 14.8025 14.108 14.4508 14.4596C14.0992 14.8113 13.6223 15.0088 13.125 15.0088Z" fill="#451AE2"/>
<path d="M38.0172 21.2588L22.5 5.74161C22.2687 5.50846 21.9934 5.3236 21.69 5.1978C21.3866 5.072 21.0613 5.00775 20.7328 5.0088H6.25001C5.91849 5.0088 5.60055 5.1405 5.36613 5.37492C5.13171 5.60934 5.00001 5.92728 5.00001 6.2588V20.7416C4.99896 21.07 5.06321 21.3954 5.18901 21.6988C5.31481 22.0022 5.49967 22.2775 5.73282 22.5088L21.25 38.026C21.4822 38.2582 21.7578 38.4424 22.0611 38.5681C22.3645 38.6937 22.6896 38.7584 23.018 38.7584C23.3463 38.7584 23.6715 38.6937 23.9748 38.5681C24.2782 38.4424 24.5538 38.2582 24.786 38.026L38.0172 24.7947C38.2494 24.5626 38.4336 24.287 38.5593 23.9836C38.685 23.6803 38.7496 23.3551 38.7496 23.0268C38.7496 22.6984 38.685 22.3733 38.5593 22.0699C38.4336 21.7666 38.2494 21.491 38.0172 21.2588ZM13.125 15.0088C12.7542 15.0088 12.3917 14.8988 12.0833 14.6928C11.775 14.4868 11.5347 14.1939 11.3927 13.8513C11.2508 13.5087 11.2137 13.1317 11.286 12.768C11.3584 12.4043 11.537 12.0702 11.7992 11.808C12.0614 11.5458 12.3955 11.3672 12.7592 11.2948C13.1229 11.2225 13.4999 11.2596 13.8425 11.4015C14.1852 11.5434 14.478 11.7838 14.684 12.0921C14.89 12.4005 15 12.763 15 13.1338C15 13.6311 14.8025 14.108 14.4508 14.4596C14.0992 14.8113 13.6223 15.0088 13.125 15.0088Z" fill="white" fill-opacity="0.2"/>
</svg>
