<svg width="41" height="40" viewBox="0 0 41 40" fill="none" xmlns="http://www.w3.org/2000/svg">
<path d="M36.4165 34.3836C36.3068 34.5737 36.1489 34.7315 35.9588 34.8412C35.7688 34.951 35.5531 35.0087 35.3337 35.0086H5.33368C5.11437 35.0084 4.89897 34.9505 4.70913 34.8407C4.51928 34.7309 4.36167 34.5731 4.25211 34.3831C4.14255 34.1931 4.0849 33.9776 4.08496 33.7583C4.08502 33.539 4.14277 33.3236 4.25243 33.1336C6.63212 29.0196 10.2993 26.0696 14.579 24.6711C12.4621 23.4109 10.8173 21.4906 9.89741 19.2052C8.97747 16.9198 8.83319 14.3955 9.48671 12.0201C10.1402 9.64476 11.5554 7.54957 13.515 6.05634C15.4745 4.56311 17.87 3.75439 20.3337 3.75439C22.7973 3.75439 25.1929 4.56311 27.1524 6.05634C29.1119 7.54957 30.5271 9.64476 31.1806 12.0201C31.8342 14.3955 31.6899 16.9198 30.77 19.2052C29.85 21.4906 28.2053 23.4109 26.0884 24.6711C30.3681 26.0696 34.0352 29.0196 36.4149 33.1336C36.5249 33.3235 36.5829 33.539 36.5832 33.7584C36.5835 33.9779 36.526 34.1935 36.4165 34.3836Z" fill="#451AE2"/>
<path d="M36.4165 34.3836C36.3068 34.5737 36.1489 34.7315 35.9588 34.8412C35.7688 34.951 35.5531 35.0087 35.3337 35.0086H5.33368C5.11437 35.0084 4.89897 34.9505 4.70913 34.8407C4.51928 34.7309 4.36167 34.5731 4.25211 34.3831C4.14255 34.1931 4.0849 33.9776 4.08496 33.7583C4.08502 33.539 4.14277 33.3236 4.25243 33.1336C6.63212 29.0196 10.2993 26.0696 14.579 24.6711C12.4621 23.4109 10.8173 21.4906 9.89741 19.2052C8.97747 16.9198 8.83319 14.3955 9.48671 12.0201C10.1402 9.64476 11.5554 7.54957 13.515 6.05634C15.4745 4.56311 17.87 3.75439 20.3337 3.75439C22.7973 3.75439 25.1929 4.56311 27.1524 6.05634C29.1119 7.54957 30.5271 9.64476 31.1806 12.0201C31.8342 14.3955 31.6899 16.9198 30.77 19.2052C29.85 21.4906 28.2053 23.4109 26.0884 24.6711C30.3681 26.0696 34.0352 29.0196 36.4149 33.1336C36.5249 33.3235 36.5829 33.539 36.5832 33.7584C36.5835 33.9779 36.526 34.1935 36.4165 34.3836Z" fill="white" fill-opacity="0.2"/>
</svg>
